<?xml version="1.0"?>
<svg xmlns="http://www.w3.org/2000/svg" height="512px" viewBox="-93 0 511 511.98296" width="512px"><path d="m189.1875 189.59375c14.683594 9.25 31.527344 14.492188 48.863281 15.207031 4.441407.035157 8.867188-.511719 13.167969-1.628906 7.90625-1.796875 14.726562-6.761719 18.867188-13.730469 11.28125-20.164062-6.339844-51.6875-40.105469-71.757812-21.890625-13.082032-45.058594-18.175782-61.953125-13.652344-7.929688 1.789062-14.78125 6.75-18.953125 13.730469-11.519531 20.417969 5.726562 51.285156 40.113281 71.832031zm-25.238281-63.429688c1.929687-2.972656 4.996093-5.03125 8.480469-5.691406 2.8125-.703125 5.703124-1.039062 8.601562-1.007812 14.28125.777344 28.125 5.203125 40.210938 12.851562 26.296874 15.632813 39.617187 38.640625 33.953124 48.761719-1.914062 2.949219-4.949218 4.992187-8.40625 5.648437-12.125 3.277344-31.324218-1.367187-48.863281-11.785156-26.332031-15.742187-39.660156-38.714844-33.976562-48.777344zm0 0" fill="#003559"/><path d="m137.023438 349.867188c4.714843 0 8.535156-3.820313 8.535156-8.535157 0-2.472656 5.972656-8.53125 17.066406-8.53125 4.710938 0 8.535156-3.820312 8.535156-8.535156 0-4.710937-3.824218-8.53125-8.535156-8.53125-18.5 0-34.132812 11.722656-34.132812 25.597656 0 4.714844 3.820312 8.535157 8.53125 8.535157zm0 0" fill="#003559"/><path d="m154.089844 358.398438c0 4.714843 3.824218 8.535156 8.535156 8.535156 18.5 0 34.132812-11.726563 34.132812-25.601563 0-4.710937-3.820312-8.53125-8.53125-8.53125-4.714843 0-8.535156 3.820313-8.535156 8.53125 0 2.476563-5.972656 8.535157-17.066406 8.535157-4.710938 0-8.535156 3.820312-8.535156 8.53125zm0 0" fill="#003559"/><path d="m316.226562 315.734375v-53.574219c5.261719-3.023437 8.511719-8.625 8.53125-14.695312v-34.132813c-.097656-84.789062-68.808593-153.5-153.597656-153.597656h-17.070312c-2.691406-.039063-5.199219-1.363281-6.746094-3.566406 4.234375-3.199219 6.734375-8.191407 6.746094-13.5v-25.601563c0-9.425781-7.640625-17.066406-17.066406-17.066406h-68.265626c-9.425781 0-17.066406 7.640625-17.066406 17.066406v25.601563c.019532 4.042969 1.484375 7.949219 4.128906 11.007812-54.910156 69.417969-55.261718 158.871094-55.328124 193.789063-.023438 4.519531 1.765624 8.855468 4.964843 12.042968 1.082031 1.050782 2.292969 1.953126 3.609375 2.6875v53.289063c0 .085937-.042968.15625-.042968.230469v51.203125c0 .074219.042968.144531.042968.230469v53.339843c-5.261718 3.023438-8.515625 8.625-8.53125 14.695313v25.597656c.03125 28.265625 22.9375 51.167969 51.199219 51.203125h221.824219c28.265625-.03125 51.171875-22.9375 51.199218-51.203125v-25.582031c-.019531-6.070313-3.269531-11.667969-8.53125-14.695313zm-273.027343-51.199219h255.960937v42.664063h-80.515625c-14.070312-16.257813-34.515625-25.601563-56.019531-25.601563s-41.949219 9.34375-56.019531 25.601563h-80.472657v-42.664063zm-17.066407 59.730469h84.78125c2.835938.003906 5.484376-1.40625 7.074219-3.753906 10.417969-14.132813 27.082031-22.289063 44.636719-21.84375 17.554688-.445313 34.21875 7.710937 44.636719 21.84375 1.589843 2.347656 4.238281 3.757812 7.074219 3.753906h84.824218v34.132813h-84.824218c-2.835938 0-5.484376 1.40625-7.074219 3.757812-10.417969 14.132812-27.082031 22.289062-44.636719 21.84375-17.554688.445312-34.21875-7.710938-44.636719-21.84375-1.589843-2.351562-4.238281-3.757812-7.074219-3.757812h-84.78125zm0 51.199219h80.472657c14.070312 16.261718 34.515625 25.601562 56.019531 25.601562s41.949219-9.339844 56.019531-25.601562h80.515625v42.667968h-273.027344zm42.625-358.398438h68.265626v25.601563h-68.265626zm4.078126 42.667969h57.226562c3.601562 10.191406 13.21875 17.019531 24.027344 17.066406h17.070312c75.367188.089844 136.441406 61.164063 136.53125 136.53125v34.132813h-264.492187l-25.640625-.398438c.066406-33.605468.359375-122.019531 55.277344-187.332031zm234.855468 401.066406c0 18.851563-15.28125 34.132813-34.132812 34.132813h-221.824219c-18.851563 0-34.132813-15.28125-34.132813-34.132813v-25.601562h290.089844zm0 0" fill="#003559"/></svg>
