<?xml version="1.0"?>
<svg xmlns="http://www.w3.org/2000/svg" height="512px" version="1.1" viewBox="-44 0 600 600" width="512px">
<g id="surface1">
<path d="M 510.6875 130.550781 L 484.058594 50.46875 C 479.929688 38.261719 468.492188 30.03125 455.601562 30 L 340 30 C 340 13.433594 326.566406 0 310 0 L 290 0 C 273.433594 0 260 13.433594 260 30 L 144.398438 30 C 131.480469 30.039062 120.023438 38.304688 115.90625 50.550781 L 89.3125 130.550781 C 86.289062 139.691406 87.828125 149.730469 93.453125 157.546875 C 99.027344 165.394531 108.070312 170.042969 117.699219 170 L 160 170 L 160 340 C 160 356.566406 173.433594 370 190 370 L 252.191406 370 L 260.296875 402.429688 C 261.414062 406.878906 265.414062 410 270 410 L 290 410 L 290 444.789062 L 234.28125 483.789062 C 221.140625 471.246094 202.222656 466.839844 184.898438 472.296875 C 167.574219 477.75 154.585938 492.191406 151 510 L 100 510 L 100 470 C 100 453.433594 86.566406 440 70 440 L 10 440 C 4.476562 440 0 444.476562 0 450 L 0 590 C 0 595.523438 4.476562 600 10 600 L 70 600 C 86.566406 600 100 586.566406 100 570 L 100 530 L 151 530 C 154.75 548.785156 168.910156 563.773438 187.453125 568.59375 C 205.992188 573.414062 225.65625 567.21875 238.082031 552.640625 C 250.507812 538.0625 253.515625 517.660156 245.820312 500.121094 L 305.71875 458.1875 C 308.398438 456.324219 309.996094 453.265625 310 450 L 310 410 L 330 410 C 334.585938 410 338.585938 406.878906 339.703125 402.429688 L 347.808594 370 L 410 370 C 426.566406 370 440 356.566406 440 340 L 440 170 L 482.300781 170 C 491.921875 170.046875 500.96875 165.410156 506.546875 157.570312 C 512.183594 149.75 513.726562 139.695312 510.6875 130.550781 Z M 80 570 C 80 575.523438 75.523438 580 70 580 L 20 580 L 20 460 L 70 460 C 75.523438 460 80 464.476562 80 470 Z M 200 550 C 183.433594 550 170 536.566406 170 520 C 170 503.433594 183.433594 490 200 490 C 216.566406 490 230 503.433594 230 520 C 230 536.566406 216.566406 550 200 550 Z M 290 20 L 310 20 C 315.523438 20 320 24.476562 320 30 L 280 30 C 280 24.476562 284.476562 20 290 20 Z M 322.191406 390 L 277.808594 390 L 272.808594 370 L 327.191406 370 Z M 420 340 C 420 345.523438 415.523438 350 410 350 L 190 350 C 184.476562 350 180 345.523438 180 340 L 180 110 L 420 110 Z M 490.332031 145.867188 C 488.492188 148.460938 485.507812 150.003906 482.328125 150 L 440 150 L 440 100 C 440 94.476562 435.523438 90 430 90 L 170 90 C 164.476562 90 160 94.476562 160 100 L 160 150 L 117.699219 150 C 114.507812 149.96875 111.515625 148.421875 109.652344 145.820312 C 107.792969 143.222656 107.285156 139.890625 108.289062 136.859375 L 134.859375 56.929688 C 136.230469 52.816406 140.0625 50.03125 144.398438 50 L 455.601562 50 C 459.90625 50.023438 463.726562 52.777344 465.113281 56.859375 L 491.710938 136.859375 C 492.75 139.90625 492.230469 143.273438 490.332031 145.867188 Z M 490.332031 145.867188 " style=" fill-rule:nonzero;fill-opacity:1;" stroke="#003559" fill="#003559"/>
<path d="M 300 270 C 322.089844 270 340 252.089844 340 230 C 340 207.910156 322.089844 190 300 190 C 277.910156 190 260 207.910156 260 230 C 260 252.089844 277.910156 270 300 270 Z M 300 210 C 311.046875 210 320 218.953125 320 230 C 320 241.046875 311.046875 250 300 250 C 288.953125 250 280 241.046875 280 230 C 280 218.953125 288.953125 210 300 210 Z M 300 210 " style=" fill-rule:nonzero;fill-opacity:1;" stroke="#003559" fill="#003559"/>
<path d="M 300 310 C 344.183594 310 380 274.183594 380 230 C 380 185.816406 344.183594 150 300 150 C 255.816406 150 220 185.816406 220 230 C 220.046875 274.160156 255.839844 309.953125 300 310 Z M 300 170 C 333.132812 170 360 196.867188 360 230 C 360 263.132812 333.132812 290 300 290 C 266.867188 290 240 263.132812 240 230 C 240.035156 196.875 266.875 170.035156 300 170 Z M 300 170 " style=" fill-rule:nonzero;fill-opacity:1;" stroke="#003559" fill="#003559"/>
<path d="M 380 320 L 400 320 L 400 340 L 380 340 Z M 380 320 " style=" fill-rule:nonzero;fill-opacity:1;" stroke="#003559" fill="#003559"/>
</g>
</svg>
