<?xml version="1.0" encoding="iso-8859-1"?>
<!-- Generator: Adobe Illustrator 19.0.0, SVG Export Plug-In . SVG Version: 6.00 Build 0)  -->
<svg xmlns="http://www.w3.org/2000/svg" xmlns:xlink="http://www.w3.org/1999/xlink" version="1.1" id="Layer_1" x="0px" y="0px" viewBox="0 0 503.607 503.607" style="enable-background:new 0 0 503.607 503.607;" xml:space="preserve" width="512px" height="512px">
<g transform="translate(1 1)">
	<g>
		<g>
			<path d="M435.459,95.838h-50.361c-5.036,0-8.393,3.357-8.393,8.393s3.357,8.393,8.393,8.393h50.361     c5.036,0,8.393-3.357,8.393-8.393S440.495,95.838,435.459,95.838z" fill="#003559"/>
			<path d="M435.459,129.412h-50.361c-5.036,0-8.393,3.357-8.393,8.393s3.357,8.393,8.393,8.393h50.361     c5.036,0,8.393-3.357,8.393-8.393S440.495,129.412,435.459,129.412z" fill="#003559"/>
			<path d="M450.567,54.711c-47.003-10.911-114.99-13.43-161.993-4.197l-7.554,1.679c-10.911,1.679-21.823,4.197-32.734,5.875     l-15.798,2.519c-0.05,0-0.099-0.001-0.149-0.001l-41.967,6.715c-15.593,2.126-27.594,13.829-30.951,28.538h-34.518     c-18.466,0-33.574,15.108-33.574,33.574H7.393c-5.036,0-8.393,3.357-8.393,8.393s3.357,8.393,8.393,8.393h83.934     c0,18.466,15.108,33.574,33.574,33.574h34.518c1.622,7.106,5.261,13.509,10.348,18.471c5.578,5.504,12.939,9.427,21.442,10.906     l83.095,12.59c15.31,3.969,34.456,6.401,54.839,7.565l13.987,62.94c0.839,4.197,4.197,6.715,8.393,6.715h16.787v53.718     l-46.406,46.406c-2.021,1.124-3.383,3.067-3.809,5.571c-0.16,0.714-0.211,1.45-0.146,2.199v33.115     c0,9.233,7.554,16.787,16.787,16.787h125.902c9.233,0,16.787-7.554,16.787-16.787v-33.574c0-2.249-0.673-4.16-1.863-5.59     l-14.924-44.771v-67.148l-4.59-69.609c27.338-9.357,46.557-35.542,46.557-64.686v-33.574     C502.607,89.963,481.623,63.104,450.567,54.711z M193.728,84.088l31.895-5.085v118.27l-32.734-4.91     c-10.072-1.679-17.626-10.911-17.626-20.984v-67.148C175.262,94.16,182.816,84.927,193.728,84.088z M108.115,146.199v-16.787     c0-9.233,7.554-16.787,16.787-16.787h33.574v50.361h-33.574C115.669,162.986,108.115,155.432,108.115,146.199z M443.852,288.888     v58.754h-58.754v-57.074c0,0,0-0.001,0-0.001v-61.131c19.431-1.027,38.278-3.172,54.595-6.257L443.852,288.888z M358.239,282.173     l-10.911-50.361c6.715,0,14.269,0,20.984,0v50.361H358.239z M380.062,364.429h66.308l10.911,33.574H346.489L380.062,364.429z      M460.639,439.969H334.738v-25.18h125.902V439.969z M484.98,154.592c0,23.502-15.948,43.646-39.449,49.521     c-47.003,11.751-122.544,12.59-168.708,0.839l-34.413-5.162V76.327l9.233-1.472c10.911-1.679,22.662-3.357,33.574-5.875     l7.554-1.679c18.466-3.357,40.289-5.036,63.79-5.036c31.895,0,65.469,2.518,89.81,9.233c22.662,5.875,38.61,26.02,38.61,49.521     V154.592z" fill="#003559"/>
		</g>
	</g>
</g>
<g>
</g>
<g>
</g>
<g>
</g>
<g>
</g>
<g>
</g>
<g>
</g>
<g>
</g>
<g>
</g>
<g>
</g>
<g>
</g>
<g>
</g>
<g>
</g>
<g>
</g>
<g>
</g>
<g>
</g>
</svg>
