<?xml version="1.0" encoding="utf-8"?>
<!-- Generator: Adobe Illustrator 16.0.0, SVG Export Plug-In . SVG Version: 6.00 Build 0)  -->
<!DOCTYPE svg PUBLIC "-//W3C//DTD SVG 1.1//EN" "http://www.w3.org/Graphics/SVG/1.1/DTD/svg11.dtd">
<svg version="1.1" id="Layer_1" xmlns="http://www.w3.org/2000/svg" xmlns:xlink="http://www.w3.org/1999/xlink" x="0px" y="0px"
	 width="32px" height="32px" viewBox="0 0 32 32" enable-background="new 0 0 32 32" xml:space="preserve">
<g>
	<path fill="#FFFFFF" d="M2.23,8.946c0-0.521,0.37-1.162,0.821-1.422l12.14-7.008c0.452-0.261,1.19-0.261,1.643,0l12.141,7.008
		c0.452,0.261,0.821,0.901,0.821,1.422v14.019c0,0.521-0.369,1.16-0.821,1.422l-12.141,7.008c-0.452,0.262-1.19,0.262-1.643,0
		l-12.14-7.008c-0.452-0.262-0.821-0.9-0.821-1.422V8.946z"/>
</g>
<g>
	<path fill="#006EAB" d="M10.059,9.529C9.641,9.22,8.874,8.967,8.354,8.967H8.272c-0.52,0-0.945,0.425-0.945,0.945v16.127
		c0,0.521-0.368,0.732-0.818,0.473L2.97,24.469c-0.45-0.26-0.818-0.898-0.818-1.418V8.95c0-0.52,0.368-1.157,0.818-1.417
		l12.211-7.05c0.45-0.26,1.187-0.26,1.637,0l5.312,3.065c0.45,0.26,0.818,0.898,0.818,1.417v13.146c0,0.52-0.342,0.691-0.76,0.383
		L10.059,9.529z"/>
</g>
<g>
	<path fill="#0E3658" d="M29.03,7.532c0.45,0.26,0.818,0.898,0.818,1.417v14.101c0,0.52-0.368,1.158-0.818,1.418l-12.212,7.049
		c-0.45,0.26-1.187,0.26-1.637,0l-5.064-2.922c-0.45-0.26-0.818-0.898-0.818-1.418v-14.23c0-0.52,0.342-0.692,0.76-0.383
		l12.129,8.965c0.418,0.309,1.185,0.562,1.705,0.562h0.083c0.521,0,0.945-0.426,0.945-0.945V6.105c0-0.52,0.368-0.732,0.818-0.472
		L29.03,7.532z"/>
</g>
<g>
</g>
<g>
</g>
<g>
</g>
<g>
</g>
<g>
</g>
<g>
</g>
<g>
</g>
<g>
</g>
<g>
</g>
<g>
</g>
<g>
</g>
<g>
</g>
<g>
</g>
<g>
</g>
<g>
</g>
</svg>
