<?xml version="1.0" encoding="iso-8859-1"?>
<!-- Generator: Adobe Illustrator 19.0.0, SVG Export Plug-In . SVG Version: 6.00 Build 0)  -->
<svg xmlns="http://www.w3.org/2000/svg" xmlns:xlink="http://www.w3.org/1999/xlink" version="1.1" id="Layer_1" x="0px" y="0px" viewBox="0 0 290.625 290.625" style="enable-background:new 0 0 290.625 290.625;" xml:space="preserve" width="512px" height="512px">
<g>
	<g>
		<g>
			<path d="M132.037,213.539c1.144,1.716,1.856,5.981,0.366,8.761c-0.356,0.666-1.444,2.7-5.841,2.7h-21.497l6.061-6.061     l-6.628-6.628l-16.936,16.936l16.5,22.003l7.5-5.62l-8.438-11.255h23.438c8.709,0,12.581-4.791,14.109-7.65     c3.305-6.173,2.039-14.081-0.834-18.389L132.037,213.539z" fill="#003559"/>
			<path d="M88.035,182.813H60.938v9.375H74.62l-12.516,15.647c-3.933,4.139-5.119,11.475-2.742,17.213     c2.456,5.925,8.152,9.328,15.637,9.328h4.688V225H75c-3.656,0-6-1.191-6.975-3.544c-1.125-2.714-0.211-6.08,0.914-7.205     l13.181-16.438l2.395,9.577l9.089-2.269L88.035,182.813z" fill="#003559"/>
			<path d="M130.875,191.831l-9.787-16.308l-0.67-1.064c-2.231-3.633-6.394-10.397-17.292-10.397     c-10.898,0-15.061,6.764-17.292,10.402l-0.67,1.064l7.8,5.198c0.272-0.408,0.553-0.867,0.858-1.35     c1.87-3.056,3.647-5.939,9.305-5.939s7.434,2.883,9.305,5.939c0.3,0.488,0.586,0.942,0.736,1.163l9.806,16.336h-15.159v9.375     h26.334l10.669-21.342l-8.386-4.195L130.875,191.831z" fill="#003559"/>
			<rect x="168.75" y="225" width="9.375" height="9.375" fill="#003559"/>
			<rect x="168.75" y="206.25" width="9.375" height="9.375" fill="#003559"/>
			<path d="M234.586,69.206c16.556-8.588,27.914-25.861,27.914-45.769c0-10.341-8.409-18.75-18.75-18.75     c-5.241,0-9.989,2.161-13.392,5.639C226.139,4.102,219.009,0,210.938,0c-8.071,0-15.202,4.102-19.42,10.327     c-3.403-3.478-8.152-5.639-13.392-5.639c-10.341,0-18.75,8.409-18.75,18.75c0,19.913,11.363,37.186,27.928,45.773     c-10.767,3.338-20.7,9.009-29.288,16.673c-10.317-7.88-22.205-13.744-35.138-17.067C139.012,60.098,150,43.031,150,23.438     c0-10.341-8.409-18.75-18.75-18.75c-5.241,0-9.989,2.161-13.392,5.639C113.639,4.102,106.509,0,98.438,0     c-8.071,0-15.202,4.102-19.42,10.327c-3.403-3.478-8.152-5.639-13.392-5.639c-10.341,0-18.75,8.409-18.75,18.75     c0,19.594,10.987,36.661,27.117,45.384C31.523,79.734,0,118.238,0,164.063V225c0,36.188,29.438,65.625,65.625,65.625h65.625     c26.114,0,48.642-15.366,59.203-37.5h57.984c23.264,0,42.188-18.923,42.188-42.188v-65.625     C290.625,109.603,267.014,79.303,234.586,69.206z M168.75,23.438c0-5.17,4.205-9.375,9.375-9.375s9.375,4.205,9.375,9.375h9.375     c0-7.753,6.309-14.063,14.063-14.063c7.754,0,14.062,6.309,14.062,14.063h9.375c0-5.17,4.205-9.375,9.375-9.375     s9.375,4.205,9.375,9.375c0,23.264-18.923,42.188-42.188,42.188S168.75,46.702,168.75,23.438z M188.564,78.708     c-4.209,6.155-7.917,15.066-10.636,27.53c-3.764-5.156-8.002-9.923-12.675-14.255C172.177,86.03,180.07,81.558,188.564,78.708z      M56.25,23.438c0-5.17,4.205-9.375,9.375-9.375S75,18.268,75,23.438h9.375c0-7.753,6.309-14.063,14.063-14.063     c7.754,0,14.062,6.309,14.062,14.063h9.375c0-5.17,4.205-9.375,9.375-9.375s9.375,4.205,9.375,9.375     c0,23.264-18.923,42.188-42.188,42.188S56.25,46.702,56.25,23.438z M187.499,225c0.001,31.017-25.232,56.25-56.249,56.25H65.625     c-31.017,0-56.25-25.233-56.25-56.25v-60.938c0-40.594,27.333-74.864,64.537-85.552c-13.481,15.473-22.35,43.462-22.35,76.177     h9.375c0-43.195,17.17-79.688,37.5-79.688s37.5,36.492,37.5,79.688h9.375c0-32.714-8.869-60.703-22.35-76.177     c37.205,10.687,64.537,44.958,64.537,85.552V225z M281.251,210.938h-0.001c0,18.089-14.723,32.813-32.813,32.813h-54.328     c1.781-5.948,2.766-12.234,2.766-18.75v-60.938c0-16.697-4.209-32.419-11.573-46.209C187.809,101.18,194.386,75,210.938,75     c17.348,0,28.125,30.534,28.125,79.688h9.375c0-35.803-5.18-61.57-14.934-75.905c27.722,9.431,47.747,35.658,47.747,66.53     V210.938z" fill="#003559"/>
		</g>
	</g>
</g>
<g>
</g>
<g>
</g>
<g>
</g>
<g>
</g>
<g>
</g>
<g>
</g>
<g>
</g>
<g>
</g>
<g>
</g>
<g>
</g>
<g>
</g>
<g>
</g>
<g>
</g>
<g>
</g>
<g>
</g>
</svg>
