<?xml version="1.0"?>
<svg xmlns="http://www.w3.org/2000/svg" viewBox="-66 0 511 511.99925" width="512px" height="512px"><path d="m314.484375 281.632812h-9.773437c-3.53125-18.832031-20.085938-33.132812-39.929688-33.132812h-1.488281c-3.53125-18.832031-20.085938-33.132812-39.925781-33.132812h-25.632813v-50.425782c10.410156 9.863282 24.402344 15.726563 39.359375 15.726563 24.195312 0 45.871094-15.324219 53.933594-38.136719.570312-1.617188.570312-3.382812 0-4.996094-8.0625-22.8125-29.738282-38.136718-53.933594-38.136718-14.957031 0-28.949219 5.863281-39.359375 15.726562v-8.878906c20.015625-9.292969 33.132813-29.503906 33.132813-51.886719 0-24.191406-15.324219-45.867187-38.132813-53.929687-1.617187-.574219-3.382813-.574219-5 0-22.8125 8.0625-38.136719 29.738281-38.136719 53.929687 0 22.382813 13.117188 42.597656 33.136719 51.886719v8.878906c-10.410156-9.863281-24.402344-15.726562-39.363281-15.726562-24.195313 0-45.867188 15.324218-53.933594 38.136718-.570312 1.613282-.570312 3.378906 0 4.996094 8.066406 22.8125 29.738281 38.136719 53.933594 38.136719 14.960937 0 28.953125-5.863281 39.363281-15.726563v50.425782h-25.632813c-19.84375 0-36.398437 14.300781-39.929687 33.132812h-1.488281c-19.839844 0-36.394532 14.296875-39.925782 33.132812h-9.773437c-17.839844 0-32.351563 14.511719-32.351563 32.347657v24.851562c0 4.144531 3.359376 7.5 7.5 7.5h17.351563v60.335938c0 4.140625 3.355469 7.5 7.5 7.5 4.140625 0 7.5-3.359375 7.5-7.5v-27.203125h233.5v100.183594c0 9.566406-7.785156 17.351562-17.351563 17.351562h-198.800781c-9.5625 0-17.347656-7.785156-17.347656-17.351562v-42.980469c0-4.144531-3.359375-7.5-7.5-7.5-4.144531 0-7.5 3.355469-7.5 7.5v42.980469c0 17.839843 14.511719 32.351562 32.347656 32.351562h198.800781c17.835938 0 32.351563-14.511719 32.351563-32.351562v-133.316407h17.347656c4.144531 0 7.5-3.359375 7.5-7.5v-24.851562c0-17.835938-14.511719-32.347657-32.347656-32.347657zm-77.390625-167.234374c16.953125 0 32.230469 10.195312 38.816406 25.636718-6.589844 15.4375-21.863281 25.632813-38.816406 25.632813-14.023438 0-26.890625-6.980469-34.652344-18.132813h37.488282c4.144531 0 7.5-3.359375 7.5-7.5 0-4.144531-3.355469-7.5-7.5-7.5h-37.492188c7.761719-11.152344 20.632812-18.136718 34.65625-18.136718zm-72.496094-60.039063c0-16.949219 10.195313-32.222656 25.636719-38.8125 15.4375 6.589844 25.632813 21.863281 25.632813 38.8125 0 14.027344-6.980469 26.894531-18.132813 34.65625v-37.492187c0-4.140626-3.355469-7.5-7.5-7.5s-7.5 3.359374-7.5 7.5v37.492187c-11.152344-7.757813-18.136719-20.628906-18.136719-34.65625zm-21.226562 111.308594c-16.953125 0-32.226563-10.195313-38.816406-25.632813 6.589843-15.441406 21.863281-25.636718 38.816406-25.636718 14.023437 0 26.894531 6.980468 34.65625 18.132812h-37.492188c-4.140625 0-7.5 3.359375-7.5 7.5 0 4.144531 3.359375 7.5 7.5 7.5h37.492188c-7.757813 11.152344-20.628906 18.136719-34.65625 18.136719zm-27.683594 97.832031h33.128906c4.144532 0 7.5-3.359375 7.5-7.5 0-4.144531-3.355468-7.5-7.5-7.5h-16.226562c3.214844-10.488281 12.988281-18.132812 24.511718-18.132812h66.265626c11.527343 0 21.296874 7.644531 24.511718 18.132812h-16.226562c-4.144532 0-7.5 3.355469-7.5 7.5 0 4.140625 3.355468 7.5 7.5 7.5h33.132812c11.523438 0 21.292969 7.644531 24.507813 18.132812h-198.121094c3.21875-10.488281 12.988281-18.132812 24.515625-18.132812zm191.296875 100.964844h-233.5v-18.132813h233.5zm24.847656-33.132813h-283.199219v-17.351562c0-9.566407 7.785157-17.351563 17.351563-17.351563h16.539063c.007812 0 .019531.003906.027343.003906.011719 0 .019531-.003906.03125-.003906h215.304688c.011719 0 .019531.003906.03125.003906.007812 0 .019531-.003906.027343-.003906h16.539063c9.5625 0 17.347656 7.785156 17.347656 17.351563zm0 0" fill="#003559"/><path d="m22.007812 80.261719 43.039063 24.847656c1.183594.683594 2.472656 1.007813 3.742187 1.007813 2.59375 0 5.113282-1.347657 6.503907-3.753907 2.070312-3.585937.839843-8.171875-2.746094-10.242187l-43.039063-24.851563c-3.589843-2.074219-8.175781-.84375-10.246093 2.746094-2.070313 3.585937-.84375 8.171875 2.746093 10.246094zm0 0" fill="#003559"/><path d="m65.199219 140.03125c0-4.140625-3.355469-7.5-7.5-7.5h-49.699219c-4.144531 0-7.5 3.359375-7.5 7.5s3.355469 7.5 7.5 7.5h49.699219c4.144531 0 7.5-3.355469 7.5-7.5zm0 0" fill="#003559"/><path d="m75.292969 177.699219c-2.070313-3.589844-6.660157-4.816407-10.246094-2.746094l-43.042969 24.851563c-3.585937 2.070312-4.8125 6.65625-2.742187 10.242187 1.386719 2.40625 3.910156 3.753906 6.5 3.753906 1.273437 0 2.5625-.324219 3.742187-1.007812l43.042969-24.851563c3.585937-2.066406 4.816406-6.65625 2.746094-10.242187zm0 0" fill="#003559"/><path d="m358.460938 199.804688-43.042969-24.851563c-3.589844-2.070313-8.171875-.84375-10.242188 2.746094-2.070312 3.585937-.84375 8.171875 2.742188 10.242187l43.042969 24.851563c1.183593.683593 2.46875 1.007812 3.742187 1.007812 2.59375 0 5.113281-1.347656 6.503906-3.753906 2.070313-3.585937.839844-8.171875-2.746093-10.242187zm0 0" fill="#003559"/><path d="m372.46875 132.53125h-49.699219c-4.144531 0-7.5 3.359375-7.5 7.5 0 4.144531 3.355469 7.5 7.5 7.5h49.699219c4.140625 0 7.5-3.355469 7.5-7.5 0-4.140625-3.359375-7.5-7.5-7.5zm0 0" fill="#003559"/><path d="m311.675781 106.117188c1.273438 0 2.566407-.324219 3.746094-1.007813l43.039063-24.847656c3.585937-2.070313 4.816406-6.660157 2.746093-10.246094-2.074219-3.585937-6.660156-4.816406-10.246093-2.746094l-43.039063 24.851563c-3.589844 2.070312-4.816406 6.65625-2.746094 10.246094 1.390625 2.40625 3.910157 3.75 6.5 3.75zm0 0" fill="#003559"/></svg>
