<?xml version="1.0" encoding="iso-8859-1"?>
<!-- Generator: Adobe Illustrator 19.0.0, SVG Export Plug-In . SVG Version: 6.00 Build 0)  -->
<svg xmlns="http://www.w3.org/2000/svg" xmlns:xlink="http://www.w3.org/1999/xlink" version="1.1" id="Capa_1" x="0px" y="0px" viewBox="0 0 512 512" style="enable-background:new 0 0 512 512;" xml:space="preserve" width="512px" height="512px">
<g>
	<g>
		<path d="M498.05,7.703H105.236c-7.691,0-13.949,6.257-13.949,13.95v214.62l-13.396-13.396c-2.367-2.367-5.518-3.67-8.875-3.67    c-3.357,0-6.508,1.303-8.875,3.67L36.88,246.137c-2.368,2.367-3.67,5.518-3.67,8.875s1.303,6.508,3.67,8.875l54.408,54.408v21.51    c-1.966,2.274-3.047,5.144-3.047,8.188c0,3.044,1.081,5.914,3.047,8.188v23.409L3.671,467.206C1.303,469.573,0,472.725,0,476.082    c0,3.357,1.303,6.508,3.67,8.875l15.672,15.671c2.447,2.447,5.661,3.67,8.875,3.67c3.214,0,6.428-1.223,8.875-3.67l9.323-9.323    c2.941-2.941,2.941-7.709,0-10.649c-2.941-2.941-7.709-2.941-10.649,0l-7.549,7.549l-12.122-12.122l108.9-108.899l12.121,12.122    L61.871,454.55c-2.941,2.941-2.941,7.709,0,10.649c2.941,2.941,7.709,2.941,10.649,0l18.766-18.766v29.652    c0,7.691,6.257,13.95,13.949,13.95h273.223c4.159,0,7.531-3.372,7.531-7.531s-3.372-7.531-7.531-7.531H227.132l10.416-10.416    l2.863,2.862c2.367,2.368,5.518,3.67,8.875,3.67s6.508-1.303,8.875-3.67l23.261-23.261c4.894-4.894,4.894-12.856,0-17.75    l-2.863-2.863l218.379-218.379v269.807H425.65c-4.159,0-7.531,3.372-7.531,7.531s3.372,7.531,7.531,7.531h72.401    c7.691,0,13.95-6.257,13.95-13.95V21.652C512,13.961,505.742,7.703,498.05,7.703z M133.869,354.758    c-2.367-2.367-5.518-3.67-8.875-3.67c-3.357,0-6.508,1.303-8.875,3.67l-2.511,2.511l-9.275-9.276l21.61-21.609l51.971,51.971    l-21.609,21.611l-9.276-9.276l2.511-2.51c4.894-4.894,4.894-12.856,0-17.75L133.869,354.758z M205.834,474.973h-99.486v-43.602    l30.032-30.032l11.05,11.05c2.367,2.367,5.518,3.67,8.875,3.67c3.357,0,6.508-1.303,8.875-3.67l10.101-10.101l51.619,51.619    L205.834,474.973z M249.286,454.995l-63.357-63.357l4.409-4.409c2.367-2.367,3.67-5.518,3.67-8.875    c0-3.357-1.303-6.508-3.67-8.875l-55.52-55.52c-2.367-2.367-5.518-3.67-8.875-3.67c-3.357,0-6.508,1.303-8.875,3.67l-4.409,4.409    l-63.357-63.357l19.712-19.712l199.983,199.983L249.286,454.995z M267.911,412.897l-21.953-21.953l66.145-66.144    c2.941-2.941,2.941-7.709,0-10.65c-2.941-2.942-7.709-2.941-10.65,0l-66.145,66.144l-98.084-98.083l35.907-35.908    c2.941-2.941,2.941-7.709,0-10.649c-2.941-2.941-7.709-2.941-10.649,0l-35.907,35.908l-10.8-10.801l120.889-120.889    c2.941-2.941,2.941-7.709,0-10.649c-2.941-2.941-7.709-2.941-10.649,0L106.347,248.889V22.764h226.124L255.896,99.34    c-2.941,2.941-2.941,7.709,0,10.649c2.941,2.941,7.709,2.941,10.649,0l87.225-87.226h143.167v161.106h0.002L267.911,412.897z" fill="#003559"/>
	</g>
</g>
<g>
	<g>
		<path d="M68.72,168.941c-13.707-4.269-15.358-5.921-19.628-19.63c-1.406-4.509-5.523-7.54-10.248-7.54    c-4.726,0-8.845,3.031-10.249,7.542c-4.267,13.707-5.918,15.358-19.623,19.627c-4.514,1.404-7.547,5.521-7.547,10.248    c-0.001,4.726,3.032,8.846,7.543,10.249c13.708,4.268,15.358,5.919,19.626,19.626c1.404,4.512,5.522,7.544,10.25,7.544    c4.724,0,8.843-3.03,10.248-7.542c4.27-13.709,5.921-15.359,19.624-19.626c4.513-1.403,7.546-5.522,7.546-10.251    C76.261,174.461,73.229,170.343,68.72,168.941z M38.845,193.604c-3.343-6.962-7.453-11.073-14.417-14.417    c6.964-3.344,11.073-7.453,14.417-14.417c3.344,6.963,7.452,11.072,14.415,14.417C46.298,182.531,42.188,186.641,38.845,193.604z" fill="#003559"/>
	</g>
</g>
<g>
	<g>
		<path d="M377.182,87.099c-18.375-5.723-20.859-8.207-26.582-26.582c-1.522-4.892-5.988-8.178-11.113-8.178    c-5.125,0-9.592,3.287-11.113,8.179c-5.72,18.374-8.204,20.859-26.579,26.581c-4.894,1.523-8.181,5.988-8.181,11.112    c0,5.127,3.288,9.595,8.179,11.114c18.377,5.722,20.861,8.206,26.58,26.578c1.522,4.894,5.988,8.182,11.114,8.182    c5.125,0,9.591-3.287,11.113-8.179c5.723-18.375,8.207-20.859,26.578-26.58c4.895-1.521,8.183-5.988,8.183-11.116    C385.361,93.085,382.073,88.62,377.182,87.099z M339.488,122.013c-5.084-12.821-10.979-18.716-23.803-23.801    c12.822-5.086,18.718-10.982,23.802-23.803c5.086,12.82,10.982,18.716,23.803,23.802    C350.47,103.297,344.574,109.192,339.488,122.013z" fill="#003559"/>
	</g>
</g>
<g>
	<g>
		<path d="M373.41,247.648c-10.456-3.257-11.416-4.217-14.673-14.674c-1.32-4.24-5.191-7.089-9.632-7.089s-8.312,2.849-9.632,7.089    c-3.255,10.456-4.215,11.416-14.669,14.672c-4.242,1.319-7.092,5.19-7.092,9.631c0,4.443,2.85,8.315,7.089,9.633    c10.457,3.256,11.417,4.216,14.672,14.672c1.319,4.241,5.19,7.09,9.632,7.09c4.441,0,8.313-2.849,9.631-7.088    c3.257-10.457,4.217-11.417,14.669-14.672c4.242-1.319,7.092-5.19,7.092-9.634C380.499,252.836,377.648,248.965,373.41,247.648z     M349.105,265.584c-2.132-3.594-4.712-6.174-8.306-8.306c3.594-2.132,6.175-4.713,8.306-8.306    c2.132,3.593,4.712,6.174,8.306,8.306C353.818,259.41,351.238,261.99,349.105,265.584z" fill="#003559"/>
	</g>
</g>
<g>
	<g>
		<path d="M355.749,162.67c-2.941-2.942-7.709-2.941-10.649,0L235.983,271.786c-2.941,2.941-2.941,7.709,0,10.649    c1.47,1.471,3.398,2.206,5.325,2.206c1.928,0,3.855-0.735,5.325-2.206l109.116-109.115    C358.69,170.38,358.69,165.611,355.749,162.67z" fill="#003559"/>
	</g>
</g>
<g>
</g>
<g>
</g>
<g>
</g>
<g>
</g>
<g>
</g>
<g>
</g>
<g>
</g>
<g>
</g>
<g>
</g>
<g>
</g>
<g>
</g>
<g>
</g>
<g>
</g>
<g>
</g>
<g>
</g>
</svg>
