<?xml version="1.0" encoding="iso-8859-1"?>
<!-- Generator: Adobe Illustrator 19.0.0, SVG Export Plug-In . SVG Version: 6.00 Build 0)  -->
<svg xmlns="http://www.w3.org/2000/svg" xmlns:xlink="http://www.w3.org/1999/xlink" version="1.1" id="Capa_1" x="0px" y="0px" viewBox="0 0 512 512" style="enable-background:new 0 0 512 512;" xml:space="preserve" width="512px" height="512px">
<g>
	<g>
		<path d="M500.684,384.758L494,381.779v-64.326c0-15.332-12.473-27.805-27.858-27.805l-24.917,0.176    c-3.108-6.099-8.587-10.795-15.225-12.841v-21.589c5.306-2.477,9-7.848,9-14.08v-6.912c0-8.571-6.973-15.544-15.544-15.544H415    v-34.5c0-2.766-1.522-5.308-3.961-6.612c-2.438-1.306-5.398-1.163-7.699,0.372l-3.693,2.462l13.317-40.896    c4.852-14.899,3.382-30.677-4.14-44.423c-0.865-1.581-1.804-3.103-2.797-4.576c9.406-6.57,16.218-16.24,19.171-27.586    l5.896-22.647c0.878-3.375,0.39-6.889-1.375-9.896c-1.765-3.007-4.595-5.146-7.969-6.024l-21.583-5.618    c-2.705-0.706-5.578,0.154-7.452,2.228l-9.72,10.751l-3.245-14.125c-0.626-2.725-2.715-4.875-5.42-5.579L352.747,6.57    c-3.374-0.881-6.888-0.391-9.895,1.374c-3.007,1.765-5.147,4.595-6.025,7.969l-5.895,22.647    c-2.953,11.347-1.722,23.111,3.287,33.433c-1.585,0.801-3.146,1.672-4.672,2.63c-2.609,1.639-5.045,3.466-7.309,5.451    c-2.413-2.333-5.272-4.193-8.421-5.433c-3.269-10.434-12.941-17.784-24.317-17.784c-9.084,0-17.229,4.768-21.756,12.207    c-1.07-0.138-2.152-0.207-3.244-0.207c-14.061,0-25.5,11.439-25.5,25.5c0,0.817,0.04,1.634,0.12,2.446    c-6.897,5.334-11.12,13.666-11.12,22.554v5.063c-1.841,1.306-4.249,3.067-7,5.207v-10.269c0-17.369-14.131-31.5-31.5-31.5    s-31.5,14.131-31.5,31.5v13.513c-4.615-1.302-9.474-2.013-14.5-2.013c-19.9,0-37.284,10.929-46.5,27.093v-36.637    c4.241-3.201,7-8.267,7-13.978v-3.957c0-9.661-7.86-17.521-17.521-17.521H46.521C36.86,85.858,29,93.718,29,103.379v3.957    c0,4.757,1.912,9.072,5,12.232v126.747c-20.539,9.466-34,30.172-34,53.098v178.181c0,15.585,12.679,28.264,28.264,28.264h464.648    c10.525,0,19.088-8.563,19.088-19.089v-84.576C512,394.665,507.558,387.823,500.684,384.758z M444,304.806l22.195-0.158    c7.061,0,12.805,5.744,12.805,12.805v57.411l-9.979-4.39v-44.3c0-6.906-5.619-12.525-12.526-12.525H444V304.806z M444,328.648    h10.021v35.22L444,359.462V328.648z M419.456,233.858c0.3,0,0.544,0.244,0.544,0.544v6.912c0,0.3-0.244,0.544-0.544,0.544h-34.911    c-0.3,0-0.544-0.244-0.544-0.544v-6.912c0-0.3,0.244-0.544,0.544-0.544H419.456z M345.448,42.339l5.404-20.763l15.297,3.981    l5.448,23.717c0.626,2.725,2.715,4.875,5.42,5.579c2.706,0.706,5.578-0.154,7.453-2.228l16.32-18.051l15.297,3.981l-5.405,20.763    c-2.194,8.429-7.467,15.524-14.741,20.06c-6.361-5.419-13.919-9.378-22.299-11.559c-8.38-2.181-16.909-2.41-25.105-0.78    C344.398,59.534,343.254,50.768,345.448,42.339z M314.629,136.42l19.145,4.984c0.633,0.165,1.269,0.244,1.894,0.244    c3.332,0,6.375-2.237,7.253-5.612c1.043-4.009-1.36-8.104-5.369-9.147l-20.019-5.211l1.455-7.387    c1.278-6.487,4.006-12.405,7.94-17.431c0.117-0.133,0.226-0.272,0.333-0.413c2.844-3.537,6.286-6.622,10.264-9.121    c2.98-1.871,6.125-3.331,9.373-4.379c0.306-0.072,0.61-0.162,0.908-0.274c7.099-2.11,14.658-2.262,22.059-0.336    c7.4,1.927,13.924,5.744,19.092,11.046c0.183,0.216,0.385,0.411,0.589,0.603c2.355,2.519,4.413,5.355,6.12,8.475    c5.517,10.082,6.595,21.652,3.036,32.579l-9.144,28.08l-20.728-5.396c-4.01-1.045-8.104,1.359-9.148,5.368    c-1.043,4.009,1.36,8.104,5.369,9.147l19.854,5.169l-5.407,16.605L379,194.344l-24.34-16.227c-2.52-1.68-5.801-1.68-8.32,0    L322,194.344l-16.601-11.067L314.629,136.42z M218.233,151.714c0.247-0.201,0.477-0.42,0.696-0.65    c5.338-4.954,10.977-9.516,16.093-13.229c0.159,0.01,0.316,0.024,0.478,0.024c0.164,0,0.324-0.014,0.485-0.024    C252.315,149.67,274,170.172,274,184.358c0,1.371-0.086,2.757-0.237,4.145L265,194.344l-24.34-16.227    c-2.52-1.68-5.801-1.68-8.32,0L208,194.344l-10.897-7.264c-0.063-0.905-0.103-1.814-0.103-2.722    C197,174.833,206.829,162.424,218.233,151.714z M173,119.358c0-9.098,7.402-16.5,16.5-16.5s16.5,7.402,16.5,16.5v23.221    c-5.375,5.195-10.691,11.079-14.95,17.306c-4.211-8.149-10.448-15.084-18.05-20.129V119.358z M143.5,145.858    c18.746,0,34.397,13.471,37.804,31.238c-2.01-0.499-4.177-0.169-5.964,1.022L151,194.344l-24.34-16.227    c-2.52-1.68-5.801-1.68-8.32,0l-13.245,8.83c-0.058-0.861-0.095-1.724-0.095-2.59C105,163.129,122.271,145.858,143.5,145.858z     M44,103.379c0-1.391,1.131-2.521,2.521-2.521h39.957c1.39,0,2.521,1.131,2.521,2.521v3.957c0,1.391-1.131,2.521-2.521,2.521    H46.521c-1.39,0-2.521-1.131-2.521-2.521V103.379z M286,490.858H127.685c2.113-3.958,3.315-8.472,3.315-13.264v-88.736    c0-4.143-3.358-7.5-7.5-7.5c-4.142,0-7.5,3.357-7.5,7.5v88.736c0,7.314-5.95,13.264-13.264,13.264H28.264    c-7.313,0-13.264-5.95-13.264-13.264v-178.18c0-18.392,11.653-34.861,28.996-40.983c2.999-1.059,5.004-3.893,5.004-7.072v-126.5    h33v126.5c0,3.18,2.005,6.014,5.004,7.072C104.347,264.552,116,281.022,116,299.414v59.444c0,4.143,3.358,7.5,7.5,7.5    c4.142,0,7.5-3.357,7.5-7.5v-59.444c0-22.926-13.461-43.632-34-53.098v-36.097c0.399-0.175,0.789-0.374,1.16-0.621l24.34-16.227    l24.34,16.227c2.52,1.68,5.801,1.68,8.32,0l24.34-16.227l24.34,16.227c2.52,1.68,5.801,1.68,8.32,0l24.34-16.227l24.34,16.227    c2.52,1.68,5.801,1.68,8.32,0L286,198.372V490.858z M291.035,177.284c-0.153,0.053-0.301,0.119-0.451,0.182    c-0.164,0.069-0.327,0.137-0.486,0.219c-0.044,0.023-0.091,0.038-0.135,0.061c-0.107,0.057-0.202,0.129-0.305,0.191    c-0.104,0.063-0.214,0.113-0.316,0.181l-0.893,0.595c-4.446-23.39-34.667-46.65-45.447-54.293v-5.063    c-0.002-5.183,3.043-9.97,7.756-12.196c3.484-1.646,5.154-5.664,3.863-9.295c-0.412-1.157-0.621-2.338-0.621-3.508    c0-5.79,4.71-10.5,10.5-10.5c1.511,0,2.99,0.33,4.395,0.979c2.032,0.941,4.377,0.925,6.396-0.044    c2.019-0.969,3.499-2.788,4.036-4.962c1.161-4.694,5.344-7.974,10.174-7.974c5.436,0,9.927,4.073,10.447,9.474    c0.326,3.391,2.896,6.136,6.258,6.685c2.418,0.395,4.58,1.64,6.163,3.429c-3.901,5.968-6.667,12.694-8.096,19.946l-12.962,65.802    C291.218,177.221,291.127,177.252,291.035,177.284z M360,301.358v189.5h-59V198.372l16.84,11.227c2.52,1.68,5.801,1.68,8.32,0    l24.34-16.227l24.34,16.227c2.52,1.68,5.801,1.68,8.32,0L400,198.372v20.486h-15.456c-8.571,0-15.544,6.973-15.544,15.544v6.912    c0,6.231,3.694,11.603,9,14.08v21.589C367.588,280.193,360,289.906,360,301.358z M497.001,486.769L497.001,486.769    c-0.001,2.255-1.835,4.089-4.089,4.089H375v-189.5c0-5.79,4.71-10.5,10.5-10.5c4.142,0,7.5-3.357,7.5-7.5v-26.5h18v26.5    c0,4.143,3.358,7.5,7.5,7.5c5.79,0,10.5,4.71,10.5,10.5v63c0,0.371,0.027,0.737,0.081,1.097c0,0.001,0,0.002,0,0.003    c0.018,0.122,0.056,0.237,0.08,0.357c0.047,0.234,0.088,0.47,0.156,0.698c0.043,0.143,0.107,0.278,0.158,0.418    c0.072,0.196,0.135,0.396,0.223,0.585c0.069,0.149,0.159,0.287,0.238,0.431c0.092,0.168,0.175,0.342,0.279,0.503    c0.096,0.147,0.211,0.28,0.317,0.42c0.109,0.144,0.208,0.295,0.327,0.431c0.12,0.137,0.259,0.257,0.389,0.386    c0.125,0.123,0.24,0.254,0.374,0.368c0.139,0.119,0.294,0.219,0.443,0.328c0.143,0.105,0.278,0.22,0.429,0.315    c0.151,0.095,0.317,0.17,0.475,0.255c0.16,0.085,0.311,0.182,0.479,0.257l61.13,27.251c1.472,0.656,2.423,2.121,2.423,3.733    V486.769z" fill="#003559"/>
	</g>
</g>
<g>
	<g>
		<path d="M378.683,119.19l-14.011-3.647c-4.011-1.043-8.104,1.36-9.148,5.368c-1.043,4.008,1.361,8.104,5.369,9.147l14.011,3.647    c0.634,0.165,1.269,0.244,1.895,0.244c3.332,0,6.375-2.237,7.253-5.612C385.095,124.328,382.692,120.233,378.683,119.19z" fill="#003559"/>
	</g>
</g>
<g>
	<g>
		<path d="M84.058,279.358H46.942c-12.099,0-21.942,9.843-21.942,21.941v157.617c0,12.099,9.843,21.941,21.942,21.941h37.116    c12.099,0,21.942-9.843,21.942-21.941V301.299C106,289.2,96.157,279.358,84.058,279.358z M91,458.916    c0,3.827-3.114,6.941-6.942,6.941H46.942c-3.828,0-6.942-3.114-6.942-6.941V301.299c0-3.827,3.114-6.941,6.942-6.941h37.116    c3.828,0,6.942,3.114,6.942,6.941V458.916z" fill="#003559"/>
	</g>
</g>
<g>
	<g>
		<path d="M482.554,404.047l-66.485-29.638c-1.265-0.973-2.85-1.552-4.569-1.552h-19c-4.142,0-7.5,3.357-7.5,7.5v93    c0,4.143,3.358,7.5,7.5,7.5h87c4.142,0,7.5-3.357,7.5-7.5v-62.46C487,407.937,485.258,405.253,482.554,404.047z M472,465.858h-72    v-78h9.396L472,415.766V465.858z" fill="#003559"/>
	</g>
</g>
<g>
</g>
<g>
</g>
<g>
</g>
<g>
</g>
<g>
</g>
<g>
</g>
<g>
</g>
<g>
</g>
<g>
</g>
<g>
</g>
<g>
</g>
<g>
</g>
<g>
</g>
<g>
</g>
<g>
</g>
</svg>
