<?xml version="1.0" encoding="iso-8859-1"?>
<!-- Generator: Adobe Illustrator 19.0.0, SVG Export Plug-In . SVG Version: 6.00 Build 0)  -->
<svg xmlns="http://www.w3.org/2000/svg" xmlns:xlink="http://www.w3.org/1999/xlink" version="1.1" id="Capa_1" x="0px" y="0px" viewBox="0 0 512 512" style="enable-background:new 0 0 512 512;" xml:space="preserve" width="512px" height="512px">
<g>
	<g>
		<path d="M502.76,84.942c-5.103,0-9.24,4.137-9.24,9.24v399.337h-73.884v-20.807h44.221c5.103,0,9.24-4.137,9.24-9.24v-163.38    c0-5.103-4.137-9.24-9.24-9.24h-39.484V270.43h39.484c5.103,0,9.24-4.137,9.24-9.24V47.758c0-5.103-4.137-9.24-9.24-9.24H275.451    c-5.103,0-9.24,4.137-9.24,9.24v133.848h-20.423V47.758c0-5.103-4.137-9.24-9.24-9.24H48.143c-5.103,0-9.24,4.137-9.24,9.24    v173.844v39.587c0,5.103,4.137,9.24,9.24,9.24h33.412c5.103,0,9.24-4.137,9.24-9.24c0-5.103-4.137-9.24-9.24-9.24H57.383v-21.107    h39.21c32.689,0,59.283-26.594,59.283-59.282V56.998h71.432v133.848c0,5.103,4.137,9.24,9.24,9.24h38.903    c5.103,0,9.24-4.137,9.24-9.24V56.998h169.925V80.77h-24.401c-5.103,0-9.24,4.137-9.24,9.24v126.897c0,5.103,4.137,9.24,9.24,9.24    h24.401v25.802h-39.484c-5.103,0-9.24,4.137-9.24,9.24v38.902c0,5.103,4.137,9.24,9.24,9.24h39.484v144.9h-44.222    c-5.103,0-9.24,4.137-9.24,9.24v39.288c0,5.103,4.137,9.24,9.24,9.24h92.363c5.103,0,9.24-4.137,9.24-9.24V94.182    C512,89.079,507.863,84.942,502.76,84.942z M137.397,171.56h-0.001c0,22.498-18.304,40.802-40.803,40.802H57.383V56.998h6.742    v5.973c0,5.103,4.137,9.24,9.24,9.24c5.103,0,9.24-4.137,9.24-9.24v-5.973h5.544v24.453c0,5.103,4.137,9.24,9.24,9.24    c5.103,0,9.24-4.137,9.24-9.24V56.998h5.544v5.973c0,5.103,4.137,9.24,9.24,9.24c5.103,0,9.24-4.137,9.24-9.24v-5.973h6.743    V171.56z M454.617,207.668h-15.161V99.25h15.161V207.668z" fill="#003559"/>
	</g>
</g>
<g>
	<g>
		<path d="M502.76,0.001H9.24C4.137,0.001,0,4.138,0,9.241v493.519c0,5.103,4.137,9.24,9.24,9.24h326.729    c5.103,0,9.24-4.137,9.24-9.24v-39.288c0-5.103-4.137-9.24-9.24-9.24h-51.278v-89.957c0-5.103-4.137-9.24-9.24-9.24h-38.903    c-5.103,0-9.24,4.137-9.24,9.24v89.957H57.383v-21.172h28.097c8.683,0,16.356-4.376,20.953-11.033    c8.036,4.164,17.27,6.394,26.97,6.394c28.822,0,52.271-20.147,52.271-44.911c0-7.353-2.104-14.645-6.084-21.088    c-2.681-4.34-8.376-5.688-12.717-3.005c-4.342,2.682-5.687,8.375-3.005,12.717c2.207,3.573,3.325,7.4,3.325,11.376    c0,14.573-15.159,26.43-33.79,26.43c-8.314,0-16.291-2.434-22.467-6.759v-39.343c6.176-4.324,14.153-6.759,22.467-6.759    c5.38,0,10.524,0.971,15.289,2.884c4.733,1.902,10.116-0.397,12.017-5.133s-0.397-10.116-5.133-12.017    c-6.965-2.797-14.424-4.215-22.175-4.215c-9.701,0-18.937,2.23-26.976,6.397c-4.597-6.652-12.267-11.025-20.948-11.025H57.383    v-24.64h255.028c5.103,0,9.24-4.137,9.24-9.24v-38.902c0-5.103-4.137-9.24-9.24-9.24H111.123c-5.103,0-9.24,4.137-9.24,9.24    c0,5.103,4.137,9.24,9.24,9.24h192.049v20.422H48.143c-5.103,0-9.24,4.137-9.24,9.24v163.381c0,5.103,4.137,9.24,9.24,9.24    h188.406c5.103,0,9.24-4.137,9.24-9.24v-89.957h20.423v89.957c0,5.103,4.137,9.24,9.24,9.24h51.278v20.807H18.48V18.481h475.04    v42.848c0,5.103,4.137,9.24,9.24,9.24c5.103,0,9.24-4.137,9.24-9.24V9.241C512,4.138,507.863,0.001,502.76,0.001z M57.383,352.454    h28.097v-0.001c3.848,0,6.977,3.129,6.977,6.977v48.174c0,3.846-3.129,6.977-6.977,6.977H57.383V352.454z" fill="#003559"/>
	</g>
</g>
<g>
	<g>
		<path d="M386.24,80.77h-68.215c-5.103,0-9.24,4.137-9.24,9.24v126.897c0,5.103,4.137,9.24,9.24,9.24h68.215    c5.103,0,9.24-4.137,9.24-9.24v-30.184v-66.529V90.01C395.48,84.907,391.343,80.77,386.24,80.77z M377,177.483h-17.625v-48.049    H377V177.483z M377,110.954h-26.865c-5.103,0-9.24,4.137-9.24,9.24v66.529c0,5.103,4.137,9.24,9.24,9.24H377v11.704h-49.735V99.25    H377V110.954z" fill="#003559"/>
	</g>
</g>
<g>
	<g>
		<circle cx="130.827" cy="383.514" r="9.24" fill="#003559"/>
	</g>
</g>
<g>
	<g>
		<circle cx="97.391" cy="178.778" r="9.24" fill="#003559"/>
	</g>
</g>
<g>
</g>
<g>
</g>
<g>
</g>
<g>
</g>
<g>
</g>
<g>
</g>
<g>
</g>
<g>
</g>
<g>
</g>
<g>
</g>
<g>
</g>
<g>
</g>
<g>
</g>
<g>
</g>
<g>
</g>
</svg>
