<?xml version="1.0" encoding="utf-8"?>
<!-- Generator: Adobe Illustrator 16.0.0, SVG Export Plug-In . SVG Version: 6.00 Build 0)  -->
<!DOCTYPE svg PUBLIC "-//W3C//DTD SVG 1.1//EN" "http://www.w3.org/Graphics/SVG/1.1/DTD/svg11.dtd">
<svg version="1.1" id="Layer_1" xmlns="http://www.w3.org/2000/svg" xmlns:xlink="http://www.w3.org/1999/xlink" x="0px" y="0px"
	 width="391.443px" height="141.89px" viewBox="0 0 391.443 141.89" enable-background="new 0 0 391.443 141.89"
	 xml:space="preserve">
<g>
	<path fill="#FFFFFF" d="M0.174,39.155c0-2.358,1.671-5.252,3.713-6.431L58.78,1.032c2.042-1.179,5.384-1.179,7.426,0L121.1,32.724
		c2.042,1.179,3.713,4.073,3.713,6.431v63.383c0,2.358-1.671,5.252-3.713,6.432l-54.894,31.694c-2.042,1.179-5.384,1.179-7.426,0
		L3.887,108.97c-2.042-1.179-3.713-4.073-3.713-6.432V39.155z"/>
</g>
<g>
	<path fill="#006EAB" d="M35.705,41.726c-1.887-1.395-5.351-2.536-7.698-2.536h-0.371c-2.347,0-4.267,1.92-4.267,4.267v72.814
		c0,2.347-1.663,3.307-3.695,2.133l-15.979-9.226C1.663,108.004,0,105.125,0,102.777V39.11c0-2.347,1.663-5.227,3.695-6.4
		L58.833,0.88c2.032-1.173,5.358-1.173,7.391,0l23.982,13.843c2.033,1.173,3.696,4.053,3.696,6.4v59.354
		c0,2.347-1.544,3.125-3.431,1.73L35.705,41.726z"/>
</g>
<g>
	<path fill="#0F3659" d="M121.357,32.71c2.032,1.173,3.695,4.053,3.695,6.4v63.667c0,2.347-1.663,5.227-3.695,6.4L66.223,141.01
		c-2.032,1.173-5.358,1.173-7.391,0l-22.863-13.196c-2.032-1.173-3.695-4.053-3.695-6.4V57.167c0-2.347,1.544-3.126,3.431-1.731
		l54.766,40.48c1.887,1.395,5.351,2.536,7.698,2.536h0.372c2.347,0,4.267-1.92,4.267-4.267V26.268c0-2.347,1.663-3.307,3.695-2.134
		L121.357,32.71z"/>
</g>
<g>
	<path fill="#0F3659" d="M200.69,98.16h-5.738l-27.279-44.024V98.16h-5.661v-55.03h5.661l27.279,43.945V43.129h5.738V98.16z"/>
	<path fill="#0F3659" d="M218.064,45.567c0,0.892-0.314,1.651-0.944,2.279c-0.628,0.629-1.376,0.944-2.239,0.944
		c-0.865,0-1.625-0.327-2.282-0.983c-0.655-0.655-0.981-1.401-0.981-2.24c0-0.837,0.326-1.584,0.981-2.24
		c0.657-0.655,1.417-0.983,2.282-0.983c0.863,0,1.611,0.314,2.239,0.943C217.75,43.916,218.064,44.676,218.064,45.567z
		 M217.592,98.16h-5.66V58.773h5.66V98.16z"/>
	<path fill="#0F3659" d="M252.777,61.918c4.454-2.516,8.673-3.773,12.657-3.773c3.773,0,6.761,1.206,8.962,3.616
		c2.201,2.411,3.302,5.478,3.302,9.198V98.16h-5.66V72.138c0-4.506-1.468-7.258-4.403-8.254c-1.1-0.314-2.031-0.472-2.789-0.472
		c-0.761,0-1.613,0.027-2.556,0.078c-0.943,0.054-2.307,0.42-4.089,1.101l-2.437,1.179c0.681,1.468,1.022,3.119,1.022,4.953V98.16
		h-5.661V72.217c0-2.462-0.576-4.428-1.729-5.896c-1.468-1.938-3.669-2.909-6.604-2.909s-5.765,0.787-8.49,2.358V98.16h-5.66V58.773
		h5.347l0.079,1.966c2.986-1.677,6.249-2.516,9.786-2.516C247.393,58.224,250.366,59.456,252.777,61.918z"/>
	<path fill="#0F3659" d="M293.657,60.268c2.463-1.415,5.267-2.122,8.412-2.122c3.144,0,5.896,0.498,8.254,1.493
		c4.454,2.045,6.683,5.818,6.683,11.321v14.858c0,5.188-2.045,8.832-6.133,10.927c-3.093,1.572-6.553,2.358-10.377,2.358
		c-3.826,0-7.992-0.314-12.5-0.943v-55.03h5.661V60.268z M311.423,85.895V71.824c0-2.516-0.681-4.481-2.044-5.896
		c-1.521-1.624-3.772-2.438-6.761-2.438l-3.93,0.394c-1.94,0.42-3.617,1.049-5.031,1.887v27.515c2.62,0.367,4.599,0.55,5.935,0.55
		c1.337,0,2.085-0.025,2.241-0.079c2.619,0,4.873-0.68,6.761-2.044C310.48,90.351,311.423,88.412,311.423,85.895z"/>
	<path fill="#0F3659" d="M354.731,98.16h-5.424V95.25c-2.254,2.516-5.295,3.774-9.12,3.774c-9.853,0-14.778-4.796-14.778-14.387
		V58.773h5.658v25.864c0,6.028,3.04,9.041,9.12,9.041c5.922,0,8.884-3.04,8.884-9.119V58.773h5.66V98.16z"/>
	<path fill="#0F3659" d="M362.906,88.175l5.503-0.235c0.209,1.939,1.18,3.446,2.909,4.52c1.729,1.075,3.721,1.611,5.975,1.611
		c2.253,0,4.206-0.511,5.857-1.533c1.651-1.022,2.476-2.489,2.476-4.402c0-1.913-0.707-3.432-2.123-4.56
		c-1.415-1.126-3.145-2.018-5.188-2.673c-2.044-0.655-4.102-1.348-6.172-2.084c-2.07-0.732-3.892-1.886-5.464-3.458
		c-1.939-1.833-2.907-4.075-2.907-6.722c0-2.646,1.06-5.109,3.184-7.389c2.122-2.28,5.567-3.42,10.337-3.42
		c1.676,0,3.249,0.196,4.717,0.589c1.466,0.394,2.516,0.774,3.145,1.14l0.943,0.55l-1.809,4.953
		c-1.678-1.309-3.879-1.965-6.604-1.965c-2.727,0-4.755,0.511-6.093,1.533c-1.335,1.021-2.004,2.319-2.004,3.891
		c0,1.729,0.838,3.093,2.515,4.088c1.678,0.996,3.565,1.835,5.661,2.515c2.096,0.682,4.178,1.442,6.25,2.28
		c2.069,0.839,3.824,2.15,5.267,3.931c1.441,1.782,2.162,4.141,2.162,7.075c0,2.936-1.18,5.491-3.538,7.665
		c-2.358,2.175-5.805,3.262-10.337,3.262c-4.534,0-8.085-1.075-10.652-3.223C364.347,93.967,363.011,91.32,362.906,88.175z"/>
</g>
<g>
</g>
<g>
</g>
<g>
</g>
<g>
</g>
<g>
</g>
<g>
</g>
</svg>
