<?xml version="1.0" encoding="utf-8"?>
<!-- Generator: Adobe Illustrator 16.0.0, SVG Export Plug-In . SVG Version: 6.00 Build 0)  -->
<!DOCTYPE svg PUBLIC "-//W3C//DTD SVG 1.1//EN" "http://www.w3.org/Graphics/SVG/1.1/DTD/svg11.dtd">
<svg version="1.1" id="Layer_1" xmlns="http://www.w3.org/2000/svg" xmlns:xlink="http://www.w3.org/1999/xlink" x="0px" y="0px"
	 width="470.186px" height="141.817px" viewBox="0 0 470.186 141.817" enable-background="new 0 0 470.186 141.817"
	 xml:space="preserve">
<polyline fill="#FFFFFF" points="180.305,105.029 180.305,128.01 177.293,128.01 163.088,108.603 163.088,128.01 160.484,128.01 
	160.484,105.029 163.506,105.029 177.707,124.365 177.707,105.029 "/>
<path fill="#FFFFFF" d="M187.922,107.735h-2.814v-3.398h2.814V107.735z M185.213,110.652h2.602v17.359h-2.602V110.652z"/>
<path fill="#FFFFFF" d="M206.535,128.011h-2.607v-10.413c0-2.916-1.877-4.861-4.305-4.861c-2.567,0-4.692,1.804-4.692,4.891v10.383
	h-2.596v-17.359h2.596v2.639c0.802-1.393,2.474-2.913,5.277-2.913c2.293,0,4.418,1.283,5.522,3.503
	c0.697-1.181,2.54-3.503,5.976-3.503c3.324,0,6.418,2.775,6.418,7.15v10.483h-2.605v-10.413c0-2.916-1.88-4.861-4.303-4.861
	c-2.572,0-4.681,1.804-4.681,4.891"/>
<path fill="#FFFFFF" d="M239.698,119.331c0,4.961-3.333,8.953-8.401,8.953c-2.879,0-4.928-1.179-6.21-3.053v2.78h-2.605v-24.298
	h2.605v9.751c1.282-1.874,3.331-3.087,6.21-3.087C236.365,110.377,239.698,114.371,239.698,119.331 M237.094,119.331
	c0-3.578-2.294-6.595-6.146-6.595c-3.853,0-6.003,3.017-6.003,6.595c0,3.577,2.15,6.594,6.003,6.594
	C234.8,125.925,237.094,122.908,237.094,119.331"/>
<path fill="#FFFFFF" d="M255.637,128.011v-2.709c-1.245,1.665-2.944,2.982-5.757,2.982c-3.578,0-6.948-2.605-6.948-7.531v-10.101
	h2.604v10.033c0,3.162,2.02,5.241,4.86,5.241c2.884,0,5.24-2.153,5.24-5.278v-9.996h2.607v17.359"/>
<path fill="#FFFFFF" d="M275.609,115.305h-2.644c-0.2-1.493-1.312-2.708-4.229-2.708c-2.709,0-4.129,0.801-4.129,2.5
	c0,4.163,11.557,1.458,11.557,7.985c0,3.366-2.776,5.202-7.08,5.202c-4.823,0-7.362-2.67-7.534-5.725h2.711
	c0.173,1.77,1.494,3.507,4.862,3.507c1.418,0,4.438-0.386,4.438-2.746c0-4.333-11.556-1.63-11.556-7.982
	c0-3.12,2.322-4.96,6.799-4.96C273.388,110.378,275.296,112.771,275.609,115.305"/>
<path fill="#FFFFFF" d="M286.97,105.898c-2.428,0-3.683,1.043-3.683,3.436v1.317h4.027v2.293h-4.027v15.066h-2.602v-15.066h-2.984
	v-2.293h2.984v-1.529c0-3.78,2.431-5.687,6.427-5.687h0.202v2.463"/>
<path fill="#FFFFFF" d="M305.966,119.331c0,4.961-3.3,8.953-8.614,8.953c-5.312,0-8.6-3.992-8.6-8.953c0-4.96,3.287-8.954,8.6-8.954
	C302.666,110.377,305.966,114.371,305.966,119.331 M303.355,119.331c0-3.578-2.15-6.595-6.004-6.595
	c-3.852,0-6.004,3.017-6.004,6.595c0,3.577,2.152,6.594,6.004,6.594C301.205,125.925,303.355,122.908,303.355,119.331"/>
<path fill="#FFFFFF" d="M318.577,110.377v2.6h-0.312c-3.896,0-6.256,3.577-6.256,7.397v7.636h-2.599v-17.359h2.599v4.275
	c0.348-1.179,2.085-4.549,6.389-4.549"/>
<polyline fill="#FFFFFF" points="332.223,114.158 327.883,128.011 324.892,128.011 319.445,110.652 322.229,110.652 
	326.393,124.782 330.798,110.652 333.646,110.652 338.057,124.782 342.22,110.652 344.996,110.652 339.541,128.011 336.568,128.011 
	"/>
<path fill="#FFFFFF" d="M363.586,119.331c0,4.961-3.302,8.953-8.609,8.953c-5.312,0-8.615-3.992-8.615-8.953
	c0-4.96,3.303-8.954,8.615-8.954C360.284,110.377,363.586,114.371,363.586,119.331 M360.982,119.331
	c0-3.578-2.161-6.595-6.006-6.595c-3.858,0-6.009,3.017-6.009,6.595c0,3.577,2.15,6.594,6.009,6.594
	C358.821,125.925,360.982,122.908,360.982,119.331"/>
<path fill="#FFFFFF" d="M376.195,110.377v2.6h-0.321c-3.882,0-6.24,3.577-6.24,7.397v7.636h-2.604v-17.359h2.604v4.275
	c0.341-1.179,2.077-4.549,6.382-4.549"/>
<polyline fill="#FFFFFF" points="386.65,117.493 394.146,128.011 390.956,128.011 384.879,119.298 381.62,122.526 381.62,128.011 
	379.013,128.011 379.013,103.713 381.62,103.713 381.62,119.259 389.982,110.652 393.627,110.652 "/>
<rect x="396.032" y="124.466" fill="#FFFFFF" width="3.362" height="3.545"/>
<path fill="#FFFFFF" d="M416.343,122.559h2.808c-1.002,3.366-4.098,5.725-8.188,5.725c-5.208,0-8.543-3.993-8.543-8.953
	s3.335-8.954,8.543-8.954c4.09,0,7.186,2.359,8.188,5.73h-2.808c-0.8-1.982-2.575-3.371-5.04-3.371
	c-3.844,0-6.278,3.018-6.278,6.595c0,3.578,2.435,6.594,6.278,6.594C413.768,125.925,415.543,124.536,416.343,122.559"/>
<path fill="#FFFFFF" d="M438.532,119.331c0,4.961-3.295,8.953-8.607,8.953c-5.308,0-8.608-3.992-8.608-8.953
	c0-4.96,3.301-8.954,8.608-8.954C435.237,110.377,438.532,114.371,438.532,119.331 M435.928,119.331
	c0-3.578-2.152-6.595-6.003-6.595c-3.853,0-6.004,3.017-6.004,6.595c0,3.577,2.151,6.594,6.004,6.594
	C433.775,125.925,435.928,122.908,435.928,119.331"/>
<path fill="#FFFFFF" d="M456.174,128.011h-2.601v-10.413c0-2.916-1.869-4.861-4.3-4.861c-2.57,0-4.685,1.804-4.685,4.891v10.383
	h-2.605v-17.359h2.605v2.639c0.791-1.393,2.454-2.913,5.269-2.913c2.301,0,4.407,1.283,5.52,3.503
	c0.692-1.181,2.538-3.503,5.975-3.503c3.333,0,6.422,2.775,6.422,7.15v10.483h-2.605v-10.413c0-2.916-1.879-4.861-4.306-4.861
	c-2.569,0-4.688,1.804-4.688,4.891"/>
<path fill="#0C3657" d="M0.357,39.075c0-2.353,1.668-5.242,3.706-6.418L58.847,1.029c2.039-1.177,5.373-1.177,7.412,0l54.784,31.628
	c2.038,1.176,3.707,4.065,3.707,6.418v63.258c0,2.353-1.669,5.242-3.707,6.418l-54.784,31.632c-2.039,1.176-5.373,1.176-7.412,0
	L4.063,108.751c-2.038-1.176-3.706-4.065-3.706-6.418"/>
<path fill="#FFFFFF" d="M35.687,41.705c-1.885-1.396-5.348-2.535-7.694-2.535h-0.37c-2.346,0-4.264,1.919-4.264,4.264v72.777
	c0,2.346-1.663,3.305-3.693,2.132l-15.971-9.221C1.664,107.948,0,105.071,0,102.725V39.09c0-2.347,1.664-5.224,3.695-6.397
	L58.804,0.88c2.03-1.173,5.355-1.173,7.387-0.001l23.97,13.836c2.03,1.173,3.694,4.051,3.694,6.396v59.323
	c0,2.346-1.544,3.125-3.43,1.73"/>
<path fill="#006DAB" d="M121.296,32.692c2.031,1.173,3.693,4.051,3.693,6.397v63.635c0,2.346-1.662,5.224-3.693,6.397L66.19,140.937
	c-2.031,1.173-5.355,1.173-7.387,0.001l-22.851-13.191c-2.032-1.173-3.694-4.051-3.694-6.397V57.136c0-2.345,1.543-3.124,3.43-1.729
	l54.736,40.46c1.887,1.394,5.349,2.535,7.695,2.535h0.373c2.346,0,4.264-1.919,4.264-4.265V26.254c0-2.346,1.663-3.306,3.694-2.133"
	/>
<path fill="#FFFFFF" d="M175.671,25.75c0,5.378-0.597,9.197-1.794,11.458c-1.195,2.261-3.201,3.392-6.015,3.392
	c-2.959,0-5.042-1.216-6.251-3.648c-1.197-2.381-1.794-6.606-1.794-12.682c0-5.415,0.591-9.249,1.774-11.496
	c1.197-2.262,3.22-3.393,6.074-3.393c2.55,0,4.444,0.874,5.68,2.624c0.815,1.169,1.406,2.833,1.775,4.989
	C175.487,18.992,175.671,21.91,175.671,25.75 M171.372,26.184c0-5.272-0.235-8.769-0.711-10.492
	c-0.472-1.736-1.437-2.603-2.898-2.603c-1.458,0-2.431,0.796-2.918,2.387c-0.474,1.604-0.71,4.825-0.71,9.663
	c0,4.456,0.249,7.546,0.75,9.269c0.511,1.63,1.47,2.445,2.878,2.445c1.38,0,2.328-0.763,2.841-2.288
	C171.117,33.053,171.372,30.26,171.372,26.184"/>
<path fill="#FFFFFF" d="M178.077,19.815h1.894v-7.121c0-2.327,0.341-3.97,1.025-4.929c0.685-0.961,1.873-1.441,3.569-1.441
	c0.738,0,1.593,0.177,2.564,0.532v3.984c-0.604-0.327-1.138-0.493-1.598-0.493c-0.643,0-1.101,0.191-1.369,0.571
	c-0.27,0.383-0.403,1.027-0.403,1.936l-0.022,1.537v5.424h3.195v2.998h-3.195v17.411h-3.766V22.813h-1.894"/>
<path fill="#FFFFFF" d="M188.825,19.815h1.895v-7.121c0-2.327,0.341-3.97,1.024-4.929c0.684-0.961,1.874-1.441,3.57-1.441
	c0.735,0,1.589,0.177,2.563,0.532v3.984c-0.605-0.327-1.136-0.493-1.598-0.493c-0.642,0-1.1,0.191-1.369,0.571
	c-0.27,0.383-0.406,1.027-0.406,1.936l-0.018,1.537v5.424h3.194v2.998h-3.194v17.411h-3.766V22.813h-1.895"/>
<path fill="#FFFFFF" d="M202.058,11.136c0.685,0,1.277,0.25,1.776,0.75c0.501,0.5,0.749,1.098,0.749,1.794
	c0,0.711-0.248,1.316-0.749,1.816c-0.499,0.499-1.106,0.749-1.814,0.749c-0.711,0-1.315-0.25-1.815-0.749
	c-0.486-0.488-0.73-1.099-0.73-1.835c0-0.684,0.25-1.275,0.75-1.775C200.764,11.386,201.375,11.136,202.058,11.136 M200.283,19.814
	h3.787v20.41h-3.787V19.814z"/>
<path fill="#FFFFFF" d="M216.652,20.209v3.845c-0.526-0.645-1.156-0.966-1.894-0.966c-2.078,0-3.116,2.248-3.116,6.743
	c0,4.773,1.032,7.16,3.098,7.16c0.578,0,1.216-0.257,1.912-0.769v3.53c-0.999,0.525-2.012,0.788-3.037,0.788
	c-4.05,0-6.073-3.443-6.073-10.333c0-3.669,0.499-6.373,1.497-8.114c1.001-1.743,2.551-2.614,4.655-2.614
	C214.707,19.479,215.692,19.722,216.652,20.209"/>
<path fill="#FFFFFF" d="M227.735,33.343h3.51c-0.275,4.798-2.246,7.198-5.916,7.198c-1.091,0-2.026-0.204-2.81-0.611
	c-0.782-0.408-1.43-1.039-1.944-1.893c-0.512-0.855-0.89-1.939-1.132-3.255c-0.243-1.314-0.365-2.88-0.365-4.693
	c0-3.602,0.503-6.271,1.508-8.007c1.006-1.735,2.561-2.603,4.665-2.603c4.088,0,6.132,3.602,6.132,10.808v0.472h-8.617
	c0,4.364,0.868,6.547,2.604,6.547C226.947,37.306,227.735,35.986,227.735,33.343 M227.538,28.038
	c-0.159-2.143-0.401-3.55-0.729-4.22c-0.343-0.75-0.895-1.125-1.657-1.125c-0.774,0-1.327,0.375-1.655,1.125
	c-0.329,0.67-0.573,2.077-0.73,4.22H227.538z"/>
<path fill="#FFFFFF" d="M244.754,9.775h3.512l2.682,12.425c0.328,1.551,0.628,3.106,0.896,4.665c0.271,1.557,0.518,3.191,0.74,4.9
	c0.026-0.224,0.046-0.398,0.06-0.523c0.012-0.125,0.026-0.214,0.039-0.266l0.572-3.491l0.511-3.313l0.455-2.189l2.388-12.208h3.549
	l2.8,30.449h-3.925l-0.69-10.333c-0.024-0.526-0.048-0.98-0.066-1.36c-0.021-0.381-0.032-0.697-0.032-0.947l-0.176-4.083
	l-0.099-3.747c0-0.025-0.004-0.082-0.012-0.166c-0.006-0.087-0.015-0.202-0.029-0.346l-0.097,0.612
	c-0.105,0.722-0.202,1.353-0.286,1.893c-0.087,0.538-0.162,0.993-0.228,1.36l-0.513,2.781l-0.196,1.045l-2.564,13.291h-2.762
	l-2.406-11.477c-0.329-1.512-0.619-3.047-0.878-4.605c-0.256-1.558-0.488-3.191-0.699-4.9l-1.184,20.982h-3.865"/>
<path fill="#FFFFFF" d="M277.787,19.815v20.41h-3.768v-2.623c-0.539,1.118-1.076,1.887-1.616,2.307
	c-0.539,0.422-1.248,0.632-2.128,0.632c-1.696,0-2.939-0.868-3.729-2.603c-0.789-1.735-1.182-4.457-1.182-8.165
	c0-3.536,0.393-6.135,1.182-7.8c0.79-1.664,2.033-2.494,3.729-2.494c1.55,0,2.798,0.88,3.744,2.642v-2.306 M269.27,29.931
	c0,2.683,0.177,4.556,0.53,5.619c0.368,1.066,1.013,1.598,1.935,1.598c0.841,0,1.451-0.551,1.835-1.657
	c0.381-1.182,0.569-3.002,0.569-5.461c0-2.473-0.188-4.3-0.569-5.483c-0.384-1.104-0.994-1.656-1.835-1.656
	c-0.896,0-1.532,0.525-1.913,1.577C269.452,25.441,269.27,27.262,269.27,29.931"/>
<path fill="#FFFFFF" d="M282.068,19.815h3.768v2.345c1.076-1.787,2.469-2.681,4.178-2.681c1.657,0,2.84,0.65,3.549,1.952
	c0.395,0.736,0.595,2.162,0.595,4.279v14.514h-3.77l-0.018-13.645c0-1.381-0.163-2.361-0.491-2.939
	c-0.333-0.577-0.896-0.868-1.697-0.868c-0.435,0-0.8,0.076-1.095,0.227c-0.298,0.151-0.535,0.394-0.719,0.73
	c-0.185,0.336-0.321,0.772-0.406,1.311s-0.126,1.202-0.126,1.991v13.193h-3.768"/>
<path fill="#FFFFFF" d="M310.072,19.815v20.41h-3.768v-2.623c-0.539,1.118-1.078,1.887-1.615,2.307
	c-0.54,0.422-1.252,0.632-2.133,0.632c-1.694,0-2.939-0.868-3.727-2.603c-0.79-1.735-1.184-4.457-1.184-8.165
	c0-3.536,0.394-6.135,1.184-7.8c0.787-1.664,2.032-2.494,3.727-2.494c1.554,0,2.803,0.88,3.748,2.642v-2.306 M301.551,29.931
	c0,2.683,0.178,4.556,0.532,5.619c0.369,1.066,1.013,1.598,1.935,1.598c0.843,0,1.452-0.551,1.833-1.657
	c0.383-1.182,0.572-3.002,0.572-5.461c0-2.473-0.189-4.3-0.572-5.483c-0.381-1.104-0.99-1.656-1.833-1.656
	c-0.895,0-1.531,0.525-1.914,1.577C301.736,25.441,301.551,27.262,301.551,29.931"/>
<path fill="#FFFFFF" d="M322.259,19.814h3.785v21.061c0,2.525-0.248,4.274-0.747,5.247c-0.92,1.788-2.77,2.682-5.542,2.682
	c-1.83,0-3.262-0.519-4.3-1.557c-1.051-1.053-1.579-2.466-1.579-4.241l0.022-0.632h3.646c0,2.17,0.809,3.255,2.425,3.255
	c0.881,0,1.481-0.277,1.794-0.829c0.33-0.525,0.495-1.571,0.495-3.135v-3.924c-0.804,1.866-2.033,2.799-3.688,2.799
	c-1.709,0-2.969-0.827-3.776-2.484c-0.809-1.656-1.212-4.246-1.212-7.77c0-3.734,0.386-6.489,1.163-8.264
	c0.762-1.696,2.031-2.543,3.806-2.543c0.84,0,1.525,0.204,2.05,0.611c0.526,0.408,1.078,1.131,1.658,2.169 M322.318,30.207
	c0-4.878-0.843-7.316-2.525-7.316c-0.801,0-1.387,0.548-1.755,1.647c-0.368,1.097-0.551,2.855-0.551,5.274
	c0,2.564,0.188,4.451,0.57,5.661c0.395,1.117,1.053,1.675,1.974,1.675c0.865,0,1.465-0.498,1.793-1.498
	C322.154,34.716,322.318,32.902,322.318,30.207"/>
<path fill="#FFFFFF" d="M338.192,33.343h3.511c-0.275,4.798-2.248,7.198-5.916,7.198c-1.09,0-2.027-0.204-2.811-0.611
	c-0.781-0.408-1.429-1.039-1.941-1.893c-0.516-0.855-0.892-1.939-1.135-3.255c-0.243-1.314-0.364-2.88-0.364-4.693
	c0-3.602,0.503-6.271,1.509-8.007c1.006-1.735,2.561-2.603,4.664-2.603c4.089,0,6.133,3.602,6.133,10.808v0.472h-8.617
	c0,4.364,0.868,6.547,2.602,6.547C337.404,37.306,338.192,35.986,338.192,33.343 M337.996,28.038c-0.159-2.143-0.4-3.55-0.729-4.22
	c-0.343-0.75-0.894-1.125-1.657-1.125c-0.774,0-1.328,0.375-1.657,1.125c-0.328,0.67-0.571,2.077-0.728,4.22H337.996z"/>
<path fill="#FFFFFF" d="M345.193,19.815h3.768v2.523c1.039-1.906,2.419-2.859,4.141-2.859c1.881,0,3.155,0.953,3.827,2.859
	c0.998-1.906,2.417-2.859,4.261-2.859c1.432,0,2.524,0.377,3.28,1.134c0.757,0.755,1.136,1.869,1.136,3.343v16.268h-3.787v-13.43
	c0-1.538-0.145-2.57-0.434-3.096c-0.275-0.538-0.814-0.808-1.617-0.808c-0.907,0-1.523,0.277-1.854,0.828
	c-0.315,0.539-0.473,1.565-0.473,3.076v13.43h-3.906v-13.43c0-0.722-0.035-1.333-0.108-1.833c-0.071-0.498-0.193-0.901-0.364-1.203
	c-0.173-0.302-0.396-0.523-0.672-0.661c-0.275-0.138-0.615-0.207-1.023-0.207c-0.867,0-1.487,0.298-1.856,0.887
	c-0.366,0.592-0.55,1.598-0.55,3.017v13.43h-3.768"/>
<path fill="#FFFFFF" d="M377.754,33.343h3.51c-0.276,4.798-2.248,7.198-5.916,7.198c-1.093,0-2.026-0.204-2.811-0.611
	c-0.782-0.408-1.43-1.039-1.941-1.893c-0.514-0.855-0.891-1.939-1.136-3.255c-0.241-1.314-0.364-2.88-0.364-4.693
	c0-3.602,0.502-6.271,1.508-8.007c1.008-1.735,2.561-2.603,4.665-2.603c4.087,0,6.135,3.602,6.135,10.808v0.472h-8.618
	c0,4.364,0.866,6.547,2.604,6.547C376.964,37.306,377.754,35.986,377.754,33.343 M377.555,28.038
	c-0.154-2.143-0.397-3.55-0.729-4.22c-0.34-0.75-0.895-1.125-1.655-1.125c-0.774,0-1.327,0.375-1.657,1.125
	c-0.329,0.67-0.571,2.077-0.729,4.22H377.555z"/>
<path fill="#FFFFFF" d="M384.756,19.815h3.766v2.345c1.076-1.787,2.471-2.681,4.182-2.681c1.657,0,2.839,0.65,3.55,1.952
	c0.396,0.736,0.592,2.162,0.592,4.279v14.514h-3.769l-0.02-13.645c0-1.381-0.164-2.361-0.491-2.939
	c-0.33-0.577-0.896-0.868-1.696-0.868c-0.436,0-0.8,0.076-1.095,0.227c-0.294,0.151-0.537,0.394-0.721,0.73
	s-0.318,0.772-0.403,1.311c-0.088,0.539-0.129,1.202-0.129,1.991v13.193h-3.766"/>
<polyline fill="#FFFFFF" points="401.559,14.095 405.325,14.095 405.325,19.815 407.373,19.815 407.373,22.812 405.325,22.812 
	405.325,40.225 401.559,40.225 401.559,22.812 399.487,22.812 399.487,19.815 401.559,19.815 "/>
<polyline fill="#FFFFFF" points="416.23,9.775 429.58,9.775 429.58,13.365 424.986,13.365 424.986,40.224 420.962,40.224 
	420.962,13.365 416.23,13.365 "/>
<path fill="#FFFFFF" d="M431.631,6.72h3.77v15.44c1.078-1.787,2.471-2.681,4.178-2.681c1.657,0,2.843,0.651,3.551,1.952
	c0.396,0.737,0.592,2.163,0.592,4.28v14.514h-3.766l-0.021-13.646c0-1.381-0.163-2.36-0.493-2.939
	c-0.329-0.578-0.894-0.867-1.697-0.867c-0.432,0-0.797,0.075-1.092,0.225c-0.297,0.153-0.536,0.395-0.721,0.731
	c-0.185,0.335-0.318,0.772-0.404,1.311c-0.084,0.539-0.127,1.203-0.127,1.992v13.193h-3.77"/>
<path fill="#FFFFFF" d="M459.636,19.815v20.41h-3.768v-2.623c-0.537,1.118-1.077,1.887-1.615,2.307
	c-0.539,0.422-1.25,0.632-2.13,0.632c-1.697,0-2.94-0.868-3.73-2.603c-0.787-1.735-1.182-4.457-1.182-8.165
	c0-3.536,0.395-6.135,1.182-7.8c0.79-1.664,2.033-2.494,3.73-2.494c1.55,0,2.8,0.88,3.745,2.642v-2.306 M451.116,29.931
	c0,2.683,0.178,4.556,0.534,5.619c0.365,1.066,1.01,1.598,1.932,1.598c0.841,0,1.451-0.551,1.834-1.657
	c0.382-1.182,0.571-3.002,0.571-5.461c0-2.473-0.189-4.3-0.571-5.483c-0.383-1.104-0.993-1.656-1.834-1.656
	c-0.895,0-1.532,0.525-1.912,1.577C451.3,25.441,451.116,27.262,451.116,29.931"/>
<polyline fill="#FFFFFF" points="464.368,14.095 468.137,14.095 468.137,19.815 470.186,19.815 470.186,22.812 468.137,22.812 
	468.137,40.225 464.368,40.225 464.368,22.812 462.299,22.812 462.299,19.815 464.368,19.815 "/>
<path fill="#FFFFFF" d="M158.139,58.242h3.966l2.068,14.14l0.337,2.091c0.157,1.13,0.276,2.162,0.356,3.095l0.217,2.584
	c0.012,0.065,0.025,0.184,0.038,0.355c0.013,0.171,0.033,0.388,0.059,0.651l0.099-0.986c0.158-1.722,0.324-3.306,0.503-4.754
	c0.177-1.445,0.372-2.78,0.582-4.002l2.19-13.174h3.154l2.051,12.798c0.302,1.894,0.555,3.649,0.759,5.266
	c0.203,1.618,0.371,3.163,0.505,4.635c0.13-1.551,0.278-3.051,0.441-4.496c0.165-1.447,0.339-2.867,0.523-4.261l0.297-2.03
	l1.753-11.912h3.925l-5.383,30.45h-3.196l-2.148-13.155c-0.014-0.052-0.048-0.27-0.098-0.65c-0.054-0.382-0.133-0.927-0.239-1.637
	l-0.412-3.037c-0.027-0.237-0.07-0.593-0.129-1.065c-0.061-0.474-0.122-1.072-0.186-1.795l-0.1-1.262
	c-0.027,0.303-0.052,0.566-0.079,0.788c-0.028,0.224-0.046,0.409-0.059,0.553c-0.064,0.867-0.121,1.542-0.169,2.021
	c-0.045,0.48-0.075,0.773-0.088,0.878l-0.414,2.919c-0.092,0.671-0.164,1.196-0.217,1.577c-0.052,0.382-0.092,0.619-0.118,0.71
	l-2.229,13.155h-3.293"/>
<path fill="#FFFFFF" d="M195.511,78.653c0,6.903-2.136,10.354-6.409,10.354s-6.409-3.504-6.409-10.511
	c0-7.034,2.129-10.551,6.388-10.551c1.105,0,2.064,0.21,2.871,0.631c0.809,0.421,1.475,1.072,2.002,1.953
	c0.525,0.881,0.916,1.991,1.173,3.333C195.382,75.202,195.511,76.801,195.511,78.653 M191.606,78.555
	c0-2.682-0.177-4.548-0.531-5.601c-0.355-1.064-0.989-1.597-1.895-1.597c-0.894,0-1.53,0.525-1.912,1.577
	c-0.356,1.053-0.532,2.887-0.532,5.503c0,2.617,0.176,4.443,0.532,5.483c0.382,1.052,1.018,1.577,1.912,1.577
	c0.895,0,1.52-0.519,1.874-1.558C191.421,82.966,191.606,81.171,191.606,78.555"/>
<path fill="#FFFFFF" d="M199.021,68.28h3.768v2.544c0.643-1.078,1.282-1.833,1.913-2.267c0.63-0.434,1.464-0.684,2.505-0.75v3.945
	c-0.266-0.04-0.489-0.059-0.671-0.059c-1.356,0-2.322,0.348-2.899,1.045c-0.566,0.683-0.848,1.88-0.848,3.588v12.366h-3.768"/>
<polyline fill="#FFFFFF" points="209.888,55.186 213.656,55.186 213.656,77.372 218.448,68.279 222.706,68.279 217.501,77.372 
	223.397,88.691 218.98,88.691 213.656,77.845 213.656,88.691 209.888,88.691 "/>
<path fill="#FFFFFF" d="M233.889,68.694v3.53c-0.921-0.683-1.887-1.025-2.898-1.025c-0.343,0-0.657,0.059-0.947,0.177
	c-0.289,0.119-0.543,0.279-0.759,0.484c-0.217,0.203-0.388,0.447-0.513,0.729c-0.123,0.282-0.188,0.582-0.188,0.897
	c0,0.973,0.882,2.13,2.646,3.471c0.707,0.552,1.301,1.065,1.773,1.538c0.472,0.474,0.833,0.922,1.082,1.342
	c0.516,0.827,0.771,1.872,0.771,3.135c0,1.828-0.533,3.294-1.598,4.398c-1.053,1.091-2.467,1.637-4.24,1.637
	c-1.091,0-2.194-0.322-3.312-0.967v-3.648c1.089,0.816,2.122,1.222,3.094,1.222c1.726,0,2.584-0.848,2.584-2.544
	c0-0.63-0.154-1.175-0.473-1.637c-0.145-0.222-0.374-0.482-0.688-0.778c-0.316-0.296-0.705-0.628-1.164-0.996
	c-1.592-1.236-2.67-2.274-3.234-3.116c-0.554-0.868-0.829-1.913-0.829-3.136c0-1.643,0.507-2.991,1.518-4.043
	c1.026-1.038,2.362-1.557,4.005-1.557C231.674,67.807,232.797,68.102,233.889,68.694"/>
<polyline fill="#FFFFFF" points="246.45,58.242 250.553,58.242 250.553,85.22 257.258,85.22 257.258,88.692 246.45,88.692 "/>
<path fill="#FFFFFF" d="M261.38,59.603c0.683,0,1.275,0.25,1.774,0.75c0.5,0.499,0.75,1.097,0.75,1.794
	c0,0.71-0.25,1.315-0.75,1.814c-0.499,0.499-1.104,0.749-1.813,0.749c-0.711,0-1.316-0.25-1.814-0.749
	c-0.487-0.486-0.729-1.097-0.729-1.834c0-0.684,0.249-1.275,0.747-1.774C260.085,59.853,260.695,59.603,261.38,59.603
	 M259.604,68.28h3.787v20.412h-3.787V68.28z"/>
<polyline fill="#FFFFFF" points="267.63,55.186 271.398,55.186 271.398,77.372 276.19,68.279 280.45,68.279 275.242,77.372 
	281.141,88.691 276.723,88.691 271.398,77.845 271.398,88.691 267.63,88.691 "/>
<path fill="#FFFFFF" d="M290.705,81.808h3.51c-0.275,4.8-2.248,7.199-5.916,7.199c-1.092,0-2.027-0.203-2.81-0.61
	c-0.784-0.409-1.432-1.04-1.942-1.895c-0.513-0.855-0.892-1.939-1.136-3.254c-0.242-1.315-0.365-2.879-0.365-4.694
	c0-3.602,0.504-6.271,1.509-8.006c1.008-1.735,2.562-2.604,4.664-2.604c4.091,0,6.135,3.603,6.135,10.808v0.474h-8.617
	c0,4.364,0.867,6.546,2.603,6.546C289.915,85.772,290.705,84.451,290.705,81.808 M290.508,76.504c-0.157-2.144-0.4-3.55-0.729-4.221
	c-0.342-0.749-0.895-1.124-1.657-1.124c-0.775,0-1.328,0.375-1.658,1.124c-0.328,0.671-0.572,2.077-0.728,4.221H290.508z"/>
<path fill="#FFFFFF" d="M307.724,58.242h3.512l2.682,12.423c0.328,1.553,0.628,3.107,0.898,4.665
	c0.269,1.558,0.514,3.192,0.737,4.901c0.027-0.224,0.047-0.398,0.06-0.523c0.015-0.124,0.026-0.214,0.041-0.266l0.57-3.491
	l0.516-3.313l0.451-2.189l2.387-12.207h3.549l2.8,30.45h-3.923l-0.69-10.335c-0.025-0.525-0.051-0.979-0.069-1.361
	c-0.02-0.38-0.031-0.696-0.031-0.946l-0.175-4.082l-0.1-3.747c0-0.027-0.004-0.083-0.01-0.167c-0.007-0.086-0.016-0.202-0.029-0.346
	L320.8,68.32c-0.105,0.723-0.2,1.354-0.288,1.893c-0.084,0.539-0.158,0.992-0.226,1.361l-0.512,2.78l-0.197,1.045l-2.565,13.293
	h-2.76l-2.406-11.478c-0.328-1.513-0.621-3.047-0.876-4.605c-0.258-1.558-0.491-3.192-0.702-4.901l-1.183,20.984h-3.864"/>
<path fill="#FFFFFF" d="M340.757,68.28v20.412h-3.766v-2.623c-0.54,1.118-1.078,1.886-1.617,2.307
	c-0.539,0.42-1.249,0.631-2.132,0.631c-1.694,0-2.938-0.868-3.727-2.604c-0.789-1.735-1.184-4.456-1.184-8.164
	c0-3.536,0.395-6.136,1.184-7.799c0.788-1.664,2.032-2.495,3.727-2.495c1.551,0,2.802,0.881,3.749,2.642V68.28 M332.237,78.397
	c0,2.682,0.178,4.556,0.532,5.621c0.368,1.065,1.012,1.596,1.935,1.596c0.838,0,1.452-0.551,1.832-1.655
	c0.382-1.184,0.571-3.005,0.571-5.463c0-2.472-0.189-4.299-0.571-5.483c-0.38-1.104-0.994-1.656-1.832-1.656
	c-0.896,0-1.533,0.525-1.914,1.577C332.421,73.907,332.237,75.728,332.237,78.397"/>
<path fill="#FFFFFF" d="M352.945,68.28h3.785v21.062c0,2.524-0.248,4.274-0.748,5.246c-0.92,1.788-2.769,2.682-5.542,2.682
	c-1.827,0-3.262-0.519-4.301-1.557c-1.051-1.052-1.577-2.466-1.577-4.241l0.021-0.631h3.647c0,2.17,0.811,3.254,2.427,3.254
	c0.882,0,1.479-0.276,1.794-0.828c0.329-0.526,0.494-1.571,0.494-3.136v-3.924c-0.805,1.867-2.032,2.8-3.689,2.8
	c-1.709,0-2.968-0.828-3.775-2.485c-0.81-1.657-1.212-4.246-1.212-7.769c0-3.735,0.388-6.489,1.162-8.264
	c0.764-1.695,2.031-2.544,3.805-2.544c0.844,0,1.528,0.204,2.054,0.612c0.525,0.407,1.076,1.131,1.656,2.169 M353.003,78.673
	c0-4.877-0.841-7.316-2.522-7.316c-0.803,0-1.389,0.548-1.757,1.647c-0.368,1.097-0.551,2.856-0.551,5.275
	c0,2.564,0.19,4.45,0.571,5.66c0.395,1.117,1.051,1.675,1.972,1.675c0.868,0,1.466-0.498,1.796-1.497
	C352.84,83.183,353.003,81.368,353.003,78.673"/>
<path fill="#FFFFFF" d="M362.766,59.603c0.685,0,1.275,0.25,1.775,0.75c0.499,0.499,0.749,1.097,0.749,1.794
	c0,0.71-0.25,1.315-0.749,1.814c-0.5,0.499-1.106,0.749-1.814,0.749c-0.711,0-1.314-0.25-1.814-0.749
	c-0.488-0.486-0.729-1.097-0.729-1.834c0-0.684,0.25-1.275,0.748-1.774C361.472,59.853,362.082,59.603,362.766,59.603
	 M360.991,68.28h3.786v20.412h-3.786V68.28z"/>
<path fill="#FFFFFF" d="M377.36,68.674v3.846c-0.526-0.645-1.156-0.966-1.895-0.966c-2.078,0-3.116,2.247-3.116,6.745
	c0,4.771,1.032,7.158,3.098,7.158c0.578,0,1.215-0.257,1.913-0.768v3.529c-0.999,0.526-2.014,0.789-3.039,0.789
	c-4.05,0-6.073-3.445-6.073-10.334c0-3.669,0.5-6.373,1.499-8.115c0.998-1.742,2.551-2.613,4.653-2.613
	C375.413,67.945,376.398,68.188,377.36,68.674"/>
</svg>
