<?xml version="1.0"?>
<svg xmlns="http://www.w3.org/2000/svg" height="512px" viewBox="-154 0 512 512.00073" width="512px"><path d="m102.402344 324.265625c-4.714844 0-8.535156 3.820313-8.535156 8.535156v136.53125c0 4.714844 3.820312 8.535157 8.535156 8.535157 4.710937 0 8.53125-3.820313 8.53125-8.535157v-136.53125c0-4.714843-3.820313-8.535156-8.53125-8.535156zm0 0" fill="#003559"/><path d="m187.734375 0h-170.667969c-9.425781 0-17.066406 7.640625-17.066406 17.066406v196.265625c.0273438 23.554688 19.113281 42.640625 42.667969 42.667969h34.132812v34.132812h-8.535156c-9.425781 0-17.066406 7.640626-17.066406 17.066407v162.136719c.027343 23.550781 19.117187 42.636718 42.667969 42.664062h17.066406c23.554687-.027344 42.640625-19.113281 42.667968-42.664062v-162.136719c0-9.425781-7.640624-17.066407-17.066406-17.066407h-8.535156v-34.132812h34.132812c23.554688-.027344 42.640626-19.113281 42.667969-42.667969v-196.265625c0-9.425781-7.640625-17.066406-17.066406-17.066406zm-51.199219 307.199219v162.132812c0 14.140625-11.460937 25.601563-25.601562 25.601563h-17.066406c-14.140626 0-25.601563-11.460938-25.601563-25.601563v-162.132812zm-42.667968-17.066407v-34.132812h17.066406v34.132812zm93.867187-76.800781c0 14.140625-11.460937 25.601563-25.601563 25.601563h-119.464843c-14.140625 0-25.601563-11.460938-25.601563-25.601563v-8.53125h170.667969zm0-25.597656h-170.667969v-170.667969h17.066406v25.601563c0 4.710937 3.820313 8.53125 8.535157 8.53125 4.710937 0 8.53125-3.820313 8.53125-8.53125v-25.601563h17.070312v59.734375c0 4.710938 3.820313 8.53125 8.53125 8.53125 4.710938 0 8.535157-3.820312 8.535157-8.53125v-59.734375h68.265624v42.667969c0 4.710937 3.820313 8.53125 8.53125 8.53125 4.714844 0 8.535157-3.820313 8.535157-8.53125v-42.667969h17.066406zm0 0" fill="#003559"/></svg>
