<?xml version="1.0" encoding="iso-8859-1"?>
<!-- Generator: Adobe Illustrator 19.0.0, SVG Export Plug-In . SVG Version: 6.00 Build 0)  -->
<svg xmlns="http://www.w3.org/2000/svg" xmlns:xlink="http://www.w3.org/1999/xlink" version="1.1" id="Layer_1" x="0px" y="0px" viewBox="0 0 512 512" style="enable-background:new 0 0 512 512;" xml:space="preserve" width="512px" height="512px">
<g transform="translate(1 1)">
	<g>
		<g>
			<path d="M186.733,357.4c-5.12,0-8.533,3.413-8.533,8.533s3.413,8.533,8.533,8.533s8.533-3.413,8.533-8.533     S191.853,357.4,186.733,357.4z" fill="#003559"/>
			<path d="M152.6,357.4c-5.12,0-8.533,3.413-8.533,8.533s3.413,8.533,8.533,8.533s8.533-3.413,8.533-8.533     S157.72,357.4,152.6,357.4z" fill="#003559"/>
			<path d="M152.6,323.267c5.12,0,8.533-3.413,8.533-8.533s-3.413-8.533-8.533-8.533c-4.267,0-8.533,4.267-8.533,8.533     C144.067,319.853,147.48,323.267,152.6,323.267z" fill="#003559"/>
			<path d="M186.733,323.267c5.12,0,8.533-3.413,8.533-8.533s-3.413-8.533-8.533-8.533s-8.533,4.267-8.533,8.533     C178.2,319.853,181.613,323.267,186.733,323.267z" fill="#003559"/>
			<path d="M442.733,280.6c5.12,0,8.533-3.413,8.533-8.533c0-5.12-3.413-8.533-8.533-8.533s-8.533,3.413-8.533,8.533     C434.2,277.187,437.613,280.6,442.733,280.6z" fill="#003559"/>
			<path d="M408.6,280.6c5.12,0,8.533-3.413,8.533-8.533c0-5.12-3.413-8.533-8.533-8.533c-5.12,0-8.533,3.413-8.533,8.533     C400.067,277.187,403.48,280.6,408.6,280.6z" fill="#003559"/>
			<path d="M408.6,229.4c5.12,0,8.533-3.413,8.533-8.533s-3.413-8.533-8.533-8.533c-4.267,0-8.533,4.267-8.533,8.533     C400.067,225.987,403.48,229.4,408.6,229.4z" fill="#003559"/>
			<path d="M442.733,229.4c5.12,0,8.533-3.413,8.533-8.533s-3.413-8.533-8.533-8.533c-4.267,0-8.533,4.267-8.533,8.533     C434.2,225.987,437.613,229.4,442.733,229.4z" fill="#003559"/>
			<path d="M468.333-1H383h-85.333h-85.333H127H41.667c-5.12,0-8.533,3.413-8.533,8.533v494.933c0,5.12,3.413,8.533,8.533,8.533H127     h85.333h85.333H383h85.333c5.12,0,8.533-3.413,8.533-8.533v-256V7.533C476.867,2.413,473.453-1,468.333-1z M459.8,237.933     h-68.267V16.067H459.8V237.933z M289.133,152.6h-68.267V16.067h68.267V152.6z M203.8,161.133V331.8h-68.267V16.067H203.8V161.133     z M50.2,16.067h68.267v324.267v153.6H50.2V16.067z M135.533,348.867H203.8v145.067h-68.267V348.867z M220.867,340.333V169.667     h68.267v324.267h-68.267V340.333z M306.2,161.133V16.067h68.267v230.4v247.467H306.2V161.133z M459.8,493.933h-68.267V255H459.8     V493.933z" fill="#003559"/>
			<path d="M272.067,178.2c-5.12,0-8.533,3.413-8.533,8.533s3.413,8.533,8.533,8.533s8.533-3.413,8.533-8.533     S277.187,178.2,272.067,178.2z" fill="#003559"/>
			<path d="M237.933,178.2c-5.12,0-8.533,3.413-8.533,8.533s3.413,8.533,8.533,8.533c5.12,0,8.533-3.413,8.533-8.533     S243.053,178.2,237.933,178.2z" fill="#003559"/>
			<path d="M237.933,144.067c5.12,0,8.533-3.413,8.533-8.533S243.053,127,237.933,127c-5.12,0-8.533,4.267-8.533,8.533     C229.4,140.653,232.813,144.067,237.933,144.067z" fill="#003559"/>
			<path d="M272.067,144.067c5.12,0,8.533-3.413,8.533-8.533S277.187,127,272.067,127s-8.533,4.267-8.533,8.533     C263.533,140.653,266.947,144.067,272.067,144.067z" fill="#003559"/>
			<path d="M101.4,24.6c-5.12,0-8.533,4.267-8.533,8.533c0,4.267,3.413,8.533,8.533,8.533s8.533-3.413,8.533-8.533     C109.933,28.013,106.52,24.6,101.4,24.6z" fill="#003559"/>
			<path d="M67.267,24.6c-5.12,0-8.533,4.267-8.533,8.533c0,4.267,3.413,8.533,8.533,8.533s8.533-3.413,8.533-8.533     C75.8,28.013,72.387,24.6,67.267,24.6z" fill="#003559"/>
			<path d="M101.4,468.333c-5.12,0-8.533,3.413-8.533,8.533s3.413,8.533,8.533,8.533s8.533-3.413,8.533-8.533     S106.52,468.333,101.4,468.333z" fill="#003559"/>
			<path d="M67.267,468.333c-5.12,0-8.533,3.413-8.533,8.533s3.413,8.533,8.533,8.533s8.533-3.413,8.533-8.533     S72.387,468.333,67.267,468.333z" fill="#003559"/>
			<path d="M357.4,24.6c-5.12,0-8.533,3.413-8.533,8.533c0,5.12,3.413,8.533,8.533,8.533c5.12,0,8.533-3.413,8.533-8.533     C365.933,28.013,362.52,24.6,357.4,24.6z" fill="#003559"/>
			<path d="M323.267,24.6c-5.12,0-8.533,3.413-8.533,8.533c0,5.12,3.413,8.533,8.533,8.533s8.533-3.413,8.533-8.533     C331.8,28.013,328.387,24.6,323.267,24.6z" fill="#003559"/>
			<path d="M357.4,468.333c-5.12,0-8.533,3.413-8.533,8.533s3.413,8.533,8.533,8.533c5.12,0,8.533-3.413,8.533-8.533     S362.52,468.333,357.4,468.333z" fill="#003559"/>
			<path d="M323.267,468.333c-5.12,0-8.533,3.413-8.533,8.533s3.413,8.533,8.533,8.533s8.533-3.413,8.533-8.533     S328.387,468.333,323.267,468.333z" fill="#003559"/>
		</g>
	</g>
</g>
<g>
</g>
<g>
</g>
<g>
</g>
<g>
</g>
<g>
</g>
<g>
</g>
<g>
</g>
<g>
</g>
<g>
</g>
<g>
</g>
<g>
</g>
<g>
</g>
<g>
</g>
<g>
</g>
<g>
</g>
</svg>
