<?xml version="1.0" encoding="iso-8859-1"?>
<!-- Generator: Adobe Illustrator 17.1.0, SVG Export Plug-In . SVG Version: 6.00 Build 0)  -->
<!DOCTYPE svg PUBLIC "-//W3C//DTD SVG 1.1//EN" "http://www.w3.org/Graphics/SVG/1.1/DTD/svg11.dtd">
<svg xmlns="http://www.w3.org/2000/svg" xmlns:xlink="http://www.w3.org/1999/xlink" version="1.1" id="Capa_1" x="0px" y="0px" viewBox="0 0 460.405 460.405" style="enable-background:new 0 0 460.405 460.405;" xml:space="preserve" width="512px" height="512px">
<g>
	<path d="M452.905,436.615h-58.172l19.233-175.626c0.323-0.675,0.556-1.404,0.666-2.18l8.356-58.683   c1.007-3.32,1.554-6.839,1.554-10.484c0-0.546-0.062-1.077-0.173-1.591c-0.294-13.773-4.277-24.581-11.873-32.124   c-10.093-10.02-22.5-10.241-23.816-10.212h-9.5v-18.852c17.381-8.557,24.71-25.898,26.181-36.04   c0.052-0.356,0.078-0.716,0.078-1.076V54.074v-0.002c0.001-1.016-0.17-19.806-13.293-32.97   c-8.144-8.17-19.223-12.312-32.928-12.312c-23.394,0-34.858,12.441-40.355,22.878c-5.727,10.872-6.038,21.74-6.048,22.197   c-0.001,0.037,0.003,0.073,0.003,0.11c0,0.033-0.005,0.065-0.005,0.099v35.674c0,0.36,0.026,0.72,0.078,1.076   c1.489,10.27,8.984,27.925,26.842,36.361v18.53h-9.445c-1.37,0.022-13.778,0.194-23.867,10.212   c-7.664,7.608-11.65,18.542-11.879,32.493c-0.065,0.398-0.108,0.805-0.108,1.222c0,11.692-9.511,21.205-21.203,21.205h-45.382   c-4.142,0-7.5,3.357-7.5,7.5c0,4.143,3.358,7.5,7.5,7.5h45.382c9.659,0,18.439-3.81,24.937-9.996l6.101,42.841l19.486,177.923   H194.645v-29.512h8.859c16.372,0,30.079-12.921,31.224-29.096c0.051-0.354,0.078-0.715,0.078-1.082v-1.124   c0-0.367-0.026-0.729-0.078-1.082c-0.2-2.83-0.793-5.557-1.709-8.135l0.001-0.018v-41.209c0-10.207-8.304-18.512-18.512-18.512   c-1.648,0-3.239,0.237-4.761,0.644l-5.312-74.892c-0.151-19.229-15.841-34.823-35.104-34.823h-31.739   c-19.264,0-34.954,15.595-35.104,34.823l-5.312,74.892c-1.522-0.406-3.113-0.644-4.761-0.644c-4.671,0-8.931,1.752-12.191,4.616   c-3.26-2.864-7.52-4.616-12.191-4.616c-1.648,0-3.238,0.237-4.76,0.644l-5.312-74.892c-0.153-19.228-15.842-34.823-35.105-34.823   H7.5c-4.142,0-7.5,3.357-7.5,7.5c0,4.143,3.358,7.5,7.5,7.5h15.355c11.087,0,20.106,9.019,20.106,20.104   c0,0.177,0.006,0.355,0.019,0.53l6.54,92.193c-0.132,10.974-9.1,19.86-20.104,19.86H7.5c-4.142,0-7.5,3.357-7.5,7.5   c0,0.027,0.004,0.054,0.004,0.08c0,0.027-0.004,0.054-0.004,0.081c0,4.142,3.358,7.5,7.5,7.5h49.529   c7.236,0,13.377,4.743,15.5,11.28c-0.152,0.926-0.266,1.864-0.334,2.815c-0.051,0.353-0.078,0.715-0.078,1.082v1.124   c0,0.367,0.026,0.729,0.078,1.082c0.067,0.95,0.182,1.889,0.334,2.814c-2.123,6.538-8.264,11.281-15.5,11.281H7.5   c-4.142,0-7.5,3.357-7.5,7.5c0,4.143,3.358,7.5,7.5,7.5h25.67v29.512H7.5c-4.142,0-7.5,3.357-7.5,7.5c0,4.143,3.358,7.5,7.5,7.5   h445.405c4.142,0,7.5-3.357,7.5-7.5C460.405,439.973,457.047,436.615,452.905,436.615z M359.218,23.79   c21.573,0,28.245,13.908,30.305,22.953c-19.109-11.006-35.96-9.477-47.564-5.606c-5.079,1.693-9.489,3.946-13.149,6.212   C330.96,38.364,337.751,23.79,359.218,23.79z M327.813,89.112V67.087c0.068-0.068,0.141-0.13,0.207-0.201   c0.074-0.079,7.517-7.958,19.21-11.691c14.322-4.574,28.846-1.097,43.21,10.304v23.607c-0.7,3.66-5.996,25.964-31.193,27.73h-0.239   C333.753,115.065,328.49,92.666,327.813,89.112z M358.27,131.82c0.162,0.011,0.323,0.016,0.485,0.016h0.743   c0.162,0,0.323-0.005,0.485-0.016c1.444-0.094,2.834-0.253,4.197-0.442v14.347h-9.448v-14.254   C355.887,131.617,357.059,131.742,358.27,131.82z M319.696,164.332c5.105-3.5,10.507-3.615,10.538-3.616h15.857   c0.059,0.001,0.116,0.009,0.174,0.009h26.667c0.059,0,0.116-0.008,0.174-0.009h15.628c0.09,0,7.505,0.209,13.193,5.856   c4.875,4.84,7.387,12.445,7.469,22.607l-1.061,7.448c-2.896,8.266-10.754,14.22-19.996,14.22h-45.382c-4.142,0-7.5,3.357-7.5,7.5   c0,4.143,3.358,7.5,7.5,7.5h45.382c5.9,0,11.47-1.428,16.397-3.942l-4.037,28.347h-82.483l-8.697-61.072   C309.616,177.253,313.038,168.895,319.696,164.332z M320.075,265.252h78.335l-18.767,171.363h-12.515V307.54   c0-4.143-3.358-7.5-7.5-7.5c-4.142,0-7.5,3.357-7.5,7.5v129.075h-13.286L320.075,265.252z M179.645,436.615h-52.367v-29.512h52.367   V436.615z M203.505,392.103H103.418c-7.172,0-13.353-4.764-15.493-11.288c0.149-0.926,0.262-1.864,0.329-2.815   c0.05-0.351,0.076-0.709,0.076-1.074v-1.124c0-0.365-0.026-0.724-0.076-1.074c-0.066-0.951-0.179-1.889-0.329-2.815   c2.14-6.523,8.321-11.287,15.493-11.287h100.086c8.725,0,15.997,7.044,16.292,15.738   C219.502,385.059,212.23,392.103,203.505,392.103z M214.509,321.847c1.937,0,3.512,1.575,3.512,3.512v23.895   c-4.074-2.162-8.664-3.445-13.509-3.604c4.078-5.734,6.485-12.734,6.485-20.291C210.997,323.422,212.572,321.847,214.509,321.847z    M117.468,233.41c0.012-0.176,0.019-0.354,0.019-0.53c0-11.086,9.019-20.104,20.105-20.104h31.739   c11.086,0,20.105,9.019,20.105,20.104c0,0.177,0.006,0.355,0.019,0.53l6.54,92.193c-0.132,10.974-9.1,19.86-20.104,19.86h-44.859   c-11.004,0-19.973-8.887-20.105-19.86L117.468,233.41z M92.415,321.847c1.937,0,3.512,1.575,3.512,3.512   c0,7.557,2.408,14.557,6.485,20.291c-4.845,0.157-9.436,1.441-13.509,3.603v-23.893C88.903,323.422,90.479,321.847,92.415,321.847z    M58.036,345.649c4.078-5.734,6.485-12.734,6.485-20.291c0-1.937,1.575-3.512,3.512-3.512c1.937,0,3.512,1.575,3.512,3.512v23.847   C67.483,347.068,62.898,345.805,58.036,345.649z M48.17,407.103h8.859c9.21,0,17.5-4.001,23.233-10.352   c5.755,6.343,14.041,10.352,23.156,10.352h8.86v29.512H48.17V407.103z" fill="#003559"/>
	<path d="M348.97,187.031c1.098,0.578,2.298,0.864,3.494,0.864c1.488,0,2.971-0.442,4.244-1.316l2.892-1.984l2.889,1.982   c1.272,0.874,2.755,1.316,4.244,1.316c1.196,0,2.396-0.286,3.494-0.863c2.464-1.298,4.006-3.852,4.006-6.637v-7.715   c0-2.784-1.542-5.339-4.005-6.636c-2.462-1.297-5.442-1.124-7.738,0.451l-2.892,1.983l-2.889-1.983   c-2.295-1.576-5.275-1.748-7.738-0.453c-2.464,1.298-4.006,3.853-4.006,6.637v7.716C344.964,183.18,346.506,185.734,348.97,187.031   z" fill="#003559"/>
</g>
<g>
</g>
<g>
</g>
<g>
</g>
<g>
</g>
<g>
</g>
<g>
</g>
<g>
</g>
<g>
</g>
<g>
</g>
<g>
</g>
<g>
</g>
<g>
</g>
<g>
</g>
<g>
</g>
<g>
</g>
</svg>
