<svg width="480" height="480" viewBox="0 0 480 480" version="1.1" xmlns="http://www.w3.org/2000/svg" xmlns:xlink="http://www.w3.org/1999/xlink">
<title>004-support</title>
<desc>Created using Figma</desc>
<g id="Canvas" transform="translate(-1912 55)">
<g id="004-support">
<g id="Group">
<g id="Group">
<g id="Vector">
<use xlink:href="#path0_fill" transform="translate(2096 97)" fill="#0D6EAC"/>
</g>
</g>
</g>
<g id="Group">
<g id="Group">
<g id="Vector">
<use xlink:href="#path0_fill" transform="translate(2160 97)" fill="#0D6EAC"/>
</g>
</g>
</g>
<g id="Group">
<g id="Group">
<g id="Vector">
<use xlink:href="#path1_fill" transform="translate(2120 313)" fill="#0D6EAC"/>
</g>
</g>
</g>
<g id="Group">
<g id="Group">
<g id="Vector">
<use xlink:href="#path2_fill" transform="translate(1912 -55)" fill="#0D6EAC"/>
</g>
</g>
</g>
<g id="Group">
<g id="Group">
<g id="Vector">
<use xlink:href="#path3_fill" transform="translate(2256 337)" fill="#0D6EAC"/>
</g>
</g>
</g>
<g id="Group">
<g id="Group">
<g id="Vector">
<use xlink:href="#path4_fill" transform="translate(2256 305)" fill="#0D6EAC"/>
</g>
</g>
</g>
<g id="Group">
<g id="Group">
<g id="Vector">
<use xlink:href="#path4_fill" transform="translate(2328 17)" fill="#0D6EAC"/>
</g>
</g>
</g>
<g id="Group">
<g id="Group">
<g id="Vector">
<use xlink:href="#path4_fill" transform="translate(2328 49)" fill="#0D6EAC"/>
</g>
</g>
</g>
<g id="Group">
<g id="Group">
<g id="Vector">
<use xlink:href="#path4_fill" transform="translate(2328 81)" fill="#0D6EAC"/>
</g>
</g>
</g>
<g id="Group">
<g id="Group">
<g id="Vector">
<use xlink:href="#path4_fill" transform="translate(1960 113)" fill="#0D6EAC"/>
</g>
</g>
</g>
<g id="Group">
<g id="Group">
<g id="Vector">
<use xlink:href="#path4_fill" transform="translate(1960 145)" fill="#0D6EAC"/>
</g>
</g>
</g>
<g id="Group">
<g id="Group">
<g id="Vector">
<use xlink:href="#path4_fill" transform="translate(1960 177)" fill="#0D6EAC"/>
</g>
</g>
</g>
</g>
</g>
<defs>
<path id="path0_fill" d="M 24 0C 10.768 0 0 10.768 0 24L 16 24C 16 19.592 19.584 16 24 16C 28.416 16 32 19.592 32 24L 48 24C 48 10.768 37.232 0 24 0Z"/>
<path id="path1_fill" d="M 32 0C 14.352 0 0 14.352 0 32C 0 49.648 14.352 64 32 64C 49.648 64 64 49.648 64 32C 64 14.352 49.648 0 32 0ZM 32 48C 23.176 48 16 40.824 16 32C 16 23.176 23.176 16 32 16C 40.824 16 48 23.176 48 32C 48 40.824 40.824 48 32 48Z"/>
<path id="path2_fill" d="M 432 464L 432 360C 432 293.832 378.168 240 312 240L 303.288 240C 306.136 237.496 308.816 234.824 311.352 232L 320 232C 342.056 232 360 214.056 360 192L 360 177.904C 369.64 171.44 376 160.448 376 148C 376 135.504 369.592 124.496 359.904 118.04C 358.84 52.784 305.512 0 240 0C 174.488 0 121.16 52.784 120.096 118.04C 110.408 124.496 104 135.504 104 148C 104 167.848 120.152 184 140 184L 145.448 184C 149.192 206.168 160.52 225.744 176.72 240L 168 240C 101.832 240 48 293.832 48 360L 48 464L 0 464L 0 480L 56 480L 96 480L 384 480L 424 480L 480 480L 480 464L 432 464ZM 344 192C 344 204.136 334.912 214.088 323.208 215.672C 328.752 206.032 332.64 195.352 334.552 184L 340 184C 341.368 184 342.672 183.744 344 183.592L 344 192ZM 360 148C 360 159.024 351.032 168 340 168L 336 168L 336 128L 340 128C 351.032 128 360 136.976 360 148ZM 144 168L 140 168C 128.968 168 120 159.024 120 148C 120 136.976 128.968 128 140 128L 144 128L 144 168ZM 140 112C 138.76 112 137.592 112.24 136.384 112.368C 140.32 58.584 185.232 16 240 16C 294.768 16 339.68 58.584 343.616 112.368C 342.408 112.24 341.24 112 340 112L 334.552 112C 326.904 66.672 287.472 32 240 32C 192.528 32 153.096 66.672 145.448 112L 140 112ZM 319.992 127.8C 262.256 125.768 224 102.16 224 80C 224 75.584 220.424 72 216 72C 211.576 72 208 75.584 208 80C 208 99.992 187.328 116.56 160.464 119.496C 164.728 79.368 198.768 48 240 48C 284.04 48 319.88 83.784 319.992 127.8ZM 160 168L 160 135.552C 184.984 133.384 206.184 121.336 216.768 104.464C 233.504 126.64 272.616 142.248 320 143.84L 320 168C 320 186.024 313.936 202.608 303.848 216L 240 216L 240 232L 287.792 232C 283.2 235.44 278.248 238.4 272.968 240.8C 251.976 250.336 228.016 250.336 207.016 240.8C 179.336 228.208 160 200.352 160 168ZM 215.272 260.656C 223.176 262.768 231.44 264 240 264C 248.56 264 256.824 262.768 264.728 260.656L 240 310.112L 215.272 260.656ZM 227.056 320L 212.944 320L 180.944 256L 195.056 256L 227.056 320ZM 284.944 256L 299.056 256L 267.056 320L 252.944 320L 284.944 256ZM 88 360L 88 464L 64 464L 64 360C 64 304.28 108.08 258.792 163.176 256.248L 195.056 320L 128 320C 105.944 320 88 337.944 88 360ZM 376 464L 104 464L 104 360C 104 346.768 114.768 336 128 336L 208 336L 240 336L 272 336L 352 336C 365.232 336 376 346.768 376 360L 376 464ZM 416 464L 392 464L 392 360C 392 337.944 374.056 320 352 320L 284.944 320L 316.824 256.248C 371.92 258.792 416 304.28 416 360L 416 464Z"/>
<path id="path3_fill" d="M 16 0L 0 0L 0 56L 16 56L 16 0Z"/>
<path id="path4_fill" d="M 16 0L 0 0L 0 16L 16 16L 16 0Z"/>
</defs>
</svg>
