<svg width="512" height="512" viewBox="0 0 512 512" version="1.1" xmlns="http://www.w3.org/2000/svg" xmlns:xlink="http://www.w3.org/1999/xlink">
<title>005-monitor</title>
<desc>Created using Figma</desc>
<g id="Canvas" transform="translate(8 -17)">
<g id="005-monitor">
<clipPath id="clip-0" clip-rule="evenodd">
<path d="M -8 17L 504 17L 504 529L -8 529L -8 17Z" fill="#FFFFFF"/>
</clipPath>
<g id="Frame" clip-path="url(#clip-0)">
</g>
<g id="Group">
<g id="Group">
<g id="Vector">
<use xlink:href="#path0_fill" transform="translate(56.096 114.362)" fill="#0D6EAC"/>
</g>
</g>
</g>
<g id="Group">
<g id="Group">
<g id="Vector">
<use xlink:href="#path1_fill" transform="translate(-8 44)" fill="#0D6EAC"/>
</g>
</g>
</g>
<g id="Group">
<g id="Group">
<g id="Vector">
<use xlink:href="#path2_fill" transform="translate(239.671 395.213)" fill="#0D6EAC"/>
</g>
</g>
</g>
</g>
</g>
<defs>
<path id="path0_fill" d="M 203.416 -1.64795e-06C 91.252 -1.64795e-06 6.71387e-07 91.252 6.71387e-07 203.416C 6.71387e-07 208.018 3.731 211.748 8.332 211.748L 291.813 211.748C 296.416 211.748 300.145 208.017 300.145 203.416C 300.145 198.815 296.416 195.084 291.813 195.084L 241.959 195.084C 240.671 189.121 238.03 183.66 234.376 179.03L 279.227 134.178L 279.227 142.189C 279.227 146.791 282.956 150.521 287.559 150.521C 292.162 150.521 295.891 146.79 295.891 142.189L 295.891 114.064C 295.891 109.462 292.162 105.732 287.559 105.732L 259.432 105.732C 254.829 105.732 251.1 109.463 251.1 114.064C 251.1 118.666 254.829 122.396 259.432 122.396L 267.443 122.396L 221.469 168.37C 216.054 165.569 209.918 163.976 203.414 163.976C 184.526 163.976 168.705 177.326 164.87 195.084L 53.554 195.084C 57.889 116.181 123.449 53.326 203.417 53.326C 283.385 53.326 348.944 116.181 353.279 195.084L 319.589 195.084C 314.986 195.084 311.257 198.815 311.257 203.416C 311.257 208.017 314.986 211.748 319.589 211.748L 398.501 211.748C 403.104 211.748 406.833 208.017 406.833 203.416C 406.831 91.252 315.58 -1.64795e-06 203.416 -1.64795e-06ZM 203.414 180.641C 213.029 180.641 221.254 186.64 224.589 195.084L 182.241 195.084C 185.574 186.639 193.799 180.641 203.414 180.641ZM 36.87 195.084L 16.848 195.084C 17.65 176.89 21.077 159.367 26.744 142.877L 45.369 150.203C 40.573 164.409 37.643 179.467 36.87 195.084ZM 51.485 134.702L 32.863 127.378C 41.1 108.975 52.225 92.139 65.666 77.452L 79.814 91.599C 68.278 104.339 58.677 118.863 51.485 134.702ZM 91.598 79.815L 77.446 65.664C 90.503 53.713 105.263 43.596 121.309 35.709L 129.302 54.069C 115.553 60.918 102.874 69.604 91.598 79.815ZM 195.084 36.87C 177.386 37.745 160.409 41.401 144.571 47.394L 136.576 29.029C 154.876 21.991 174.555 17.763 195.084 16.857L 195.084 36.87ZM 262.26 47.394C 246.422 41.4 229.446 37.745 211.747 36.87L 211.747 16.857L 211.748 16.857C 232.277 17.762 251.957 21.991 270.256 29.029L 262.26 47.394ZM 277.529 54.068L 285.523 35.708C 301.568 43.596 316.329 53.712 329.386 65.663L 315.234 79.815C 303.957 69.604 291.278 60.918 277.529 54.068ZM 327.017 91.6L 341.164 77.452C 354.605 92.139 365.73 108.975 373.967 127.378L 355.345 134.704C 348.153 118.863 338.553 104.339 327.017 91.6ZM 369.962 195.085L 369.962 195.084C 369.19 179.467 366.259 164.41 361.463 150.203L 380.088 142.877C 385.754 159.368 389.181 176.89 389.984 195.085L 369.962 195.085L 369.962 195.085Z"/>
<path id="path1_fill" d="M 471.246 7.47681e-07L 40.754 7.47681e-07C 18.283 7.47681e-07 0 18.283 0 40.754L 0 99.981C 0 104.583 3.731 108.313 8.332 108.313C 12.933 108.313 16.664 104.582 16.664 99.981L 16.664 40.754C 16.664 27.47 27.471 16.664 40.754 16.664L 471.246 16.664C 484.53 16.664 495.336 27.471 495.336 40.754L 495.336 325.165L 443.126 325.165C 438.524 325.165 434.794 328.896 434.794 333.497C 434.794 338.098 438.525 341.829 443.126 341.829L 495.336 341.829L 495.336 357.102C 495.336 370.386 484.529 381.192 471.246 381.192L 315.836 381.192L 196.164 381.192L 40.754 381.192C 27.47 381.192 16.664 370.385 16.664 357.102L 16.664 341.829L 415.352 341.829C 419.954 341.829 423.684 338.098 423.684 333.497C 423.684 328.896 419.953 325.165 415.352 325.165L 16.664 325.165L 16.664 127.756C 16.664 123.154 12.933 119.424 8.332 119.424C 3.731 119.424 0 123.154 0 127.756L 0 357.104C 0 379.576 18.283 397.858 40.754 397.858L 183.54 397.858L 163.046 445.803L 123.012 445.803C 118.41 445.803 114.68 449.534 114.68 454.135C 114.68 458.736 118.411 462.467 123.012 462.467L 388.987 462.467C 393.589 462.467 397.319 458.736 397.319 454.135C 397.319 449.534 393.588 445.803 388.987 445.803L 348.953 445.803L 328.459 397.858L 471.245 397.858C 493.717 397.858 511.999 379.576 511.999 357.104L 511.999 40.754C 512 18.283 493.717 7.47681e-07 471.246 7.47681e-07ZM 330.83 445.802L 181.17 445.802L 195.408 412.492L 316.593 412.492L 330.83 445.802Z"/>
<path id="path2_fill" d="M 15.2532 3.69995C 13.3392 0.793953 9.6702 -0.599047 6.3012 0.242953C 2.7842 1.12195 0.185196 4.29097 0.0101958 7.91297C -0.353804 15.447 9.11618 19.542 14.3402 14.085C 17.0032 11.303 17.4182 6.90795 15.2532 3.69995Z"/>
</defs>
</svg>
