<svg width="518" height="518" viewBox="0 0 518 518" version="1.1" xmlns="http://www.w3.org/2000/svg" xmlns:xlink="http://www.w3.org/1999/xlink">
<title>007-time-passing</title>
<desc>Created using Figma</desc>
<g id="Canvas" transform="translate(-1268 25)">
<g id="007-time-passing">
<g id="Group">
<g id="Vector">
<use xlink:href="#path0_fill" transform="translate(1268 -25)" fill="#0D6EAC"/>
</g>
<g id="Vector">
<use xlink:href="#path1_fill" transform="translate(1337.09 44.0782)" fill="#0D6EAC"/>
</g>
<g id="Vector">
<use xlink:href="#path2_fill" transform="translate(1518.45 69.9826)" fill="#0D6EAC"/>
</g>
<g id="Vector">
<use xlink:href="#path3_fill" transform="translate(1518.45 363.565)" fill="#0D6EAC"/>
</g>
<g id="Vector">
<use xlink:href="#path4_fill" transform="translate(1656.62 225.409)" fill="#0D6EAC"/>
</g>
<g id="Vector">
<use xlink:href="#path5_fill" transform="translate(1363 225.409)" fill="#0D6EAC"/>
</g>
<g id="Vector">
<use xlink:href="#path6_fill" transform="translate(1423.45 139.061)" fill="#0D6EAC"/>
</g>
<g id="Vector">
<use xlink:href="#path7_fill" transform="translate(1368.96 426.182)" fill="#0D6EAC"/>
</g>
<g id="Vector">
<use xlink:href="#path8_fill" transform="translate(1314.75 370.96)" fill="#0D6EAC"/>
</g>
<g id="Vector">
<use xlink:href="#path9_fill" transform="translate(1330.91 391.203)" fill="#0D6EAC"/>
</g>
<g id="Vector">
<use xlink:href="#path10_fill" transform="translate(1349.03 409.678)" fill="#0D6EAC"/>
</g>
<g id="Vector">
<use xlink:href="#path11_fill" transform="translate(1300.77 349.186)" fill="#0D6EAC"/>
</g>
<g id="Vector">
<use xlink:href="#path12_fill" transform="translate(1768.72 235.073)" fill="#0D6EAC"/>
</g>
<g id="Vector">
<use xlink:href="#path13_fill" transform="translate(1269.33 251.253)" fill="#0D6EAC"/>
</g>
<g id="Vector">
<use xlink:href="#path14_fill" transform="translate(1273.32 276.833)" fill="#0D6EAC"/>
</g>
<g id="Vector">
<use xlink:href="#path15_fill" transform="translate(1289.13 326.06)" fill="#0D6EAC"/>
</g>
<g id="Vector">
<use xlink:href="#path16_fill" transform="translate(1279.92 301.839)" fill="#0D6EAC"/>
</g>
<g id="Vector">
<use xlink:href="#path17_fill" transform="translate(1513.61 475.729)" fill="#0D6EAC"/>
</g>
<g id="Vector">
<use xlink:href="#path18_fill" transform="translate(1716.38 378.675)" fill="#0D6EAC"/>
</g>
<g id="Vector">
<use xlink:href="#path19_fill" transform="translate(1660.07 431.82)" fill="#0D6EAC"/>
</g>
<g id="Vector">
<use xlink:href="#path20_fill" transform="translate(1680.63 416.058)" fill="#0D6EAC"/>
</g>
<g id="Vector">
<use xlink:href="#path21_fill" transform="translate(1731.14 357.44)" fill="#0D6EAC"/>
</g>
<g id="Vector">
<use xlink:href="#path22_fill" transform="translate(1699.45 398.292)" fill="#0D6EAC"/>
</g>
<g id="Vector">
<use xlink:href="#path23_fill" transform="translate(1766.38 260.802)" fill="#0D6EAC"/>
</g>
<g id="Vector">
<use xlink:href="#path24_fill" transform="translate(1761.4 286.203)" fill="#0D6EAC"/>
</g>
<g id="Vector">
<use xlink:href="#path25_fill" transform="translate(1390.49 440.588)" fill="#0D6EAC"/>
</g>
<g id="Vector">
<use xlink:href="#path26_fill" transform="translate(1753.84 310.975)" fill="#0D6EAC"/>
</g>
<g id="Vector">
<use xlink:href="#path27_fill" transform="translate(1743.68 334.804)" fill="#0D6EAC"/>
</g>
<g id="Vector">
<use xlink:href="#path28_fill" transform="translate(1487.81 473.934)" fill="#0D6EAC"/>
</g>
<g id="Vector">
<use xlink:href="#path29_fill" transform="translate(1437.4 462.381)" fill="#0D6EAC"/>
</g>
<g id="Vector">
<use xlink:href="#path30_fill" transform="translate(1462.28 469.474)" fill="#0D6EAC"/>
</g>
<g id="Vector">
<use xlink:href="#path31_fill" transform="translate(1413.41 452.697)" fill="#0D6EAC"/>
</g>
<g id="Vector">
<use xlink:href="#path32_fill" transform="translate(1565.11 471.439)" fill="#0D6EAC"/>
</g>
<g id="Vector">
<use xlink:href="#path33_fill" transform="translate(1590.27 465.342)" fill="#0D6EAC"/>
</g>
<g id="Vector">
<use xlink:href="#path34_fill" transform="translate(1614.69 456.597)" fill="#0D6EAC"/>
</g>
<g id="Vector">
<use xlink:href="#path35_fill" transform="translate(1539.47 474.922)" fill="#0D6EAC"/>
</g>
<g id="Vector">
<use xlink:href="#path36_fill" transform="translate(1638 445.374)" fill="#0D6EAC"/>
</g>
</g>
</g>
</g>
<defs>
<path id="path0_fill" d="M 8.63611 267.678C 13.4032 267.678 17.2722 263.818 17.2722 259.043C 17.2722 125.731 125.75 17.2696 259.083 17.2696C 313.724 17.2696 365.981 35.5321 408.505 69.0782L 362.717 69.0782C 357.949 69.0782 354.08 72.938 354.08 77.713C 354.08 82.488 357.949 86.3478 362.717 86.3478L 431.071 86.3478C 431.641 86.3996 432.177 86.4082 432.738 86.3478L 440.433 86.3478L 440.433 8.63478C 440.433 3.85975 436.564 0 431.797 0C 427.03 0 423.161 3.85975 423.161 8.63478L 423.161 58.8028C 376.906 20.7925 319.372 0 259.083 0C 116.225 0 -9.65152e-10 116.207 -9.65152e-10 259.043C -9.65143e-10 263.818 3.86898 267.678 8.63611 267.678Z"/>
<path id="path1_fill" d="M 189.994 0C 85.2298 0 9.88324e-07 85.2166 9.88324e-07 189.965C 9.88324e-07 294.714 85.2298 379.93 189.994 379.93C 294.759 379.93 379.989 294.714 379.989 189.965C 379.989 85.2166 294.759 0 189.994 0ZM 189.994 362.661C 94.7554 362.661 17.2722 285.19 17.2722 189.965C 17.2722 94.7408 94.7554 17.2696 189.994 17.2696C 285.233 17.2696 362.717 94.7408 362.717 189.965C 362.717 285.19 285.233 362.661 189.994 362.661Z"/>
<path id="path2_fill" d="M 8.6361 34.5391C 13.4032 34.5391 17.2722 30.6794 17.2722 25.9043L 17.2722 8.63478C 17.2722 3.85975 13.4032 0 8.6361 0C 3.86897 0 -7.24771e-06 3.85975 -7.24771e-06 8.63478L -7.24771e-06 25.9043C -7.24771e-06 30.6794 3.86897 34.5391 8.6361 34.5391Z"/>
<path id="path3_fill" d="M 8.6361 0C 3.86897 0 -7.24771e-06 3.85975 -7.24771e-06 8.63478L -7.24771e-06 25.9043C -7.24771e-06 30.6794 3.86897 34.5391 8.6361 34.5391C 13.4032 34.5391 17.2722 30.6794 17.2722 25.9043L 17.2722 8.63478C 17.2722 3.85975 13.4032 0 8.6361 0Z"/>
<path id="path4_fill" d="M 8.63612 17.2696L 25.9083 17.2696C 30.6755 17.2696 34.5444 13.4098 34.5444 8.63478C 34.5444 3.85975 30.6755 0 25.9083 0L 8.63612 0C 3.86899 0 9.22436e-06 3.85975 9.22436e-06 8.63478C 9.22436e-06 13.4098 3.86899 17.2696 8.63612 17.2696Z"/>
<path id="path5_fill" d="M 25.9083 0L 8.63611 0C 3.86898 0 9.88324e-07 3.85975 9.88324e-07 8.63478C 9.88324e-07 13.4098 3.86898 17.2696 8.63611 17.2696L 25.9083 17.2696C 30.6755 17.2696 34.5444 13.4098 34.5444 8.63478C 34.5444 3.85975 30.6755 0 25.9083 0Z"/>
<path id="path6_fill" d="M 112.272 53.0348L 112.272 8.63478C 112.272 3.85975 108.403 0 103.635 0C 98.8683 0 94.9994 3.85975 94.9994 8.63478L 94.9994 53.0348C 80.1452 56.8946 69.091 70.2957 69.091 86.3478C 69.091 92.7375 70.9478 98.6437 73.9877 103.781L 2.53254 175.226C -0.844177 178.602 -0.844177 184.059 2.53254 187.435C 4.21658 189.119 6.42742 189.965 8.63826 189.965C 10.8491 189.965 13.06 189.119 14.744 187.435L 86.1992 115.991C 91.3377 119.03 97.2447 120.887 103.635 120.887C 122.687 120.887 138.18 105.396 138.18 86.3478C 138.18 70.2957 127.126 56.8946 112.272 53.0348ZM 103.635 103.617C 94.1098 103.617 86.3632 95.872 86.3632 86.3478C 86.3632 76.8236 94.1098 69.0782 103.635 69.0782C 113.161 69.0782 120.908 76.8236 120.908 86.3478C 120.908 95.872 113.161 103.617 103.635 103.617Z"/>
<path id="path7_fill" d="M 1.71223 3.52527C -1.13768 7.31594 -0.360431 12.7558 3.52582 15.6053C 4.99396 16.7278 6.80754 17.2459 8.62112 17.2459C 11.2983 17.2459 13.8891 16.1234 15.6164 13.792C 18.3799 10.0014 17.6027 4.56145 13.8028 1.71198C 10.0029 -1.1375 4.57079 -0.360378 1.71223 3.52527Z"/>
<path id="path8_fill" d="M 15.6912 3.5715C 12.9276 -0.219168 7.48685 -1.17763 3.6006 1.59414C -0.285647 4.44361 -1.14926 9.79716 1.6143 13.6742C 3.34152 16.0142 5.93235 17.3008 8.69591 17.3008C 10.4231 17.3008 12.1504 16.7827 13.7049 15.6688C 17.5825 12.8971 18.4547 7.45715 15.6912 3.5715Z"/>
<path id="path9_fill" d="M 2.88643 2.15206C -0.65437 5.33829 -0.999814 10.7868 2.19555 14.3185C 3.83641 16.3045 6.25451 17.2629 8.67262 17.2629C 10.6589 17.2629 12.7316 16.5721 14.3725 15.1042C 17.9133 11.9094 18.2587 6.46945 15.0634 2.92919C 11.963 -0.697417 6.52224 -0.956461 2.88643 2.15206Z"/>
<path id="path10_fill" d="M 14.4846 2.24184C 11.0301 -0.953023 5.50302 -0.693973 2.30766 2.76857C -0.974064 6.3002 -0.714977 11.7488 2.82583 15.03C 4.46669 16.4979 6.53935 17.275 8.61202 17.275C 10.9438 17.275 13.2755 16.3252 15.0027 14.5119C 18.1981 10.9716 18.0254 5.53171 14.4846 2.33684C 14.4846 2.24186 14.4846 2.24184 14.4846 2.24184Z"/>
<path id="path11_fill" d="M 16.1946 4.36248C 16.1083 4.36248 16.1083 4.36248 16.1083 4.36248C 13.7765 0.217787 8.50848 -1.25012 4.36315 1.16762C 0.217818 3.50765 -1.25032 8.76623 1.16779 12.9109C 2.72229 15.6654 5.65857 17.2283 8.6812 17.2283C 10.063 17.2283 11.6175 16.8829 12.9129 16.1058C 17.0582 13.7744 18.5264 8.49854 16.1946 4.36248Z"/>
<path id="path12_fill" d="M 8.29646 17.2759C 8.46919 17.2759 8.55555 17.2759 8.64192 17.2759C 13.3054 17.2759 17.1053 13.5543 17.278 8.98652C 17.4507 4.14241 13.7372 0.170423 8.98737 0.00636224C 4.23751 -0.174968 0.178529 3.54661 0.00580708 8.29574C -0.166915 13.0449 3.53797 17.1032 8.29646 17.2759Z"/>
<path id="path13_fill" d="M 9.55118 17.2433C 14.301 16.7166 17.7555 12.4855 17.2373 7.7364C 16.7191 2.98727 12.4875 -0.466631 7.7376 0.0514553C 2.98774 0.483194 -0.466708 4.80058 0.0514585 9.46337C 0.483264 13.9535 4.28315 17.2346 8.60121 17.2346C 8.94665 17.2433 9.20573 17.2433 9.55118 17.2433Z"/>
<path id="path14_fill" d="M 10.3944 17.0498C 15.0579 16.1 18.0805 11.5235 17.0442 6.86076C 16.0942 2.19797 11.5171 -0.832832 6.85359 0.203342C 2.19009 1.15317 -0.832545 5.73823 0.203788 10.401C 0.981038 14.4594 4.6082 17.2225 8.58081 17.2225C 9.17671 17.2225 9.78987 17.2225 10.3944 17.0498Z"/>
<path id="path15_fill" d="M 16.5253 5.12483C 14.6253 0.807437 9.53003 -1.17855 5.12562 0.721104C 0.807562 2.62076 -1.17874 7.71524 0.721202 12.1103C 2.18934 15.3052 5.29834 17.2999 8.66642 17.2999C 9.78912 17.2999 10.9982 17.0408 12.1209 16.5141C 16.4303 14.6231 18.4166 9.52856 16.5253 5.12483Z"/>
<path id="path16_fill" d="M 16.8284 6.03233C 15.4466 1.45589 10.524 -1.04817 6.03326 0.419739C 1.45612 1.88765 -1.04835 6.72311 0.41979 11.3082C 1.62885 14.9348 4.99693 17.2575 8.62409 17.2575C 9.48771 17.2575 10.4377 17.1712 11.3013 16.9122C 15.8007 15.4443 18.3052 10.5138 16.8284 6.03233Z"/>
<path id="path17_fill" d="M 8.81028 0.00175352C 4.06042 -0.093229 0.0878019 3.71471 0.00144077 8.4552C -0.0849203 13.2993 3.71496 17.1763 8.46482 17.2713C 8.55119 17.2713 8.63755 17.2713 8.63755 17.2713C 13.3874 17.2713 17.1873 13.5497 17.2737 8.8092C 17.3514 4.06007 13.5601 0.0881013 8.81028 0.00175352Z"/>
<path id="path18_fill" d="M 1.82499 3.36899C -1.11129 7.08194 -0.420381 12.5305 3.29315 15.4577C 4.93401 16.6666 6.74758 17.271 8.64752 17.271C 11.152 17.271 13.7428 16.1485 15.4701 13.8948C 18.4063 10.1818 17.7154 4.74192 13.9156 1.81473C 10.1157 -1.11246 4.76127 -0.430315 1.82499 3.36899Z"/>
<path id="path19_fill" d="M 3.71553 1.51368C -0.170721 4.19046 -1.20705 9.62173 1.5565 13.516C 3.19736 15.9338 5.87455 17.229 8.63811 17.229C 10.3653 17.229 12.0062 16.7972 13.5607 15.761C 17.4469 13.0843 18.4833 7.65299 15.7197 3.75871C 13.0425 -0.21329 7.69677 -1.1631 3.71553 1.51368Z"/>
<path id="path20_fill" d="M 3.02756 2.0701C -0.599606 5.17862 -1.03138 10.6185 2.07762 14.2451C 3.80484 16.2311 6.22293 17.276 8.64104 17.276C 10.6273 17.276 12.6137 16.5852 14.2545 15.2036C 17.8817 12.0951 18.3135 6.65516 15.2045 3.02856C 12.0868 -0.598049 6.65473 -1.02979 3.02756 2.0701Z"/>
<path id="path21_fill" d="M 13.2199 1.28124C 9.1609 -1.22285 3.8065 0.0723664 1.30203 4.04436C -1.20244 8.10271 0.00661148 13.4563 4.06558 15.9604C 5.53372 16.8325 7.08821 17.2556 8.64271 17.2556C 11.4926 17.2556 14.3426 15.874 15.9834 13.1886C 18.4965 9.14754 17.2875 3.78532 13.2199 1.28124Z"/>
<path id="path22_fill" d="M 2.43146 2.66136C -0.936625 6.10664 -0.76388 11.5465 2.69056 14.8364C 4.33142 16.4684 6.49044 17.2455 8.64947 17.2455C 10.8949 17.2455 13.2266 16.382 14.8675 14.5687C 18.1492 11.1148 18.0628 5.67488 14.6084 2.39366C 11.1539 -0.887553 5.70454 -0.792553 2.43146 2.66136Z"/>
<path id="path23_fill" d="M 9.85064 0.0879081C 5.18714 -0.594239 0.782715 2.77331 0.0918259 7.43609C -0.599063 12.1852 2.68268 16.5026 7.43254 17.1934C 7.86434 17.2797 8.29614 17.2797 8.64159 17.2797C 12.8733 17.2797 16.5868 14.1799 17.1913 9.86248C 17.8908 5.19106 14.6091 0.77869 9.85064 0.0879081Z"/>
<path id="path24_fill" d="M 10.7807 0.244675C 6.11725 -0.877846 1.45377 1.97163 0.244718 6.54806C -0.877976 11.2108 1.97194 15.8736 6.54907 17.0825C 7.23996 17.2638 7.93083 17.3415 8.62172 17.3415C 12.508 17.3415 16.0488 14.6648 16.9988 10.7791C 18.2078 6.12497 15.3492 1.46218 10.7807 0.244675Z"/>
<path id="path25_fill" d="M 13.0858 1.20823C 8.94047 -1.20087 3.67244 0.0856894 1.25433 4.23902C -1.25014 8.29736 0.131635 13.6509 4.19061 16.0687C 5.57238 16.9321 7.12689 17.2776 8.59502 17.2776C 11.5313 17.2776 14.3812 15.8096 16.0221 13.0465C 18.5266 8.97952 17.1534 3.71231 13.0858 1.20823Z"/>
<path id="path26_fill" d="M 11.5904 0.522017C 7.09962 -1.10996 2.09069 1.21279 0.536191 5.70287C -1.10467 10.2016 1.14072 15.1234 5.6315 16.7554C 6.58147 17.1008 7.6178 17.2821 8.56777 17.2821C 12.1086 17.2821 15.4767 15.1234 16.6857 11.5832C 18.3352 7.0758 16.0812 2.16262 11.5904 0.522017Z"/>
<path id="path27_fill" d="M 12.4316 0.870279C 8.19996 -1.19343 2.93193 0.52488 0.859263 4.84227C -1.2134 9.15966 0.600171 14.3492 4.83186 16.4129C 6.04092 17.0173 7.33632 17.285 8.63174 17.285C 11.8271 17.285 14.9361 15.4717 16.4043 12.4409C 18.4769 8.11486 16.7497 2.94263 12.4316 0.870279Z"/>
<path id="path28_fill" d="M 9.65627 0.0703239C 4.90641 -0.534111 0.67471 2.82481 0.0701823 7.58257C -0.534345 12.3317 2.83373 16.6491 7.58359 17.1586L 7.58359 17.2535C 7.92903 17.2535 8.27448 17.2535 8.61993 17.2535C 12.938 17.2535 16.6515 14.0586 17.1697 9.64627C 17.7742 4.90578 14.3975 0.666124 9.65627 0.0703239Z"/>
<path id="path29_fill" d="M 11.4394 0.483703C 6.94862 -1.07919 2.02604 1.26082 0.471539 5.83726C -1.08296 10.3273 1.33516 15.2492 5.82593 16.8034C 6.77591 17.0625 7.72588 17.2352 8.67585 17.2352C 12.2167 17.2352 15.5847 14.9901 16.7938 11.4499C 18.3483 6.87344 15.9302 1.95162 11.4394 0.483703Z"/>
<path id="path30_fill" d="M 10.5716 0.212437C 5.90809 -0.823736 1.33095 2.02574 0.208254 6.68852C -0.828079 11.3513 2.1082 16.0141 6.68534 17.0503C 7.37622 17.223 7.98075 17.2229 8.67164 17.2229C 12.5579 17.2229 16.1851 14.5462 17.0487 10.5742C 18.1627 5.9114 15.2351 1.24861 10.5716 0.212437Z"/>
<path id="path31_fill" d="M 12.2896 0.842463C 7.88515 -1.22988 2.78985 0.661133 0.803545 4.97852C -1.18276 9.29591 0.630836 14.4854 4.94889 16.4628C 6.15795 16.9895 7.36699 17.2399 8.57604 17.2399C 11.8578 17.2399 14.9668 15.4266 16.4349 12.2404C 18.4212 7.92301 16.6076 2.81983 12.2896 0.842463Z"/>
<path id="path32_fill" d="M 7.05295 0.147006C 2.38945 1.01048 -0.719541 5.58693 0.14407 10.2497C 0.92132 14.3944 4.63486 17.2525 8.69383 17.2525C 9.212 17.2525 9.73017 17.2525 10.2483 17.1575C 14.9118 16.2163 18.0208 11.7176 17.1572 7.05486C 16.2936 2.30573 11.7164 -0.716472 7.05295 0.147006Z"/>
<path id="path33_fill" d="M 6.15785 0.372142C 1.58071 1.65872 -1.0101 6.50282 0.371674 11.0706C 1.49437 14.7922 4.9488 17.2099 8.66233 17.2099C 9.43958 17.2099 10.3032 17.115 11.1668 16.8646C 15.7439 15.483 18.3348 10.6389 16.953 6.07109C 15.5626 1.58101 10.735 -1.00942 6.15785 0.372142Z"/>
<path id="path34_fill" d="M 5.31952 0.655915C 0.915107 2.46922 -1.15757 7.56375 0.656016 11.9761C 2.03779 15.2573 5.23317 17.2347 8.60125 17.2347C 9.72395 17.2347 10.8466 17.062 11.9693 16.6389C 16.3737 14.7306 18.4464 9.72244 16.6328 5.3187C 14.7243 0.914966 9.72394 -1.15739 5.31952 0.655915Z"/>
<path id="path35_fill" d="M 7.89452 0.0232013C 3.14466 0.463575 -0.396145 4.59965 0.0356603 9.34878C 0.381105 13.8475 4.18099 17.2928 8.67177 17.2928C 8.84449 17.2928 9.10356 17.2928 9.36264 17.2928L 9.36264 17.2064C 14.1125 16.861 17.6533 12.7163 17.2215 7.96722C 16.8761 3.22672 12.653 -0.32219 7.89452 0.0232013Z"/>
<path id="path36_fill" d="M 4.5389 1.08428C 0.307211 3.32932 -1.2473 8.59655 1.08445 12.7499C 2.63895 15.6857 5.57523 17.3177 8.68423 17.3177C 10.066 17.3177 11.4478 16.9723 12.7432 16.1951C 16.9749 13.9501 18.5294 8.68289 16.1976 4.5382C 13.9609 0.307159 8.68424 -1.24711 4.5389 1.08428Z"/>
</defs>
</svg>
