<svg width="533" height="533" viewBox="0 0 533 533" version="1.1" xmlns="http://www.w3.org/2000/svg" xmlns:xlink="http://www.w3.org/1999/xlink">
<title>014-diploma</title>
<desc>Created using Figma</desc>
<g id="Canvas" transform="translate(-622 -22)">
<g id="014-diploma">
<clipPath id="clip-0" clip-rule="evenodd">
<path d="M 622 22L 1155 22L 1155 555L 622 555L 622 22Z" fill="#FFFFFF"/>
</clipPath>
<g id="Frame" clip-path="url(#clip-0)">
<g id="Group">
<g id="Group">
<g id="Group">
<g id="Vector">
<use xlink:href="#path0_fill" transform="translate(940.134 203.471)" fill="#0D6EAC"/>
</g>
<g id="Vector">
<use xlink:href="#path1_fill" transform="translate(991.334 254.671)" fill="#0D6EAC"/>
</g>
<g id="Vector">
<use xlink:href="#path2_fill" transform="translate(957.2 152.271)" fill="#0D6EAC"/>
</g>
<g id="Vector">
<use xlink:href="#path3_fill" transform="translate(871.867 254.67)" fill="#0D6EAC"/>
</g>
<g id="Vector">
<use xlink:href="#path4_fill" transform="translate(684.134 66.937)" fill="#0D6EAC"/>
</g>
<g id="Vector">
<use xlink:href="#path5_fill" transform="translate(786.534 203.471)" fill="#0D6EAC"/>
</g>
<g id="Vector">
<use xlink:href="#path6_fill" transform="translate(786.534 152.271)" fill="#0D6EAC"/>
</g>
<g id="Vector">
<use xlink:href="#path7_fill" transform="translate(854.8 152.27)" fill="#0D6EAC"/>
</g>
<g id="Vector">
<use xlink:href="#path8_fill" transform="translate(650 33)" fill="#0D6EAC"/>
</g>
<g id="Vector">
<use xlink:href="#path9_fill" transform="translate(974.267 374.137)" fill="#0D6EAC"/>
</g>
<g id="Vector">
<use xlink:href="#path10_fill" transform="translate(942.417 466.36)" fill="#0D6EAC"/>
</g>
<g id="Vector">
<use xlink:href="#path11_fill" transform="translate(1036.7 466.761)" fill="#0D6EAC"/>
</g>
<g id="Vector">
<use xlink:href="#path12_fill" transform="translate(786.534 254.671)" fill="#0D6EAC"/>
</g>
<g id="Vector">
<use xlink:href="#path13_fill" transform="translate(786.534 305.871)" fill="#0D6EAC"/>
</g>
<g id="Vector">
<use xlink:href="#path14_fill" transform="translate(786.208 357.071)" fill="#0D6EAC"/>
</g>
<g id="Vector">
<use xlink:href="#path15_fill" transform="translate(923.068 305.871)" fill="#0D6EAC"/>
</g>
</g>
</g>
</g>
</g>
</g>
</g>
<defs>
<path id="path0_fill" d="M -8.05664e-06 8.533C -8.05664e-06 13.243 3.81401 17.066 8.53301 17.066L 93.866 17.066C 98.585 17.066 102.399 13.243 102.399 8.533C 102.399 3.823 98.585 -6.76187e-06 93.866 -6.76187e-06L 8.53301 -6.76187e-06C 3.81401 -0.00100676 -8.05664e-06 3.822 -8.05664e-06 8.533Z"/>
<path id="path1_fill" d="M 4.15039e-06 8.533C 4.15039e-06 13.243 3.81399 17.066 8.53299 17.066L 59.733 17.066C 64.452 17.066 68.266 13.243 68.266 8.533C 68.266 3.823 64.452 5.44516e-06 59.733 5.44516e-06L 8.53299 5.44516e-06C 3.81399 -0.000994555 4.15039e-06 3.822 4.15039e-06 8.533Z"/>
<path id="path2_fill" d="M 25.6 17.066C 30.319 17.066 34.133 13.243 34.133 8.533C 34.133 3.823 30.319 3.72314e-06 25.6 3.72314e-06L 8.53299 3.72314e-06C 3.81399 3.72314e-06 1.46484e-06 3.823 1.46484e-06 8.533C 1.46484e-06 13.243 3.81399 17.066 8.53299 17.066L 25.6 17.066Z"/>
<path id="path3_fill" d="M 8.533 -1.83105e-06C 3.814 -1.83105e-06 -6.34766e-06 3.823 -6.34766e-06 8.533C -6.34766e-06 13.243 3.814 17.066 8.533 17.066L 93.866 17.066C 98.585 17.066 102.399 13.243 102.399 8.533C 102.399 3.823 98.585 -1.83105e-06 93.866 -1.83105e-06L 8.533 -1.83105e-06Z"/>
<path id="path4_fill" d="M 238.933 426.667L 76.8 426.667C 62.686 426.667 51.2 415.181 51.2 401.067L 51.2 8.533C 51.2 3.823 47.386 2.74658e-07 42.667 2.74658e-07C 19.141 2.74658e-07 -4.27246e-07 19.14 -4.27246e-07 42.667C -4.27246e-07 47.377 3.814 51.2 8.533 51.2C 13.252 51.2 17.066 47.377 17.066 42.667C 17.066 31.539 24.2 22.05 34.133 18.526L 34.133 401.067C 34.133 424.593 53.273 443.734 76.8 443.734L 238.933 443.734C 243.652 443.734 247.466 439.911 247.466 435.201C 247.466 430.491 243.652 426.667 238.933 426.667Z"/>
<path id="path5_fill" d="M 8.53301 17.066L 128 17.066C 132.719 17.066 136.533 13.243 136.533 8.533C 136.533 3.823 132.719 -6.95801e-06 128 -6.95801e-06L 8.53301 -6.95801e-06C 3.81401 -6.95801e-06 1.09863e-06 3.823 1.09863e-06 8.533C 1.09863e-06 13.243 3.81401 17.066 8.53301 17.066Z"/>
<path id="path6_fill" d="M 8.53301 17.066L 42.666 17.066C 47.385 17.066 51.199 13.243 51.199 8.533C 51.199 3.823 47.385 3.72314e-06 42.666 3.72314e-06L 8.53301 3.72314e-06C 3.81401 3.72314e-06 1.09863e-06 3.823 1.09863e-06 8.533C 1.09863e-06 13.243 3.81401 17.066 8.53301 17.066Z"/>
<path id="path7_fill" d="M 76.8 -3.35693e-06L 8.533 -3.35693e-06C 3.814 -3.35693e-06 7.56836e-06 3.823 7.56836e-06 8.533C 7.56836e-06 13.243 3.814 17.066 8.533 17.066L 76.8 17.066C 81.519 17.066 85.333 13.243 85.333 8.533C 85.334 3.823 81.519 -3.35693e-06 76.8 -3.35693e-06Z"/>
<path id="path8_fill" d="M 401.067 0L 76.8 0C 34.551 0 0.162001 34.295 7.01904e-07 76.501L 7.01904e-07 76.603L 7.01904e-07 76.697L 7.01904e-07 76.8L 7.01904e-07 76.902C 0.111001 104.115 14.797 129.467 38.391 143.121C 42.47 145.476 47.684 144.085 50.047 140.015C 52.419 135.936 51.011 130.714 46.941 128.358C 28.544 117.7 17.101 97.92 17.067 76.698C 17.127 43.81 43.896 17.067 76.8 17.067L 401.067 17.067C 433.997 17.067 460.8 43.862 460.8 76.8L 460.8 435.2C 460.8 439.526 459.588 443.87 457.31 447.744C 454.929 451.806 456.277 457.037 460.339 459.426C 461.704 460.228 463.189 460.604 464.657 460.604C 467.584 460.604 470.434 459.102 472.021 456.397C 475.844 449.903 477.866 442.573 477.866 435.2L 477.866 76.8C 477.867 34.449 443.418 0 401.067 0Z"/>
<path id="path9_fill" d="M 102.4 51.2C 102.4 22.963 79.437 -6.5918e-06 51.2 -6.5918e-06C 22.963 -6.5918e-06 -1.24512e-05 22.963 -1.24512e-05 51.2C -1.24512e-05 79.437 22.963 102.4 51.2 102.4C 79.437 102.4 102.4 79.437 102.4 51.2ZM 51.2 85.333C 32.375 85.333 17.067 70.024 17.067 51.2C 17.067 32.376 32.376 17.067 51.2 17.067C 70.025 17.067 85.333 32.376 85.333 51.2C 85.333 70.024 70.025 85.333 51.2 85.333Z"/>
<path id="path10_fill" d="M 67.647 18.7194C 63.577 16.3644 58.354 17.7634 55.99 21.8424L 37.618 53.6804L 34.7 49.2774C 33.224 47.0334 30.775 45.6164 28.095 45.4634L 22.821 45.1474L 41.501 12.8064C 43.856 8.72735 42.457 3.50537 38.378 1.14937C 34.299 -1.21463 29.077 0.185356 26.713 4.27236L 1.13898 48.5694C -0.33702 51.1294 -0.380015 54.2784 1.01899 56.8804C 2.41799 59.4824 5.064 61.1814 8.025 61.3514L 22.813 62.2384L 30.979 74.6034C 32.558 77.0014 35.237 78.4344 38.096 78.4344L 38.361 78.4344C 41.305 78.3404 44.01 76.7274 45.495 74.1674L 70.779 30.3744C 73.134 26.2974 71.735 21.0744 67.647 18.7194Z"/>
<path id="path11_fill" d="M 45.3286 4.27236C 42.9646 0.185357 37.7336 -1.21463 33.6716 1.14937C 29.5846 3.50437 28.1846 8.72738 30.5396 12.8054L 48.9976 44.7454L 43.7236 45.0614C 41.0446 45.2234 38.5956 46.6404 37.1106 48.8754L 34.2096 53.2784L 15.9316 21.6024C 13.5596 17.5234 8.33663 16.1244 4.26663 18.4794C 0.187631 20.8344 -1.21139 26.0574 1.14361 30.1364L 26.3336 73.7674C 27.8186 76.3274 30.5236 77.9404 33.4676 78.0344L 33.7326 78.0344C 36.5826 78.0344 39.2706 76.6004 40.8576 74.2034L 49.0156 61.8474L 63.7956 60.9514C 66.7566 60.7804 69.4016 59.0824 70.8016 56.4804C 72.2016 53.8784 72.1496 50.7294 70.6826 48.1694L 45.3286 4.27236Z"/>
<path id="path12_fill" d="M 8.53301 17.066L 59.733 17.066C 64.452 17.066 68.266 13.243 68.266 8.533C 68.266 3.823 64.452 5.24902e-06 59.733 5.24902e-06L 8.53301 5.24902e-06C 3.81401 5.24902e-06 1.09863e-06 3.823 1.09863e-06 8.533C 1.09863e-06 13.243 3.81401 17.066 8.53301 17.066Z"/>
<path id="path13_fill" d="M 8.53301 17.066L 110.933 17.066C 115.652 17.066 119.466 13.243 119.466 8.53299C 119.466 3.82299 115.652 2.19727e-06 110.933 2.19727e-06L 8.53301 2.19727e-06C 3.81401 2.19727e-06 1.09863e-06 3.82299 1.09863e-06 8.53299C 1.09863e-06 13.243 3.81401 17.066 8.53301 17.066Z"/>
<path id="path14_fill" d="M 9.76275 72.08C 11.8617 76.295 16.9908 78.002 21.2058 75.903C 25.4208 73.795 27.1368 68.667 25.0198 64.451C 16.5718 47.555 14.6778 32.4 19.9338 23.892C 22.7328 19.361 27.6138 17.065 34.4578 17.065C 38.5278 17.065 40.0468 18.464 41.0028 19.83C 47.3598 28.995 41.3188 56.907 34.9958 73.803C 33.5878 77.566 34.9957 81.799 38.3747 83.975C 41.7367 86.134 46.1828 85.665 49.0248 82.832C 52.6688 79.197 56.6198 75.57 60.0588 72.626L 60.0588 76.799C 60.0588 80.246 62.1328 83.361 65.3238 84.675C 68.5148 86.006 72.1757 85.272 74.6247 82.832C 78.5247 78.941 83.0467 75.126 86.8527 72.379C 86.7507 72.592 86.6478 72.797 86.5458 72.993C 85.2398 75.638 85.3847 78.779 86.9387 81.287C 88.5007 83.796 91.2397 85.332 94.1917 85.332L 128.325 85.332C 133.044 85.332 136.858 81.509 136.858 76.799C 136.858 72.089 133.044 68.266 128.325 68.266L 106.113 68.266C 106.804 64.204 106.634 60.074 104.577 56.746C 102.401 53.222 98.6117 51.199 94.1917 51.199C 88.9177 51.199 82.7147 54.407 77.0487 58.384C 76.6137 54.663 74.4117 51.6 71.0667 50.218C 68.7887 49.279 65.8527 48.051 58.7277 52.326C 61.5347 37.623 62.3548 20.676 55.0328 10.112C 51.8328 5.49501 45.6717 1.44043e-05 34.4587 1.44043e-05C 21.6757 1.44043e-05 11.3588 5.299 5.41175 14.925C -3.09625 28.697 -1.51825 49.527 9.76275 72.08Z"/>
<path id="path15_fill" d="M 102.399 8.53299C 102.399 3.82299 98.585 2.19727e-06 93.866 2.19727e-06L 8.533 2.19727e-06C 3.814 2.19727e-06 1.29395e-05 3.82299 1.29395e-05 8.53299C 1.29395e-05 13.243 3.814 17.066 8.533 17.066L 93.866 17.066C 98.585 17.066 102.399 13.243 102.399 8.53299Z"/>
</defs>
</svg>
