<svg width="300" height="300" viewBox="0 0 300 300" fill="none" xmlns="http://www.w3.org/2000/svg">
<path d="M183.237 -2.85337e-07H14.1903C6.36547 -2.85337e-07 0 6.36435 0 14.1873V115.588C0 123.411 6.36547 129.776 14.1903 129.776H25.1518V167.525C25.1518 169.928 26.5998 172.096 28.8216 173.016C29.5569 173.321 30.3296 173.469 31.0955 173.469C32.6429 173.469 34.1628 172.865 35.3002 171.728L77.2598 129.776H85.6782C88.9616 129.776 91.6229 127.115 91.6229 123.833C91.6229 120.549 88.9606 117.888 85.6782 117.888C85.6782 117.888 74.5104 117.896 74.3938 117.908C73.0098 118.002 71.6513 118.572 70.5931 119.63L37.0411 153.176C37.0411 153.176 37.0308 123.457 37.0116 123.303C36.7433 120.268 34.1977 117.888 31.0935 117.888H14.1903C12.9214 117.888 11.8898 116.857 11.8898 115.588V14.1873C11.8898 12.9187 12.9219 11.8872 14.1903 11.8872H183.237C184.506 11.8872 185.537 12.9192 185.537 14.1873V53.0904C185.537 56.3732 188.2 59.034 191.482 59.034C194.764 59.034 197.427 56.3732 197.427 53.0904V14.1873C197.427 6.36435 191.061 -2.85337e-07 183.237 -2.85337e-07Z" transform="translate(24 25)" fill="#4F4F4F"/>
<path d="M132.52 2.16256e-06H14.1903C6.36596 2.16256e-06 2.04277e-06 6.36435 2.04277e-06 14.1878V83.3626C2.04277e-06 91.1855 6.36547 97.5504 14.1903 97.5504H88.2715L118.285 127.559C119.423 128.696 120.943 129.3 122.49 129.3C123.256 129.3 124.029 129.152 124.764 128.847C126.985 127.927 128.434 125.76 128.434 123.356V97.5499H132.519C140.344 97.5499 146.71 91.1855 146.71 83.3621V14.1873C146.71 6.36436 140.345 2.16256e-06 132.52 2.16256e-06ZM134.821 83.3626C134.821 84.6307 133.789 85.6626 132.52 85.6626H122.491C119.363 85.6626 116.805 88.0799 116.57 91.1481C116.555 91.278 116.545 109.006 116.545 109.006L94.9604 87.4254C94.9377 87.4027 94.9141 87.3816 94.8915 87.3589C94.8068 87.2763 94.7266 87.2044 94.6508 87.1399C93.6044 86.2227 92.2376 85.6622 90.7374 85.6622H14.1903C12.9214 85.6622 11.8898 84.6302 11.8898 83.3621V14.1873C11.8898 12.9187 12.9219 11.8872 14.1903 11.8872H132.52C133.789 11.8872 134.821 12.9192 134.821 14.1873V83.3626V83.3626Z" transform="translate(129.291 97.7002)" fill="#4F4F4F"/>
<path d="M114.138 -3.7244e-06H5.94465C2.66176 -3.7244e-06 -6.90938e-07 2.66079 -6.90938e-07 5.94361C-6.90938e-07 9.22642 2.66225 11.8872 5.94465 11.8872H114.138C117.421 11.8872 120.083 9.22642 120.083 5.94361C120.083 2.66079 117.421 -3.7244e-06 114.138 -3.7244e-06Z" transform="translate(62.6724 64.2958)" fill="#4F4F4F"/>
<path d="M47.0055 -1.80213e-06H5.94465C2.66176 -1.80213e-06 -6.90938e-07 2.66079 -6.90938e-07 5.94361C-6.90938e-07 9.22642 2.66225 11.8872 5.94465 11.8872H47.0055C50.2889 11.8872 52.9501 9.22642 52.9501 5.94361C52.9501 2.66079 50.2884 -1.80213e-06 47.0055 -1.80213e-06Z" transform="translate(62.6724 103.592)" fill="#4F4F4F"/>
<path d="M5.94466 -6.0071e-07C2.66373 -6.0071e-07 1.3218e-06 2.66276 1.3218e-06 5.94361C1.3218e-06 9.22445 2.66373 11.8872 5.94466 11.8872C9.22657 11.8872 11.8893 9.22445 11.8893 5.94361C11.8893 2.66276 9.22657 -6.0071e-07 5.94466 -6.0071e-07Z" transform="translate(169.077 144)" fill="#0D6EAC"/>
<path d="M5.94466 -6.0071e-07C2.66324 -6.0071e-07 3.48473e-06 2.66276 3.48473e-06 5.94361C3.48473e-06 9.22445 2.66324 11.8872 5.94466 11.8872C9.22657 11.8872 11.8893 9.22445 11.8893 5.94361C11.8893 2.66276 9.22608 -6.0071e-07 5.94466 -6.0071e-07Z" transform="translate(224.321 144)" fill="#0D6EAC"/>
<path d="M5.94465 -6.0071e-07C2.66323 -6.0071e-07 -6.72914e-06 2.66276 -6.72914e-06 5.94361C-6.72914e-06 9.22445 2.66323 11.8872 5.94465 11.8872C9.22656 11.8872 11.8893 9.22445 11.8893 5.94361C11.8893 2.66276 9.22607 -6.0071e-07 5.94465 -6.0071e-07Z" transform="translate(196.702 144)" fill="#0D6EAC"/>
<path d="M0 55.4735C0 87.5285 25.9407 113.474 58 113.474C90.055 113.474 116 87.5328 116 55.4735C116 47.4928 114.392 39.8907 111.482 32.9735C109.088 30.4105 107.778 29.8642 105.5 30.4735C103.695 31.695 103.092 32.8588 102.905 35.9735C105.499 41.9467 106.938 48.5405 106.938 55.4735C106.938 82.5199 85.05 104.411 58 104.411C30.9536 104.411 9.0625 82.5235 9.0625 55.4735C9.0625 33.6601 23.2998 15.2 43 8.87328C45.1586 7.24989 46.1169 6.12318 46.5 2.97354C45.143 0.888609 44.0421 0.116914 41 0C17.2515 7.25773 0 29.3314 0 55.4735Z" transform="translate(71 171.526)" fill="#4F4F4F"/>
<path d="M5.66406 11.3281C8.79224 11.3281 11.3281 8.79224 11.3281 5.66406C11.3281 2.53589 8.79224 0 5.66406 0C2.53589 0 0 2.53589 0 5.66406C0 8.79224 2.53589 11.3281 5.66406 11.3281Z" transform="translate(123.336 249.09)" fill="#0D6EAC"/>
<path d="M18.125 0C8.13088 0 0 8.13088 0 18.125C0 20.6276 2.02864 22.6562 4.53125 22.6562C7.03386 22.6562 9.0625 20.6276 9.0625 18.125C9.0625 13.1279 13.1279 9.0625 18.125 9.0625C23.1221 9.0625 27.1875 13.1279 27.1875 18.125C27.1875 23.1221 23.1221 27.1875 18.125 27.1875C15.6224 27.1875 13.5938 29.2161 13.5938 31.7188V43.0469C13.5938 45.5495 15.6224 47.5781 18.125 47.5781C20.6276 47.5781 22.6562 45.5495 22.6562 43.0469V35.6766C30.465 33.6595 36.25 26.5552 36.25 18.125C36.25 8.13088 28.1191 0 18.125 0Z" transform="translate(110.875 198.113)" fill="#0D6EAC"/>
</svg>
