<svg width="300" height="300" viewBox="0 0 300 300" fill="none" xmlns="http://www.w3.org/2000/svg">
<path d="M-4.04631e-06 4.28488C-4.04631e-06 6.65002 1.91552 8.56976 4.28556 8.56976H47.1426C49.5126 8.56976 51.4282 6.65002 51.4282 4.28488C51.4282 1.91973 49.5126 -3.3955e-06 47.1426 -3.3955e-06H4.28556C1.91552 -0.00050555 -4.04631e-06 1.91923 -4.04631e-06 4.28488Z" transform="translate(170.715 106.603)" fill="#4F4F4F"/>
<path d="M2.08446e-06 4.28488C2.08446e-06 6.65002 1.91551 8.56976 4.28555 8.56976H29.9999C32.3699 8.56976 34.2854 6.65002 34.2854 4.28488C34.2854 1.91973 32.3699 2.73431e-06 29.9999 2.73431e-06H4.28555C1.91551 -0.00049942 2.08446e-06 1.91923 2.08446e-06 4.28488Z" transform="translate(196.429 132.313)" fill="#4F4F4F"/>
<path d="M12.8572 8.56976C15.2272 8.56976 17.1427 6.65003 17.1427 4.28488C17.1427 1.91974 15.2272 1.86959e-06 12.8572 1.86959e-06H4.28555C1.91551 1.86959e-06 7.35693e-07 1.91974 7.35693e-07 4.28488C7.35693e-07 6.65003 1.91551 8.56976 4.28555 8.56976H12.8572Z" transform="translate(179.286 80.8925)" fill="#4F4F4F"/>
<path d="M4.28555 -9.19471e-07C1.91552 -9.19471e-07 -3.188e-06 1.91974 -3.188e-06 4.28488C-3.188e-06 6.65003 1.91552 8.56976 4.28555 8.56976H47.1426C49.5126 8.56976 51.4282 6.65003 51.4282 4.28488C51.4282 1.91974 49.5126 -9.19471e-07 47.1426 -9.19471e-07H4.28555Z" transform="translate(136.429 132.312)" fill="#4F4F4F"/>
<path d="M120 214.253H38.5715C31.483 214.253 25.7143 208.485 25.7143 201.397V4.28488C25.7143 1.91974 23.7988 1.37921e-07 21.4288 1.37921e-07C9.61324 1.37921e-07 -2.14577e-07 9.61123 -2.14577e-07 21.4254C-2.14577e-07 23.7905 1.91552 25.7103 4.28555 25.7103C6.65559 25.7103 8.57111 23.7905 8.57111 21.4254C8.57111 15.8374 12.154 11.0725 17.1427 9.30291V201.397C17.1427 213.211 26.7555 222.823 38.5715 222.823H120C122.37 222.823 124.286 220.903 124.286 218.538C124.286 216.173 122.37 214.253 120 214.253Z" transform="translate(42.1432 38.0416)" fill="#4F4F4F"/>
<path d="M4.28556 8.56976H64.2858C66.6558 8.56976 68.5714 6.65002 68.5714 4.28488C68.5714 1.91973 66.6558 -3.49399e-06 64.2858 -3.49399e-06H4.28556C1.91552 -3.49399e-06 5.51769e-07 1.91973 5.51769e-07 4.28488C5.51769e-07 6.65002 1.91552 8.56976 4.28556 8.56976Z" transform="translate(93.5718 106.603)" fill="#4F4F4F"/>
<path d="M4.28556 8.56976H21.4283C23.7983 8.56976 25.7138 6.65003 25.7138 4.28488C25.7138 1.91974 23.7983 1.86959e-06 21.4283 1.86959e-06H4.28556C1.91552 1.86959e-06 5.51769e-07 1.91974 5.51769e-07 4.28488C5.51769e-07 6.65003 1.91552 8.56976 4.28556 8.56976Z" transform="translate(93.5718 80.8925)" fill="#4F4F4F"/>
<path d="M38.5715 -1.6857e-06H4.28555C1.91551 -1.6857e-06 3.80108e-06 1.91974 3.80108e-06 4.28488C3.80108e-06 6.65003 1.91551 8.56976 4.28555 8.56976H38.5715C40.9415 8.56976 42.857 6.65003 42.857 4.28488C42.8575 1.91974 40.9415 -1.6857e-06 38.5715 -1.6857e-06Z" transform="translate(127.857 80.8918)" fill="#4F4F4F"/>
<path d="M201.429 0H38.5715C17.3526 0 0.0813621 17.2214 3.52519e-07 38.4153V38.4665V38.5137V38.5654V38.6166C0.0557482 52.2818 7.43154 65.0124 19.2812 71.8688C21.3298 73.0514 23.9485 72.3529 25.1352 70.3091C26.3265 68.2608 25.6194 65.6386 23.5753 64.4555C14.3357 59.1035 8.58868 49.1709 8.57161 38.5142C8.60174 21.9994 22.046 8.57026 38.5715 8.57026H201.429C217.968 8.57026 231.429 22.0255 231.429 38.5654V218.537C231.429 220.71 230.82 222.891 229.676 224.836C228.48 226.876 229.157 229.503 231.197 230.703C231.883 231.105 232.629 231.294 233.366 231.294C234.836 231.294 236.267 230.54 237.064 229.182C238.984 225.921 240 222.24 240 218.537V38.5654C240.001 17.2987 222.699 0 201.429 0Z" transform="translate(25 21)" fill="#4F4F4F"/>
<path d="M51.4287 25.7103C51.4287 11.531 39.8959 -3.3101e-06 25.7143 -3.3101e-06C11.5328 -3.3101e-06 -6.25339e-06 11.531 -6.25339e-06 25.7103C-6.25339e-06 39.8896 11.5328 51.4206 25.7143 51.4206C39.8959 51.4206 51.4287 39.8896 51.4287 25.7103ZM25.7143 42.8503C16.2598 42.8503 8.57161 35.1628 8.57161 25.7103C8.57161 16.2577 16.2603 8.57027 25.7143 8.57027C35.1689 8.57027 42.857 16.2577 42.857 25.7103C42.857 35.1628 35.1689 42.8503 25.7143 42.8503Z" transform="translate(187.857 192.303)" fill="#4F4F4F"/>
<path d="M33.9745 9.40001C31.9305 8.21744 29.3073 8.91994 28.12 10.9682L18.893 26.9558L17.4275 24.7448C16.6862 23.618 15.4562 22.9064 14.1102 22.8296L11.4614 22.6709L20.8432 6.43076C22.0259 4.38247 21.3233 1.76024 19.2747 0.577161C17.2261 -0.609931 14.6034 0.0930773 13.4161 2.14538L0.572033 24.3893C-0.169262 25.6748 -0.190856 27.2561 0.511768 28.5627C1.21439 29.8693 2.54331 30.7225 4.03042 30.8078L11.4574 31.2532L15.5587 37.4624C16.3517 38.6665 17.6972 39.3861 19.1331 39.3861H19.2662C20.7447 39.3389 22.1033 38.529 22.8491 37.2434L35.5475 15.2526C36.7303 13.2053 36.0277 10.5826 33.9745 9.40001Z" transform="translate(171.861 238.613)" fill="#4F4F4F"/>
<path d="M22.7655 2.14538C21.5782 0.0930778 18.9511 -0.609931 16.911 0.577161C14.8584 1.75973 14.1552 4.38249 15.338 6.43027L24.6082 22.4691L21.9594 22.6277C20.614 22.7091 19.384 23.4206 18.6382 24.543L17.1812 26.7539L8.00138 10.8477C6.81008 8.79943 4.18693 8.09691 2.14284 9.27948C0.0942343 10.4621 -0.608398 13.0848 0.574361 15.1331L13.2256 37.0426C13.9714 38.3281 15.33 39.1381 16.8085 39.1853H16.9416C18.373 39.1853 19.723 38.4652 20.5201 37.2615L24.6173 31.0569L32.0403 30.607C33.5274 30.5211 34.8558 29.6684 35.5589 28.3618C36.262 27.0552 36.2359 25.474 35.4991 24.1884L22.7655 2.14538Z" transform="translate(219.212 238.815)" fill="#4F4F4F"/>
<path d="M4.28556 8.56976H29.9999C32.3699 8.56976 34.2854 6.65002 34.2854 4.28488C34.2854 1.91973 32.3699 2.63582e-06 29.9999 2.63582e-06H4.28556C1.91552 2.63582e-06 5.51769e-07 1.91973 5.51769e-07 4.28488C5.51769e-07 6.65002 1.91552 8.56976 4.28556 8.56976Z" transform="translate(93.5718 132.313)" fill="#4F4F4F"/>
<path d="M4.28556 8.56977H55.7142C58.0842 8.56977 59.9997 6.65002 59.9997 4.28488C59.9997 1.91973 58.0842 1.10337e-06 55.7142 1.10337e-06H4.28556C1.91552 1.10337e-06 5.51769e-07 1.91973 5.51769e-07 4.28488C5.51769e-07 6.65002 1.91552 8.56977 4.28556 8.56977Z" transform="translate(93.5718 158.023)" fill="#4F4F4F"/>
<path d="M4.90317 36.1953C5.95736 38.3118 8.53332 39.169 10.6502 38.115C12.7671 37.0565 13.629 34.4814 12.5657 32.3643C8.32288 23.8799 7.37165 16.2698 10.0114 11.9975C11.4171 9.72221 13.8685 8.56925 17.3058 8.56925C19.3499 8.56925 20.1128 9.27177 20.5929 9.95771C23.7856 14.56 20.7516 28.5761 17.576 37.0605C16.8689 38.9501 17.576 41.0757 19.2731 42.1684C20.9616 43.2525 23.1945 43.017 24.6218 41.5944C26.452 39.7691 28.4363 37.9478 30.1635 36.4694V38.5649C30.1635 40.2958 31.2051 41.8601 32.8077 42.5199C34.4104 43.1883 36.249 42.8197 37.479 41.5944C39.4377 39.6405 41.7088 37.7248 43.6203 36.3454C43.5691 36.4524 43.5174 36.5553 43.4661 36.6537C42.8102 37.9819 42.883 39.5592 43.6635 40.8186C44.448 42.0785 45.8236 42.8498 47.3062 42.8498H64.4489C66.819 42.8498 68.7345 40.9301 68.7345 38.5649C68.7345 36.1998 66.819 34.28 64.4489 34.28H53.2933C53.6404 32.2403 53.555 30.1664 52.5219 28.4952C51.429 26.7256 49.5261 25.7098 47.3062 25.7098C44.6574 25.7098 41.5421 27.3207 38.6964 29.3178C38.4779 27.4492 37.372 25.9111 35.6921 25.2172C34.548 24.7456 33.0734 24.129 29.495 26.2757C30.9048 18.8925 31.3166 10.3825 27.6393 5.07779C26.0321 2.75934 22.9379 7.23318e-06 17.3063 7.23318e-06C10.8863 7.23318e-06 5.70474 2.66091 2.71796 7.49465C-1.55504 14.4103 -0.762516 24.8702 4.90317 36.1953Z" transform="translate(93.4083 183.734)" fill="#4F4F4F"/>
<path d="M51.4281 4.28488C51.4281 1.91973 49.5126 1.10337e-06 47.1426 1.10337e-06H4.28555C1.91552 1.10337e-06 6.49862e-06 1.91973 6.49862e-06 4.28488C6.49862e-06 6.65002 1.91552 8.56977 4.28555 8.56977H47.1426C49.5126 8.56977 51.4281 6.65002 51.4281 4.28488Z" transform="translate(162.144 158.023)" fill="#4F4F4F"/>
<path d="M51.4287 25.7103C51.4287 11.531 39.8959 -3.3101e-06 25.7143 -3.3101e-06C11.5328 -3.3101e-06 -6.25339e-06 11.531 -6.25339e-06 25.7103C-6.25339e-06 39.8896 11.5328 51.4206 25.7143 51.4206C39.8959 51.4206 51.4287 39.8896 51.4287 25.7103ZM25.7143 42.8503C16.2598 42.8503 8.57161 35.1628 8.57161 25.7103C8.57161 16.2577 16.2603 8.57027 25.7143 8.57027C35.1689 8.57027 42.857 16.2577 42.857 25.7103C42.857 35.1628 35.1689 42.8503 25.7143 42.8503Z" transform="translate(187.857 192.303)" fill="#0D6EAC"/>
<path d="M33.9745 9.40001C31.9305 8.21744 29.3073 8.91994 28.12 10.9682L18.893 26.9558L17.4275 24.7448C16.6862 23.618 15.4562 22.9064 14.1102 22.8296L11.4614 22.6709L20.8432 6.43076C22.0259 4.38247 21.3233 1.76024 19.2747 0.577161C17.2261 -0.609931 14.6034 0.0930773 13.4161 2.14538L0.572033 24.3893C-0.169262 25.6748 -0.190856 27.2561 0.511768 28.5627C1.21439 29.8693 2.54331 30.7225 4.03042 30.8078L11.4574 31.2532L15.5587 37.4624C16.3517 38.6665 17.6972 39.3861 19.1331 39.3861H19.2662C20.7447 39.3389 22.1033 38.529 22.8491 37.2434L35.5475 15.2526C36.7303 13.2053 36.0277 10.5826 33.9745 9.40001Z" transform="translate(171.861 238.613)" fill="#0D6EAC"/>
<path d="M22.7655 2.14538C21.5782 0.0930778 18.9511 -0.609931 16.911 0.577161C14.8584 1.75973 14.1552 4.38249 15.338 6.43027L24.6082 22.4691L21.9594 22.6277C20.614 22.7091 19.384 23.4206 18.6382 24.543L17.1812 26.7539L8.00138 10.8477C6.81008 8.79943 4.18693 8.09691 2.14284 9.27948C0.0942343 10.4621 -0.608398 13.0848 0.574361 15.1331L13.2256 37.0426C13.9714 38.3281 15.33 39.1381 16.8085 39.1853H16.9416C18.373 39.1853 19.723 38.4652 20.5201 37.2615L24.6173 31.0569L32.0403 30.607C33.5274 30.5211 34.8558 29.6684 35.5589 28.3618C36.262 27.0552 36.2359 25.474 35.4991 24.1884L22.7655 2.14538Z" transform="translate(219.212 238.815)" fill="#0D6EAC"/>
</svg>
