<svg width="300" height="300" viewBox="0 0 300 300" fill="none" xmlns="http://www.w3.org/2000/svg">
<rect width="159" height="26" transform="translate(71 53)" fill="#0D6EAC"/>
<path d="M3.94949 7.89503H127.905C130.086 7.89503 131.854 6.12821 131.854 3.94752C131.854 1.76683 130.086 1.24669e-06 127.905 1.24669e-06H3.94949C1.7682 1.24669e-06 8.90937e-08 1.76683 8.90937e-08 3.94752C8.90937e-08 6.12821 1.76868 7.89503 3.94949 7.89503Z" transform="translate(66.5327 124.776)" fill="#4F4F4F"/>
<path d="M131.855 3.94751C131.855 1.76682 130.087 -5.58041e-06 127.905 -5.58041e-06H3.94949C1.7682 -5.58041e-06 8.90937e-08 1.76682 8.90937e-08 3.94751C8.90937e-08 6.12821 1.7682 7.89503 3.94949 7.89503H127.905C130.087 7.89503 131.855 6.12772 131.855 3.94751Z" transform="translate(66.5327 152.421)" fill="#4F4F4F"/>
<path d="M212.367 0H17.6333C7.91066 0 2.07885e-07 7.90573 2.07885e-07 17.624V203.974C2.07885e-07 205.021 0.416018 206.025 1.15707 206.766L42.2553 247.844C42.9958 248.584 44.0006 249 45.0477 249H212.367C222.089 249 230 241.094 230 231.376V17.624C230 7.90573 222.089 0 212.367 0ZM41.0982 235.522L13.4843 207.922H34.5159C38.1457 207.922 41.0982 210.873 41.0982 214.501V235.522ZM212.367 241.104H48.9972V214.5C48.9972 206.519 42.5015 200.026 34.5163 200.026H7.89899V17.624C7.89899 12.2598 12.266 7.89504 17.6333 7.89504H212.367C217.734 7.89504 222.101 12.2598 222.101 17.624V231.375C222.101 236.74 217.735 241.104 212.367 241.104Z" transform="translate(35 25)" fill="#4F4F4F"/>
<path d="M3.94949 7.89503H127.905C130.086 7.89503 131.854 6.12821 131.854 3.94752C131.854 1.76683 130.086 6.53027e-07 127.905 6.53027e-07H3.94949C1.7682 6.53027e-07 8.90937e-08 1.76683 8.90937e-08 3.94752C0.00048666 6.12821 1.76868 7.89503 3.94949 7.89503Z" transform="translate(66.5327 97.1305)" fill="#4F4F4F"/>
<path d="M18.6974 -5.58041e-06H3.94949C1.7682 -5.58041e-06 -4.75167e-06 1.76682 -4.75167e-06 3.94751C-4.75167e-06 6.12821 1.7682 7.89503 3.94949 7.89503H18.6974C20.8787 7.89503 22.6469 6.12821 22.6469 3.94751C22.6469 1.76682 20.8787 -5.58041e-06 18.6974 -5.58041e-06Z" transform="translate(210.817 152.421)" fill="#4F4F4F"/>
<path d="M18.6974 1.24669e-06H3.94949C1.7682 1.24669e-06 -4.75167e-06 1.76683 -4.75167e-06 3.94752C-4.75167e-06 6.12821 1.7682 7.89503 3.94949 7.89503H18.6974C20.8787 7.89503 22.6469 6.12821 22.6469 3.94752C22.6469 1.76732 20.8787 1.24669e-06 18.6974 1.24669e-06Z" transform="translate(210.817 124.776)" fill="#4F4F4F"/>
<path d="M18.6974 -3.3245e-06H3.94949C1.7682 -3.3245e-06 -4.75167e-06 1.76683 -4.75167e-06 3.94752C-4.75167e-06 6.12821 1.7682 7.89504 3.94949 7.89504H18.6974C20.8787 7.89504 22.6469 6.12821 22.6469 3.94752C22.6469 1.76683 20.8787 -3.3245e-06 18.6974 -3.3245e-06Z" transform="translate(210.817 97.131)" fill="#4F4F4F"/>
<path d="M162.981 3.8588e-07H3.94949C1.7682 3.8588e-07 8.90937e-08 1.76683 8.90937e-08 3.94752V26.0044C8.90937e-08 28.1851 1.7682 29.9519 3.94949 29.9519H162.981C165.162 29.9519 166.931 28.1851 166.931 26.0044V3.94752C166.931 1.76683 165.162 3.8588e-07 162.981 3.8588e-07ZM7.89899 22.0569V7.89455H159.032V22.0569H7.89899Z" transform="translate(66.5327 49.4103)" fill="#4F4F4F"/>
<path d="M22.1779 23.5076V13.2996C23.9923 13.7689 25.8734 14.5752 27.755 15.5819C28.495 15.9861 29.2993 16.1864 30.1061 16.1864C32.6601 16.1864 34.6764 14.2392 34.6764 11.6864C34.6764 9.67062 33.5344 8.39595 32.2582 7.65673C29.3684 6.04407 26.1415 4.96978 22.5136 4.43191V3.49232C22.5136 1.54312 20.9663 3.79943e-06 19.0181 3.79943e-06C17.0689 3.79943e-06 15.524 1.54312 15.524 3.49232V4.2967C7.05624 5.17112 1.41154 10.1414 1.41154 17.5301C1.41154 25.5229 6.18285 29.2171 15.8603 31.8369V42.5167C12.7696 41.8446 10.0808 40.5684 7.25866 38.7549C6.45241 38.2175 5.51138 37.8805 4.6375 37.8805C2.01635 37.8805 -5.702e-06 39.8287 -5.702e-06 42.4491C-5.702e-06 44.2616 0.874851 45.6048 2.28639 46.4793C6.25 48.8973 10.7532 50.5756 15.5245 51.1811V54.8076C15.5245 56.7558 17.0694 58.3009 19.0186 58.3009C20.9668 58.3009 22.5141 56.7563 22.5141 54.8076V51.2487C30.9804 50.3076 36.7604 45.4701 36.7604 37.9486C36.7609 30.4266 32.3915 26.2612 22.1779 23.5076ZM15.8617 21.7607C12.1652 20.4175 11.2247 19.0066 11.2247 16.9242C11.2247 14.7751 12.6357 13.1634 15.8617 12.6931V21.7607ZM22.1779 42.8518V33.5162C25.8063 34.7918 26.9492 36.2688 26.9492 38.485C26.9492 40.903 25.3348 42.382 22.1779 42.8518Z" transform="translate(193.396 189.48)" fill="#4F4F4F"/>
<path d="M65.9269 7.12393e-06H3.94949C1.76819 7.12393e-06 1.96006e-06 1.76731 1.96006e-06 3.94751V26.0044C1.96006e-06 28.1851 1.76819 29.9519 3.94949 29.9519H65.9274C68.1087 29.9519 69.8769 28.1851 69.8769 26.0044V3.94751C69.8764 1.76731 68.1082 7.12393e-06 65.9269 7.12393e-06ZM61.9774 22.0574H7.8985V7.89503H61.9774V22.0574Z" transform="translate(104.36 191.027)" fill="#4F4F4F"/>
</svg>
