<svg width="300" height="300" viewBox="0 0 300 300" fill="none" xmlns="http://www.w3.org/2000/svg">
<rect width="42" height="47" transform="translate(212 225)" fill="#0D6EAC"/>
<path d="M201.765 0H34.495C24.4404 0 16.2605 8.16429 16.2605 18.1996V29.2294H4.57663C2.04911 29.2294 -5.67982e-07 31.2746 -5.67982e-07 33.7973C-5.67982e-07 36.32 2.04911 38.3652 4.57663 38.3652H16.2605V76.3308H4.57663C2.04911 76.3308 -5.67982e-07 78.376 -5.67982e-07 80.8987C-5.67982e-07 83.4213 2.04911 85.4665 4.57663 85.4665H16.2605V123.432H4.57663C2.04911 123.432 -5.67982e-07 125.477 -5.67982e-07 128C-5.67982e-07 130.523 2.04911 132.568 4.57663 132.568H16.2605V170.533H4.57663C2.04911 170.533 -5.67982e-07 172.579 -5.67982e-07 175.101C-5.67982e-07 177.624 2.04911 179.669 4.57663 179.669H16.2605V217.635H4.57663C2.04911 217.635 -5.67982e-07 219.68 -5.67982e-07 222.203C-5.67982e-07 224.725 2.04911 226.771 4.57663 226.771H16.2605V237.8C16.2605 247.836 24.4404 256 34.495 256H201.765C211.82 256 220 247.836 220 237.8V18.1996C220 8.16429 211.82 0 201.765 0ZM177.391 107.518H210.847V147.572H177.391V107.518ZM177.391 98.382V58.3267H210.847V98.382H177.391ZM177.391 156.708H210.847V196.763H177.391V156.708ZM25.4137 237.801V226.771H34.9533C37.4808 226.771 39.5299 224.726 39.5299 222.203C39.5299 219.681 37.4808 217.635 34.9533 217.635H25.4137V179.67H34.9533C37.4808 179.67 39.5299 177.625 39.5299 175.102C39.5299 172.579 37.4808 170.534 34.9533 170.534H25.4137V132.568H34.9533C37.4808 132.568 39.5299 130.523 39.5299 128.001C39.5299 125.478 37.4808 123.433 34.9533 123.433H25.4137V85.4671H34.9533C37.4808 85.4671 39.5299 83.4219 39.5299 80.8993C39.5299 78.3766 37.4808 76.3314 34.9533 76.3314H25.4137V38.3652H34.9533C37.4808 38.3652 39.5299 36.32 39.5299 33.7973C39.5299 31.2746 37.4808 29.2294 34.9533 29.2294H25.4137V18.1996C25.4137 13.2017 29.4876 9.13572 34.495 9.13572H201.765C206.773 9.13572 210.847 13.2017 210.847 18.1996V49.191H172.814C170.287 49.191 168.238 51.2362 168.238 53.7589V246.865H34.495C29.4876 246.865 25.4137 242.799 25.4137 237.801ZM201.765 246.865H177.391V205.899H210.847V237.801C210.847 242.799 206.773 246.865 201.765 246.865Z" transform="translate(40 22)" fill="#4F4F4F"/>
<path d="M4.57663 9.13572H84.8532C87.3808 9.13572 89.4299 7.09054 89.4299 4.56786C89.4299 2.04518 87.3808 2.97387e-07 84.8532 2.97387e-07H4.57663C2.04911 2.97387e-07 2.27193e-06 2.04518 2.27193e-06 4.56786C2.27193e-06 7.09054 2.04911 9.13572 4.57663 9.13572Z" transform="translate(97.5864 66.3923)" fill="#4F4F4F"/>
<path d="M84.8532 -1.63563e-06H4.57663C2.04911 -1.63563e-06 2.27193e-06 2.04518 2.27193e-06 4.56786C2.27193e-06 7.09054 2.04911 9.13572 4.57663 9.13572H84.8532C87.3808 9.13572 89.4299 7.09054 89.4299 4.56786C89.4299 2.04518 87.3808 -1.63563e-06 84.8532 -1.63563e-06Z" transform="translate(97.5864 89.9034)" fill="#4F4F4F"/>
<path d="M84.8532 -3.56864e-06H4.57663C2.04911 -3.56864e-06 2.27193e-06 2.04518 2.27193e-06 4.56786C2.27193e-06 7.09054 2.04911 9.13572 4.57663 9.13572H84.8532C87.3808 9.13572 89.4299 7.09054 89.4299 4.56786C89.4299 2.04518 87.3808 -3.56864e-06 84.8532 -3.56864e-06Z" transform="translate(97.5864 113.415)" fill="#4F4F4F"/>
<path d="M84.8532 -5.20427e-07H4.57663C2.04911 -5.20427e-07 2.27193e-06 2.04518 2.27193e-06 4.56786C2.27193e-06 7.09054 2.04911 9.13572 4.57663 9.13572H84.8532C87.3808 9.13572 89.4299 7.09054 89.4299 4.56786C89.4299 2.04518 87.3808 -5.20427e-07 84.8532 -5.20427e-07Z" transform="translate(97.5864 136.925)" fill="#4F4F4F"/>
<path d="M84.8532 -2.45344e-06H4.57663C2.04911 -2.45344e-06 2.27193e-06 2.04518 2.27193e-06 4.56786C2.27193e-06 7.09054 2.04911 9.13572 4.57663 9.13572H84.8532C87.3808 9.13572 89.4299 7.09054 89.4299 4.56786C89.4299 2.04518 87.3808 -2.45344e-06 84.8532 -2.45344e-06Z" transform="translate(97.5864 160.436)" fill="#4F4F4F"/>
<path d="M84.8532 4.90688e-06H4.57663C2.04911 4.90688e-06 2.27193e-06 2.04519 2.27193e-06 4.56787C2.27193e-06 7.09054 2.04911 9.13573 4.57663 9.13573H84.8532C87.3808 9.13573 89.4299 7.09054 89.4299 4.56787C89.4299 2.04519 87.3808 4.90688e-06 84.8532 4.90688e-06Z" transform="translate(97.5864 183.947)" fill="#4F4F4F"/>
<path d="M84.8532 -3.27125e-06H4.57663C2.04911 -3.27125e-06 2.27193e-06 2.04518 2.27193e-06 4.56786C2.27193e-06 7.09054 2.04911 9.13572 4.57663 9.13572H84.8532C87.3808 9.13572 89.4299 7.09054 89.4299 4.56786C89.4299 2.04518 87.3808 -3.27125e-06 84.8532 -3.27125e-06Z" transform="translate(97.5864 230.969)" fill="#4F4F4F"/>
<path d="M84.8532 2.97387e-06H4.57663C2.04911 2.97387e-06 2.27193e-06 2.04519 2.27193e-06 4.56786C2.27193e-06 7.09054 2.04911 9.13573 4.57663 9.13573H84.8532C87.3808 9.13573 89.4299 7.09054 89.4299 4.56786C89.4299 2.04519 87.3808 2.97387e-06 84.8532 2.97387e-06Z" transform="translate(97.5864 207.458)" fill="#4F4F4F"/>
<path d="M0.34412 6.30327C1.08675 8.06037 2.87774 9.21513 4.79688 9.11768C6.62631 9.0245 8.26048 7.81493 8.8768 6.09498C9.5102 4.32752 8.97076 2.30365 7.54163 1.08312C6.03561 -0.203799 3.79916 -0.357887 2.12351 0.695766C0.274546 1.85844 -0.508355 4.28732 0.34412 6.30327Z" transform="translate(229.548 46.6077)" fill="#4F4F4F"/>
<path d="M7.81061 1.30386C4.90476 -1.59642 -0.187501 0.68812 0.00532775 4.75534C0.0999115 6.7445 1.53148 8.47419 3.46099 8.96021C5.313 9.42674 7.32366 8.65325 8.37811 7.06485C9.56682 5.27303 9.3447 2.82405 7.81061 1.30386C8.66492 2.14983 7.59704 1.0907 7.81061 1.30386Z" transform="translate(229.544 96.05)" fill="#4F4F4F"/>
<path d="M9.05159 3.67356C8.66776 1.83606 7.20567 0.393224 5.34694 0.0667741C3.46564 -0.263939 1.52394 0.656939 0.584814 2.31355C-0.411061 4.06944 -0.116329 6.36982 1.32623 7.79682C2.65223 9.1081 4.69219 9.49059 6.4008 8.7445C8.33153 7.90219 9.48484 5.74676 9.05159 3.67356Z" transform="translate(229.553 194.855)" fill="#4F4F4F"/>
<path d="M9.02816 3.66224C8.41184 0.713231 5.07577 -0.89953 2.38593 0.526251C-0.305131 1.95325 -0.795742 5.63069 1.3028 7.7855C2.76244 9.20154 5.0117 9.52981 6.79414 8.52549C8.482 7.57416 9.42602 5.56613 9.02816 3.66224Z" transform="translate(229.577 145.449)" fill="#4F4F4F"/>
<path d="M8.80116 2.81824C8.10917 1.09403 6.31575 -0.0455029 4.46496 0.00139378C2.55192 0.0495086 0.832331 1.32364 0.233097 3.13678C-1.10084 7.17233 3.57099 10.7255 7.11697 8.36727C8.91345 7.17171 9.62312 4.80739 8.80116 2.81824C8.9171 3.09901 8.69132 2.54478 8.80116 2.81824Z" transform="translate(229.542 244.27)" fill="white"/>
</svg>
