<?xml version="1.0" encoding="utf-8"?>
<!-- Generator: Adobe Illustrator 19.1.0, SVG Export Plug-In . SVG Version: 6.00 Build 0)  -->
<svg xmlns="http://www.w3.org/2000/svg" xmlns:xlink="http://www.w3.org/1999/xlink" version="1.1" id="Layer_1" x="0px" y="0px" viewBox="0 0 64 64" enable-background="new 0 0 64 64" xml:space="preserve" width="512px" height="512px">
<g id="Air-conditioner">
	<path d="M62.1337471,10.0689001c-1.2215996-1.2588005-2.847599-1.9512005-4.5790977-1.9512005H6.4296517   c-3.5537002,0-6.4443002,2.9639006-6.4443002,6.6084003v22.4062004c0,0.5606003,0.4541,1.014698,1.0146,1.014698h61.9999962   c0.5606003,0,1.0147018-0.4540977,1.0147018-1.014698V14.7426996   C64.0146484,12.9790001,63.3466492,11.3198004,62.1337471,10.0689001z M61.9853516,36.1176987H2.0146515V14.7261   c0-2.5243998,1.9805-4.5790997,4.415-4.5790997h51.1249962c1.1777992,0,2.2861977,0.4745998,3.1221008,1.3358994   c0.8310966,0.8565006,1.3086014,2.0450001,1.3086014,3.2598V36.1176987z" fill="#454545"/>
	<path d="M57.1171494,27.6177006H7.1171517c-0.5527,0-1,0.4473-1,1v3.9999981c0,0.5527,0.4473,1,1,1h49.9999962   c0.5527992,0,1-0.4473,1-1v-3.9999981C58.1171494,28.0650005,57.6699486,27.6177006,57.1171494,27.6177006z M56.1171494,31.6177006   h-48v-2h48V31.6177006z" fill="#454545"/>
	<path d="M34.9501534,51.105999l-1.9580002,1.5869026v-9.3106003c0-0.5527-0.4472008-1-1.0000019-1c-0.5527,0-1,0.4473-1,1   v9.3420982l-1.7392006-1.5822983c-0.4071999-0.3691025-1.0409985-0.3408012-1.4130993,0.0673981   c-0.3710995,0.4081993-0.3407993,1.0410004,0.0674,1.4131012l3.2987995,3   c0.1904011,0.1727982,0.4316006,0.2597008,0.6729012,0.2597008c0.222599,0,0.4453011-0.0741997,0.6297989-0.2236023l3.7011986-3   c0.4286995-0.347599,0.4950981-0.9764977,0.1464996-1.4062004C36.0097504,50.8256989,35.3818512,50.7573013,34.9501534,51.105999z" fill="#454545"/>
	<path d="M52.9501495,51.105999l-1.9580002,1.5869026v-9.3106003c0-0.5527-0.4472008-1-1-1c-0.5527,0-1,0.4473-1,1v9.3420982   l-1.7392006-1.5822983c-0.4071999-0.3691025-1.0410004-0.3408012-1.4131012,0.0673981   c-0.3710976,0.4081993-0.3407974,1.0410004,0.0674019,1.4131012l3.2987976,3   c0.190403,0.1727982,0.4316025,0.2597008,0.6729012,0.2597008c0.222599,0,0.4453011-0.0741997,0.6297989-0.2236023l3.7012024-3   c0.4286995-0.347599,0.4950981-0.9764977,0.1464996-1.4062004C54.0097504,50.8256989,53.3818474,50.7573013,52.9501495,51.105999z" fill="#454545"/>
	<path d="M15.9501514,51.105999l-1.9580002,1.5869026v-9.3106003c0-0.5527-0.4471998-1-1-1c-0.5527,0-1,0.4473-1,1v9.3420982   l-1.7391996-1.5822983C9.8457518,50.7729988,9.2119513,50.8013,8.8398514,51.2094994   c-0.3710995,0.4081993-0.3407993,1.0410004,0.0674,1.4131012l3.2988005,3   c0.1904001,0.1727982,0.4315996,0.2597008,0.6729002,0.2597008c0.2226,0,0.4452991-0.0741997,0.6297998-0.2236023l3.7011995-3   c0.4286995-0.347599,0.4951-0.9764977,0.1464996-1.4062004C17.0097523,50.8256989,16.3818512,50.7573013,15.9501514,51.105999z" fill="#454545"/>
</g>
<g>
</g>
<g>
</g>
<g>
</g>
<g>
</g>
<g>
</g>
<g>
</g>
<g>
</g>
<g>
</g>
<g>
</g>
<g>
</g>
<g>
</g>
<g>
</g>
<g>
</g>
<g>
</g>
<g>
</g>
</svg>
