<svg width="489" height="512" viewBox="0 0 489 512" version="1.1" xmlns="http://www.w3.org/2000/svg" xmlns:xlink="http://www.w3.org/1999/xlink">
<title>carpet-cleaning</title>
<desc>Created using Figma</desc>
<g id="Canvas" transform="translate(-4755 -3288)">
<g id="carpet-cleaning">
<g id="Group">
<g id="Group">
<g id="Vector">
<use xlink:href="#path0_fill" transform="translate(4831.26 3685.62)" fill="#6ECFF5"/>
</g>
</g>
</g>
<g id="Group">
<g id="Group">
<g id="Vector">
<use xlink:href="#path1_fill" transform="translate(4831.26 3652.94)" fill="#6ECFF5"/>
</g>
</g>
</g>
<g id="Group">
<g id="Group">
<g id="Vector">
<use xlink:href="#path2_fill" transform="translate(4831.26 3620.25)" fill="#6ECFF5"/>
</g>
</g>
</g>
<g id="Group">
<g id="Group">
<g id="Vector">
<use xlink:href="#path3_fill" transform="translate(4755 3288)" fill="#6ECFF5"/>
</g>
</g>
</g>
<g id="Group">
<g id="Group">
<g id="Vector">
<use xlink:href="#path4_fill" transform="translate(4961.87 3288)" fill="#6ECFF5"/>
</g>
</g>
</g>
</g>
</g>
<defs>
<path id="path0_fill" d="M 95.319 4.39453e-06L 8.17 4.39453e-06C 3.658 4.39453e-06 1.40381e-06 3.65799 1.40381e-06 8.16999C 1.40381e-06 12.682 3.658 16.34 8.17 16.34L 95.319 16.34C 99.831 16.34 103.489 12.682 103.489 8.16999C 103.489 3.65799 99.831 4.39453e-06 95.319 4.39453e-06Z"/>
<path id="path1_fill" d="M 95.319 4.63867e-06L 8.17 4.63867e-06C 3.658 4.63867e-06 1.40381e-06 3.65799 1.40381e-06 8.16999C 1.40381e-06 12.682 3.658 16.34 8.17 16.34L 95.319 16.34C 99.831 16.34 103.489 12.682 103.489 8.16999C 103.489 3.65799 99.831 4.63867e-06 95.319 4.63867e-06Z"/>
<path id="path2_fill" d="M 95.319 4.88281e-06L 8.17 4.88281e-06C 3.658 4.88281e-06 1.40381e-06 3.65799 1.40381e-06 8.16999C 1.40381e-06 12.682 3.658 16.34 8.17 16.34L 95.319 16.34C 99.831 16.34 103.489 12.682 103.489 8.16999C 103.489 3.65799 99.831 4.88281e-06 95.319 4.88281e-06Z"/>
<path id="path3_fill" d="M 175.072 160.389C 174.69 160.207 174.293 160.051 173.88 159.929C 170.456 158.61 166.964 157.43 163.405 156.405L 163.405 126.911C 163.405 122.399 159.747 118.741 155.235 118.741L 152.512 118.741L 152.512 24.511C 152.511 10.995 141.516 0 128 0C 114.484 0 103.489 10.995 103.489 24.511L 103.489 118.741L 100.766 118.741C 96.254 118.741 92.596 122.399 92.596 126.911L 92.596 156.405C 89.038 157.43 85.546 158.61 82.121 159.929C 81.708 160.05 81.312 160.207 80.929 160.389C 33.573 179.182 -6.86646e-08 225.454 -6.86646e-08 279.421L -6.86646e-08 482.042C -6.86646e-08 498.561 13.438 511.999 29.957 511.999C 46.476 511.999 59.914 498.561 59.914 482.042L 59.914 427.574C 59.914 411.055 46.476 397.617 29.957 397.617C 25.055 397.617 20.428 398.808 16.34 400.905L 16.34 279.421C 16.34 236.514 40.67 199.19 76.255 180.499L 76.255 203.165C 76.255 219.684 89.693 233.122 106.212 233.122L 149.786 233.122C 166.305 233.122 179.743 219.684 179.743 203.165L 179.743 180.5C 215.328 199.189 239.658 236.515 239.658 279.422L 239.658 400.905C 235.57 398.809 230.943 397.617 226.041 397.617C 209.522 397.617 196.084 411.055 196.084 427.574L 196.084 462.978L 84.426 462.978C 79.914 462.978 76.256 466.636 76.256 471.148C 76.256 475.66 79.914 479.318 84.426 479.318L 196.086 479.318L 196.086 482.041C 196.086 498.56 209.524 511.998 226.043 511.998C 242.562 511.998 256 498.56 256 482.041L 256 279.421C 256 225.454 222.427 179.182 175.072 160.389ZM 29.958 413.957C 37.467 413.957 43.575 420.065 43.575 427.574L 43.575 482.042C 43.575 489.551 37.467 495.659 29.958 495.659C 22.449 495.659 16.341 489.551 16.341 482.042L 16.341 427.574C 16.341 420.065 22.45 413.957 29.958 413.957ZM 119.83 24.511C 119.83 20.005 123.495 16.341 128 16.341C 132.505 16.341 136.17 20.006 136.17 24.511L 136.17 118.741L 119.83 118.741L 119.83 24.511L 119.83 24.511ZM 108.936 135.081L 147.064 135.081L 147.064 152.842C 140.843 151.908 134.478 151.421 128 151.421C 121.522 151.421 115.158 151.909 108.936 152.842L 108.936 135.081ZM 163.404 203.166C 163.404 210.675 157.296 216.783 149.787 216.783L 106.213 216.783C 98.704 216.783 92.596 210.675 92.596 203.166L 92.596 173.518C 103.726 169.787 115.631 167.762 128 167.762C 140.369 167.762 152.274 169.787 163.404 173.518L 163.404 203.166ZM 239.66 482.043C 239.66 489.552 233.552 495.66 226.043 495.66C 218.534 495.66 212.426 489.552 212.426 482.043L 212.426 427.575C 212.426 420.066 218.534 413.958 226.043 413.958C 233.552 413.958 239.66 420.066 239.66 427.575L 239.66 482.043Z"/>
<path id="path4_fill" d="M 273.866 462.979L 241.016 462.979C 237.397 445.22 222.218 431.624 203.711 430.399L 203.711 159.591C 203.711 156.035 201.435 153.019 198.264 151.896L 198.264 99.132C 198.264 44.47 153.794 0 99.132 0C 44.47 0 7.44629e-06 44.47 7.44629e-06 99.132L 7.44629e-06 154.261C 7.44629e-06 158.773 3.65801 162.431 8.17001 162.431C 12.682 162.431 16.34 158.773 16.34 154.261L 16.34 99.132C 16.34 53.48 53.48 16.341 99.132 16.341C 144.784 16.341 181.924 53.481 181.924 99.132L 181.924 151.421L 165.583 151.421L 165.583 99.132C 165.583 62.49 135.774 32.681 99.132 32.681C 62.49 32.681 32.681 62.49 32.681 99.132L 32.681 185.045C 32.681 189.557 36.339 193.215 40.851 193.215C 45.363 193.215 49.021 189.557 49.021 185.045L 49.021 99.132C 49.021 71.501 71.501 49.021 99.132 49.021C 126.763 49.021 149.243 71.501 149.243 99.132L 149.243 151.896C 146.072 153.019 143.796 156.036 143.796 159.591L 143.796 430.399C 125.289 431.625 110.11 445.22 106.491 462.979L 73.641 462.979C 69.129 462.979 65.471 466.637 65.471 471.149L 65.471 503.83C 65.471 508.342 69.129 512 73.641 512L 273.866 512C 278.378 512 282.036 508.342 282.036 503.83L 282.036 471.149C 282.036 466.637 278.378 462.979 273.866 462.979ZM 160.136 167.762L 187.37 167.762L 187.37 430.298L 160.136 430.298L 160.136 167.762ZM 146.519 446.638L 200.987 446.638C 211.639 446.638 220.72 453.469 224.092 462.978L 123.414 462.978C 126.786 453.47 135.867 446.638 146.519 446.638ZM 265.695 495.66L 81.811 495.66L 81.811 479.32L 265.695 479.32L 265.695 495.66L 265.695 495.66Z"/>
</defs>
</svg>
