<svg width="602" height="579" viewBox="0 0 602 579" version="1.1" xmlns="http://www.w3.org/2000/svg" xmlns:xlink="http://www.w3.org/1999/xlink">
<title>contract-cleaning</title>
<desc>Created using Figma</desc>
<g id="Canvas" transform="translate(-3824 -3236)">
<g id="contract-cleaning">
<g id="Vector">
<use xlink:href="#path0_fill" transform="translate(3824 3236)" fill="#6ECFF5"/>
</g>
</g>
</g>
<defs>
<path id="path0_fill" d="M 239.051 420.157L 166.615 420.157C 162.145 420.157 158.517 423.785 158.517 428.255L 158.517 493.885C 158.517 496.663 159.942 499.246 162.291 500.728L 198.513 523.615C 199.833 524.449 201.339 524.87 202.837 524.87C 204.335 524.87 205.841 524.449 207.161 523.615L 243.383 500.728C 245.732 499.246 247.157 496.663 247.157 493.885L 247.157 428.255C 247.149 423.785 243.521 420.157 239.051 420.157ZM 230.953 489.423L 202.829 507.191L 174.705 489.423L 174.705 436.354L 230.945 436.354L 230.945 489.423L 230.953 489.423ZM 184.714 218.586C 192.204 285.965 245.562 316.334 281.832 316.334C 318.103 316.334 371.452 285.965 378.951 218.586C 389.745 212.901 404.297 198.769 403.56 173.655C 403.415 168.804 402.985 154.065 392.175 149.976C 381.542 145.951 370.812 156.608 368.763 158.787C 365.711 162.058 365.881 167.185 369.144 170.238C 372.408 173.291 377.542 173.129 380.595 169.857C 382.012 168.343 384.498 166.424 386.15 165.638C 386.603 166.861 387.235 169.379 387.373 174.141C 388.061 197.554 370.95 204.583 369.249 205.223L 337.716 212.131C 300.619 208.139 263.045 208.139 225.957 212.131L 194.366 205.215C 191.978 204.276 175.62 197.003 176.292 174.149C 176.43 169.388 177.061 166.869 177.515 165.646C 179.07 166.391 181.45 168.165 183.07 169.865C 186.123 173.129 191.249 173.291 194.52 170.246C 197.784 167.193 197.954 162.067 194.901 158.795C 192.86 156.616 182.171 145.926 171.49 149.984C 160.679 154.065 160.242 168.813 160.104 173.664C 159.359 198.777 173.919 212.909 184.714 218.586ZM 201.8 223.412L 217.98 226.96L 222.75 270.197C 212.935 258.689 205.129 243.343 201.8 223.412ZM 340.899 270.189L 345.668 226.951L 361.848 223.404C 358.52 243.343 350.713 258.689 340.899 270.189ZM 329.318 227.51L 322.881 285.803C 322.864 285.941 322.921 286.062 322.913 286.192C 308.053 296.112 292.335 300.137 281.824 300.137C 271.329 300.137 255.652 296.12 240.816 286.24L 234.338 227.51C 265.879 224.546 297.761 224.546 329.318 227.51ZM 238.387 334.467L 214.887 345.497L 212.822 307.79C 212.579 303.32 208.7 299.886 204.295 300.145C 199.833 300.388 196.407 304.211 196.65 308.673L 197.079 316.545C 169.32 326.571 144.143 344.768 125.186 368.116C 124.076 361.613 121.72 355.385 116.618 350.251C 114.553 348.169 112.043 346.477 109.29 345.003L 109.29 283.859C 111.549 284.499 114.035 285.609 116.262 287.568C 121.688 292.322 124.433 300.769 124.433 312.682L 124.433 338.338C 124.433 342.808 128.061 346.436 132.531 346.436C 137.001 346.436 140.629 342.808 140.629 338.338L 140.629 312.69C 140.629 295.91 136.021 283.365 126.935 275.405C 121.04 270.238 114.432 268.14 109.241 267.339C 109.111 262.982 105.581 259.475 101.192 259.475L 8.09793 259.475C 3.62787 259.475 0 263.103 0 267.573L 0 292.177C 0 296.647 3.62787 300.275 8.09793 300.275L 33.1205 300.275C 34.2542 312.228 38.2384 334.386 51.9887 346.736C 50.361 347.829 48.7333 348.914 47.3891 350.267C 37.7202 359.993 37.793 373.639 37.8578 385.673L 37.8659 441.877C 37.8659 456.697 45.2269 469.8 56.4669 477.81C 51.7863 484.855 47.1704 490.791 47.1947 490.791C 22.7066 517.533 25.3465 569.177 25.468 571.363C 25.7109 575.647 29.2578 579 33.5578 579L 139.892 579C 144.184 579 147.731 575.647 147.982 571.363C 148.103 569.177 150.743 517.524 126.425 490.986C 126.336 490.881 118.772 481.98 113.136 473.137C 121.169 465.144 126.141 454.081 126.141 441.877L 126.15 394.582C 142.864 367.128 168.72 345.319 198.011 333.56L 199.371 358.381C 199.517 361.07 200.991 363.508 203.299 364.893C 204.578 365.654 206.011 366.043 207.453 366.043C 208.627 366.043 209.801 365.792 210.894 365.273L 245.27 349.141C 249.319 347.238 251.06 342.419 249.157 338.37C 247.254 334.305 242.428 332.58 238.387 334.467ZM 16.1959 275.664L 25.3465 275.664L 25.3465 284.078L 16.1959 284.078L 16.1959 275.664ZM 76.0476 339.455C 49.4055 339.455 48.8629 292.614 48.8629 292.144C 48.8305 287.965 45.6156 284.645 41.5424 284.232L 41.5424 275.656L 93.0938 275.656L 93.0938 339.463L 82.0725 339.455C 82.0482 339.455 82.0239 339.455 81.9996 339.455C 81.9753 339.455 81.9591 339.455 81.9348 339.455L 76.0476 339.455ZM 54.0537 385.584C 54.0051 375.842 53.9484 366.634 58.8719 361.686C 62.8399 357.693 70.5977 355.669 81.9105 355.66L 82.1049 355.66C 93.4177 355.677 101.176 357.693 105.135 361.686C 108.423 364.998 109.476 370.221 109.808 376.222L 90.9802 376.222C 86.5102 376.222 82.8823 379.851 82.8823 384.321C 82.8823 388.791 86.5102 392.419 90.9802 392.419L 109.954 392.419L 109.954 407.167L 90.9802 407.167C 86.5102 407.167 82.8823 410.795 82.8823 415.265C 82.8823 419.735 86.5102 423.364 90.9802 423.364L 109.946 423.364L 109.946 437.034L 90.9802 437.034C 86.5102 437.034 82.8823 440.662 82.8823 445.132C 82.8823 449.603 86.5102 453.231 90.9802 453.231L 107.476 453.231C 103.111 462.981 93.361 469.808 82.0077 469.808C 66.6055 469.808 54.0699 457.272 54.0699 441.869L 54.0537 385.584ZM 41.5667 562.803C 41.6234 559.62 41.8177 555.539 42.2064 551.052L 131.243 551.052C 131.632 555.531 131.818 559.62 131.875 562.803L 41.5667 562.803ZM 114.302 501.716C 122.19 510.325 126.522 522.837 128.943 534.847L 44.5467 534.847C 47.0166 522.748 51.4542 510.09 59.5441 501.247C 59.8437 500.866 65.7552 493.302 71.3347 484.653C 74.7601 485.503 78.3151 486.013 81.9996 486.013C 88.316 486.013 94.3085 484.661 99.7422 482.256C 105.994 491.966 113.752 501.085 114.302 501.716ZM 171.676 124.166L 171.676 132.637C 171.676 137.107 175.304 140.735 179.774 140.735C 184.244 140.735 187.872 137.107 187.872 132.637L 187.872 121.542C 212.125 111.969 247.238 102.851 281.824 102.851C 316.41 102.851 351.523 111.969 375.776 121.542L 375.776 132.637C 375.776 137.107 379.404 140.735 383.874 140.735C 388.344 140.735 391.972 137.107 391.972 132.637L 391.972 124.166C 394.126 122.659 395.438 120.206 395.438 117.565L 395.438 30.9199C 395.438 27.7211 393.559 24.8218 390.628 23.518C 365.071 12.1477 323.067 4.09335e-07 281.824 4.09335e-07C 240.573 4.09335e-07 198.569 12.1477 173.02 23.518C 170.097 24.8218 168.21 27.7211 168.21 30.9199L 168.21 117.557C 168.21 120.197 169.53 122.651 171.676 124.166ZM 184.406 36.2649C 208.692 26.2147 245.594 16.205 281.824 16.205C 318.054 16.205 354.948 26.2147 379.242 36.2649L 379.242 105.474C 353.58 95.6915 317.415 86.6455 281.824 86.6455C 246.226 86.6455 210.076 95.6915 184.406 105.474L 184.406 36.2649ZM 593.902 255.247L 389.591 255.247C 385.121 255.247 381.493 258.876 381.493 263.346L 381.493 291.877C 381.493 296.347 385.121 299.975 389.591 299.975L 408.5 299.975L 487.22 355.984L 487.22 432.321C 473.648 432.968 463.631 436.321 457.136 442.857C 447.467 452.583 447.54 466.229 447.605 478.263L 447.613 534.467C 447.613 558.802 467.412 578.603 491.747 578.603C 516.081 578.603 535.88 558.802 535.88 534.467L 535.889 478.263C 535.953 466.229 536.026 452.583 526.357 442.857C 521.029 437.495 513.441 434.207 503.416 432.823L 503.416 355.758C 537.702 328.968 567.114 306.211 575.172 299.975L 593.902 299.975C 598.372 299.975 602 296.347 602 291.877L 602 263.346C 602 258.868 598.372 255.247 593.902 255.247ZM 519.693 478.182L 519.685 534.475C 519.685 549.878 507.149 562.414 491.747 562.414C 480.393 562.414 470.644 555.579 466.279 545.837L 482.774 545.837C 487.244 545.837 490.872 542.209 490.872 537.738C 490.872 533.268 487.244 529.64 482.774 529.64L 463.809 529.64L 463.809 515.97L 482.774 515.97C 487.244 515.97 490.872 512.341 490.872 507.871C 490.872 503.401 487.244 499.773 482.774 499.773L 463.801 499.773L 463.801 485.025L 482.774 485.025C 487.244 485.025 490.872 481.397 490.872 476.927C 490.872 472.457 487.244 468.828 482.774 468.828L 463.947 468.828C 464.279 462.827 465.331 457.604 468.619 454.292C 472.595 450.291 480.385 448.258 491.747 448.258C 503.108 448.258 510.898 450.283 514.874 454.292C 519.798 459.232 519.749 468.432 519.693 478.182ZM 585.804 283.778L 572.41 283.778C 570.621 283.778 568.879 284.37 567.462 285.463C 567.462 285.463 534.755 310.722 495.091 341.699L 415.78 285.269C 414.412 284.297 412.768 283.77 411.083 283.77L 397.689 283.77L 397.689 271.444L 585.804 271.444L 585.804 283.778L 585.804 283.778ZM 364.593 332.361L 363.168 358.373C 363.022 361.062 361.548 363.5 359.24 364.885C 357.961 365.646 356.528 366.035 355.086 366.035C 353.912 366.035 352.738 365.784 351.644 365.265L 317.269 349.133C 313.22 347.23 311.479 342.411 313.382 338.362C 315.277 334.305 320.111 332.572 324.152 334.475L 347.652 345.505L 349.717 307.798C 349.96 303.328 353.782 299.911 358.244 300.154C 362.706 300.396 366.132 304.219 365.889 308.681L 365.516 315.443C 412.533 331.341 451.589 370.068 467.485 416.609C 468.935 420.837 466.667 425.445 462.44 426.895C 461.574 427.194 460.691 427.332 459.825 427.332C 456.456 427.332 453.314 425.21 452.164 421.849C 438.333 381.381 405.018 347.521 364.593 332.361ZM 289.922 371.112L 289.922 569.039C 289.922 573.509 286.294 577.137 281.824 577.137C 277.354 577.137 273.726 573.509 273.726 569.039L 273.726 371.112C 273.726 366.642 277.354 363.014 281.824 363.014C 286.294 363.014 289.922 366.642 289.922 371.112ZM 394.572 231.835L 588.922 231.835C 593.392 231.835 597.02 235.463 597.02 239.933C 597.02 244.404 593.392 248.032 588.922 248.032L 394.572 248.032C 390.102 248.032 386.474 244.404 386.474 239.933C 386.474 235.463 390.093 231.835 394.572 231.835Z"/>
</defs>
</svg>
