<svg width="512" height="512" viewBox="0 0 512 512" version="1.1" xmlns="http://www.w3.org/2000/svg" xmlns:xlink="http://www.w3.org/1999/xlink">
<title>floor-waxing</title>
<desc>Created using Figma</desc>
<g id="Canvas" transform="translate(-1654 -3348)">
<g id="floor-waxing">
<g id="Group">
<g id="Group">
<g id="Vector">
<use xlink:href="#path0_fill" transform="translate(1654 3348)" fill="#6ECFF5"/>
</g>
</g>
</g>
</g>
</g>
<defs>
<path id="path0_fill" d="M 502.736 0L 9.264 0C 4.147 0 4.75069e-11 4.148 4.75069e-11 9.264L 4.75069e-11 148.439C 4.75069e-11 153.555 4.148 157.703 9.264 157.703C 14.38 157.703 18.528 153.555 18.528 148.439L 18.528 100.574L 68.77 150.816L 18.528 201.058L 18.528 178.703C 18.528 173.587 14.38 169.439 9.264 169.439C 4.148 169.439 4.75069e-11 173.587 4.75069e-11 178.703L 4.75069e-11 502.737C 4.75069e-11 507.853 4.148 512.001 9.264 512.001L 502.735 512.001C 507.851 512.001 511.999 507.853 511.999 502.737L 511.999 9.264C 512 4.148 507.852 0 502.736 0ZM 478.6 18.528L 430.127 67L 381.649 18.528L 478.6 18.528ZM 338.944 18.528L 290.473 67L 241.99 18.528L 338.944 18.528ZM 305.041 107.777C 308.659 111.395 314.525 111.395 318.141 107.777C 321.759 104.159 321.759 98.294 318.141 94.676L 303.571 80.106L 360.294 23.383L 487.734 150.816L 431.007 207.543L 339.138 115.674C 335.52 112.056 329.654 112.056 326.038 115.674C 322.42 119.292 322.42 125.157 326.038 128.775L 348.08 150.817L 291.355 207.544L 163.918 80.106L 220.641 23.383L 305.041 107.777ZM 278.254 220.644L 150.816 348.082L 94.091 291.357L 221.528 163.919L 278.254 220.644ZM 199.292 18.528L 150.82 67L 102.34 18.528L 199.292 18.528ZM 18.528 18.528L 59.638 18.528L 18.528 59.638L 18.528 18.528L 18.528 18.528ZM 24.268 80.101L 80.987 23.382L 208.426 150.816L 151.699 207.542L 24.268 80.101ZM 18.528 227.252C 18.549 227.232 18.571 227.215 18.591 227.195L 81.871 163.916L 138.594 220.644L 18.528 340.716L 18.528 227.252ZM 18.528 381.652L 68.773 431.897L 18.528 482.131L 18.528 381.652L 18.528 381.652ZM 33.391 493.472L 81.876 444.998L 130.35 493.472L 33.391 493.472ZM 24.268 361.187L 80.991 304.458L 208.426 431.893L 151.699 488.619L 24.268 361.187ZM 173.051 493.472L 221.528 444.995L 270.005 493.472L 173.051 493.472ZM 163.917 361.182L 220.644 304.457L 348.081 431.894L 291.356 488.621L 163.917 361.182ZM 312.705 493.472L 361.182 444.995L 409.659 493.472L 312.705 493.472ZM 303.572 361.182L 322.392 342.363C 326.01 338.745 326.01 332.88 322.392 329.262C 318.774 325.644 312.908 325.644 309.291 329.262L 290.471 348.082L 233.744 291.355L 361.181 163.918L 417.908 220.645L 327.819 310.734C 324.201 314.352 324.201 320.217 327.819 323.835C 331.437 327.453 337.303 327.453 340.92 323.835L 360.298 304.457L 487.733 431.896L 431.009 488.62L 303.572 361.182ZM 493.47 493.472L 452.359 493.472L 493.47 452.361L 493.47 493.472ZM 493.47 411.426L 443.229 361.186L 493.47 310.933L 493.47 411.426ZM 493.396 284.804L 430.129 348.086L 373.399 291.357L 493.47 171.285L 493.47 284.737L 493.471 284.737C 493.447 284.759 493.421 284.78 493.396 284.804ZM 493.472 130.343L 443.23 80.101L 493.472 29.859L 493.472 130.343Z"/>
</defs>
</svg>
