<svg width="444" height="512" viewBox="0 0 444 512" version="1.1" xmlns="http://www.w3.org/2000/svg" xmlns:xlink="http://www.w3.org/1999/xlink">
<title>floor-restoration</title>
<desc>Created using Figma</desc>
<g id="Canvas" transform="translate(-3056 -3296)">
<g id="floor-restoration">
<g id="Group">
<g id="Group">
<g id="Group">
<g id="Vector">
<use xlink:href="#path0_fill" transform="translate(3201.07 3654.4)" fill="#6ECFF5"/>
</g>
<g id="Vector">
<use xlink:href="#path1_fill" transform="translate(3166.93 3654.4)" fill="#6ECFF5"/>
</g>
<g id="Vector">
<use xlink:href="#path2_fill" transform="translate(3166.93 3603.2)" fill="#6ECFF5"/>
</g>
<g id="Vector">
<use xlink:href="#path3_fill" transform="translate(3201.07 3603.2)" fill="#6ECFF5"/>
</g>
<g id="Vector">
<use xlink:href="#path4_fill" transform="translate(3457.07 3560.53)" fill="#6ECFF5"/>
</g>
<g id="Vector">
<use xlink:href="#path5_fill" transform="translate(3422.93 3560.53)" fill="#6ECFF5"/>
</g>
<g id="Vector">
<use xlink:href="#path6_fill" transform="translate(3422.93 3509.33)" fill="#6ECFF5"/>
</g>
<g id="Vector">
<use xlink:href="#path7_fill" transform="translate(3457.07 3509.33)" fill="#6ECFF5"/>
</g>
<g id="Vector">
<use xlink:href="#path8_fill" transform="translate(3056 3296)" fill="#6ECFF5"/>
</g>
<g id="Vector">
<use xlink:href="#path9_fill" transform="translate(3286.4 3475.2)" fill="#6ECFF5"/>
</g>
<g id="Vector">
<use xlink:href="#path10_fill" transform="translate(3252.27 3475.2)" fill="#6ECFF5"/>
</g>
<g id="Vector">
<use xlink:href="#path11_fill" transform="translate(3252.27 3424)" fill="#6ECFF5"/>
</g>
<g id="Vector">
<use xlink:href="#path12_fill" transform="translate(3286.4 3424)" fill="#6ECFF5"/>
</g>
<g id="Vector">
<use xlink:href="#path13_fill" transform="translate(3115.73 3321.6)" fill="#6ECFF5"/>
</g>
<g id="Vector">
<use xlink:href="#path14_fill" transform="translate(3081.6 3321.6)" fill="#6ECFF5"/>
</g>
<g id="Vector">
<use xlink:href="#path15_fill" transform="translate(3115.73 3765.33)" fill="#6ECFF5"/>
</g>
<g id="Vector">
<use xlink:href="#path16_fill" transform="translate(3081.6 3765.33)" fill="#6ECFF5"/>
</g>
<g id="Vector">
<use xlink:href="#path17_fill" transform="translate(3371.73 3321.6)" fill="#6ECFF5"/>
</g>
<g id="Vector">
<use xlink:href="#path18_fill" transform="translate(3337.6 3321.6)" fill="#6ECFF5"/>
</g>
<g id="Vector">
<use xlink:href="#path19_fill" transform="translate(3371.73 3765.33)" fill="#6ECFF5"/>
</g>
<g id="Vector">
<use xlink:href="#path20_fill" transform="translate(3337.6 3765.33)" fill="#6ECFF5"/>
</g>
</g>
</g>
</g>
</g>
</g>
<defs>
<path id="path0_fill" d="M 8.533 -6.10352e-06C 3.413 -6.10352e-06 -3.05176e-06 3.41301 -3.05176e-06 8.53301C -3.05176e-06 13.653 3.413 17.066 8.533 17.066C 13.653 17.066 17.066 13.653 17.066 8.53301C 17.066 3.41301 13.653 -6.10352e-06 8.533 -6.10352e-06Z"/>
<path id="path1_fill" d="M 8.53301 -6.10352e-06C 3.41301 -6.10352e-06 1.34277e-06 3.41301 1.34277e-06 8.53301C 1.34277e-06 13.653 3.41301 17.066 8.53301 17.066C 13.653 17.066 17.066 13.653 17.066 8.53301C 17.066 3.41301 13.653 -6.10352e-06 8.53301 -6.10352e-06Z"/>
<path id="path2_fill" d="M 8.53301 17.066C 13.653 17.066 17.066 13.653 17.066 8.53301C 17.066 3.41301 13.653 -1.12305e-05 8.53301 -1.12305e-05C 4.26601 -1.12305e-05 1.34277e-06 4.26701 1.34277e-06 8.53301C 1.34277e-06 13.652 3.41301 17.066 8.53301 17.066Z"/>
<path id="path3_fill" d="M 8.533 17.066C 13.653 17.066 17.066 13.653 17.066 8.53301C 17.066 3.41301 13.653 -1.12305e-05 8.533 -1.12305e-05C 3.413 -1.12305e-05 -3.05176e-06 4.26701 -3.05176e-06 8.53301C -3.05176e-06 13.652 3.413 17.066 8.533 17.066Z"/>
<path id="path4_fill" d="M 8.533 17.066C 13.653 17.066 17.066 13.653 17.066 8.53299C 17.066 3.41299 13.653 -3.41797e-06 8.533 -3.41797e-06C 3.413 -3.41797e-06 1.2207e-05 3.41299 1.2207e-05 8.53299C 1.2207e-05 13.653 3.413 17.066 8.533 17.066Z"/>
<path id="path5_fill" d="M 8.53301 17.066C 13.653 17.066 17.066 13.653 17.066 8.53299C 17.066 3.41299 13.653 -3.41797e-06 8.53301 -3.41797e-06C 3.41301 -3.41797e-06 -1.3916e-05 3.41299 -1.3916e-05 8.53299C -1.3916e-05 13.653 3.41301 17.066 8.53301 17.066Z"/>
<path id="path6_fill" d="M 8.53301 17.066C 13.653 17.066 17.066 13.653 17.066 8.533C 17.066 3.413 13.653 -3.66211e-07 8.53301 -3.66211e-07C 4.26601 -3.66211e-07 -1.3916e-05 4.267 -1.3916e-05 8.533C -1.3916e-05 13.653 3.41301 17.066 8.53301 17.066Z"/>
<path id="path7_fill" d="M 8.533 17.066C 13.653 17.066 17.066 13.653 17.066 8.533C 17.066 3.413 13.653 -3.66211e-07 8.533 -3.66211e-07C 4.266 -3.66211e-07 1.2207e-05 4.267 1.2207e-05 8.533C 1.2207e-05 13.653 3.413 17.066 8.533 17.066Z"/>
<path id="path8_fill" d="M 435.199 0L 349.866 0L 264.533 0L 179.2 0L 93.866 0L 8.533 0C 3.413 0 -1.12915e-06 3.413 -1.12915e-06 8.533L -1.12915e-06 503.466C -1.12915e-06 508.586 3.413 511.999 8.533 511.999L 93.866 511.999L 179.199 511.999L 264.532 511.999L 349.866 511.999L 435.199 511.999C 440.319 511.999 443.732 508.586 443.732 503.466L 443.732 247.466L 443.732 8.533C 443.733 3.413 440.319 0 435.199 0ZM 426.666 238.933L 358.399 238.933L 358.399 17.067L 426.666 17.067L 426.666 238.933ZM 255.999 153.6L 187.732 153.6L 187.732 17.067L 255.999 17.067L 255.999 153.6ZM 170.666 162.133L 170.666 332.8L 102.399 332.8L 102.399 17.067L 170.666 17.067L 170.666 162.133ZM 17.066 17.067L 85.333 17.067L 85.333 341.334L 85.333 494.934L 17.066 494.934L 17.066 17.067ZM 102.399 349.867L 170.666 349.867L 170.666 494.934L 102.399 494.934L 102.399 349.867L 102.399 349.867ZM 187.733 341.333L 187.733 170.667L 256 170.667L 256 494.934L 187.733 494.934L 187.733 341.333L 187.733 341.333ZM 273.066 162.133L 273.066 17.067L 341.333 17.067L 341.333 247.467L 341.333 494.934L 273.066 494.934L 273.066 162.133ZM 426.666 494.933L 358.399 494.933L 358.399 256L 426.666 256L 426.666 494.933Z"/>
<path id="path9_fill" d="M 8.53299 -3.05176e-06C 3.41299 -3.05176e-06 -3.41797e-06 3.413 -3.41797e-06 8.533C -3.41797e-06 13.653 3.41299 17.066 8.53299 17.066C 13.653 17.066 17.066 13.653 17.066 8.533C 17.066 3.413 13.653 -3.05176e-06 8.53299 -3.05176e-06Z"/>
<path id="path10_fill" d="M 8.533 -3.05176e-06C 3.413 -3.05176e-06 -6.10352e-06 3.413 -6.10352e-06 8.533C -6.10352e-06 13.653 3.413 17.066 8.533 17.066C 13.653 17.066 17.066 13.653 17.066 8.533C 17.066 3.413 13.653 -3.05176e-06 8.533 -3.05176e-06Z"/>
<path id="path11_fill" d="M 8.533 17.067C 13.653 17.067 17.066 13.654 17.066 8.534C 17.066 3.414 13.653 0 8.533 0C 3.413 0 -6.10352e-06 4.267 -6.10352e-06 8.533C -6.10352e-06 13.653 3.413 17.067 8.533 17.067Z"/>
<path id="path12_fill" d="M 8.53299 17.067C 13.653 17.067 17.066 13.654 17.066 8.534C 17.066 3.414 13.653 0 8.53299 0C 3.41299 0 -3.19834e-06 4.267 -3.19834e-06 8.533C -0.0010032 13.653 3.41299 17.067 8.53299 17.067Z"/>
<path id="path13_fill" d="M 8.533 3.8147e-07C 3.413 3.8147e-07 -3.23486e-06 4.267 -3.23486e-06 8.533C -3.23486e-06 12.8 3.413 17.066 8.533 17.066C 13.653 17.066 17.066 13.653 17.066 8.533C 17.066 3.413 13.653 3.8147e-07 8.533 3.8147e-07Z"/>
<path id="path14_fill" d="M 8.533 3.8147e-07C 3.413 3.8147e-07 1.15967e-06 4.267 1.15967e-06 8.533C 1.15967e-06 12.8 3.413 17.066 8.533 17.066C 13.653 17.066 17.066 13.653 17.066 8.533C 17.066 3.413 13.653 3.8147e-07 8.533 3.8147e-07Z"/>
<path id="path15_fill" d="M 8.533 7.8125e-06C 3.413 7.8125e-06 -3.23486e-06 3.413 -3.23486e-06 8.533C -3.23486e-06 13.653 3.413 17.066 8.533 17.066C 13.653 17.066 17.066 13.653 17.066 8.533C 17.066 3.413 13.653 7.8125e-06 8.533 7.8125e-06Z"/>
<path id="path16_fill" d="M 8.533 7.8125e-06C 3.413 7.8125e-06 1.15967e-06 3.413 1.15967e-06 8.533C 1.15967e-06 13.653 3.413 17.066 8.533 17.066C 13.653 17.066 17.066 13.653 17.066 8.533C 17.066 3.413 13.653 7.8125e-06 8.533 7.8125e-06Z"/>
<path id="path17_fill" d="M 8.53299 3.8147e-07C 3.41299 3.8147e-07 4.39453e-06 3.413 4.39453e-06 8.533C 4.39453e-06 13.653 3.41299 17.066 8.53299 17.066C 13.653 17.066 17.066 13.653 17.066 8.533C 17.066 3.413 13.653 3.8147e-07 8.53299 3.8147e-07Z"/>
<path id="path18_fill" d="M 8.533 3.8147e-07C 3.413 3.8147e-07 8.78906e-06 3.413 8.78906e-06 8.533C 8.78906e-06 13.653 3.413 17.066 8.533 17.066C 13.653 17.066 17.066 13.653 17.066 8.533C 17.066 3.413 13.653 3.8147e-07 8.533 3.8147e-07Z"/>
<path id="path19_fill" d="M 8.53299 7.8125e-06C 3.41299 7.8125e-06 4.39453e-06 3.413 4.39453e-06 8.533C 4.39453e-06 13.653 3.41299 17.066 8.53299 17.066C 13.653 17.066 17.066 13.653 17.066 8.533C 17.066 3.413 13.653 7.8125e-06 8.53299 7.8125e-06Z"/>
<path id="path20_fill" d="M 8.533 7.8125e-06C 3.413 7.8125e-06 8.78906e-06 3.413 8.78906e-06 8.533C 8.78906e-06 13.653 3.413 17.066 8.533 17.066C 13.653 17.066 17.066 13.653 17.066 8.533C 17.066 3.413 13.653 7.8125e-06 8.533 7.8125e-06Z"/>
</defs>
</svg>
