<?xml version="1.0" encoding="iso-8859-1"?>
<!-- Generator: Adobe Illustrator 18.0.0, SVG Export Plug-In . SVG Version: 6.00 Build 0)  -->
<!DOCTYPE svg PUBLIC "-//W3C//DTD SVG 1.1//EN" "http://www.w3.org/Graphics/SVG/1.1/DTD/svg11.dtd">
<svg xmlns="http://www.w3.org/2000/svg" xmlns:xlink="http://www.w3.org/1999/xlink" version="1.1" id="Capa_1" x="0px" y="0px" viewBox="0 0 469.98 469.98" style="enable-background:new 0 0 469.98 469.98;" xml:space="preserve" width="512px" height="512px">
<path d="M429.794,271.444l-34.942-35.7V41.931h-189.73L164.075,0H40.184l-0.001,469.98h389.615L429.794,271.444z M415.794,277.155  v53.359l-20.942-21.393v-53.362L415.794,277.155z M380.852,294.82l-79.938-81.658h45.018v-14h-58.724l-30.764-31.426h89.487v-14  H242.739l-30.752-31.414h133.944v-14h-147.65l-34.209-34.945h-62.717V55.931h279.495V294.82z M54.184,14h104.004l27.341,27.931  H87.356v31.446H54.184V14z M54.183,455.98V87.377h104.004l257.607,263.15l0.004,105.453H54.183z" fill="#454545"/>
<g>
</g>
<g>
</g>
<g>
</g>
<g>
</g>
<g>
</g>
<g>
</g>
<g>
</g>
<g>
</g>
<g>
</g>
<g>
</g>
<g>
</g>
<g>
</g>
<g>
</g>
<g>
</g>
<g>
</g>
</svg>
