<?xml version="1.0" encoding="iso-8859-1"?>
<!-- Generator: Adobe Illustrator 19.0.0, SVG Export Plug-In . SVG Version: 6.00 Build 0)  -->
<svg xmlns="http://www.w3.org/2000/svg" xmlns:xlink="http://www.w3.org/1999/xlink" version="1.1" id="Layer_1" x="0px" y="0px" viewBox="0 0 512.003 512.003" style="enable-background:new 0 0 512.003 512.003;" xml:space="preserve" width="512px" height="512px">
<g>
	<g>
		<path d="M509.605,171.075l-99.3-99.301c-3.193-3.194-8.37-3.194-11.565,0l-49.65,49.65c-1.533,1.533-2.394,3.613-2.394,5.782    c0,2.169,0.861,4.249,2.394,5.782l4.953,4.953l-11.382,11.38c-7.389,7.386-18.854,9.402-28.528,5.011    c-9.07-4.117-19.153-6.292-29.161-6.292c-11.883,0-23.496,2.983-33.814,8.633c-4.303-1.06-8.719-1.603-13.179-1.603    c-6.45,0-12.785,1.113-18.829,3.31c-9.651,3.506-19.996,1.333-27.003-5.672L171.71,132.27l2.434-2.434    c1.533-1.533,2.394-3.613,2.394-5.782c0-2.169-0.861-4.249-2.394-5.782l-49.65-49.65c-3.195-3.194-8.371-3.194-11.565,0    L2.395,179.156c-3.193,3.194-3.193,8.371,0,11.564l49.649,49.65c1.534,1.534,3.613,2.395,5.783,2.395s4.248-0.861,5.783-2.395    l2.961-2.961l14.414,14.414c3.637,3.637,6.048,8.178,6.971,13.131c4.786,25.683,17.086,49.032,35.57,67.526l2.715,2.715    c-5.214,5.491-8.082,12.645-8.082,20.245c0,7.861,3.062,15.252,8.62,20.811c5.738,5.738,13.273,8.606,20.811,8.606    c0.491,0,0.98-0.013,1.471-0.038c-0.398,8.019,2.458,16.17,8.568,22.282c5.559,5.559,12.95,8.62,20.811,8.62    c0.219,0,0.437-0.011,0.656-0.016c-0.168,7.749,2.691,15.552,8.591,21.453c5.559,5.56,12.95,8.62,20.812,8.62    c7.861,0,15.251-3.062,20.811-8.62c0.468-0.468,0.909-0.952,1.34-1.442c2.895,1.009,5.957,1.546,9.052,1.546    c7.353,0,14.261-2.865,19.441-8.062c2.757-2.756,4.849-5.998,6.211-9.529l0.837,0.837c5.359,5.359,12.398,8.039,19.437,8.039    c7.039,0,14.078-2.68,19.437-8.039c2.848-2.848,4.988-6.211,6.344-9.878c4.797,3.489,10.476,5.236,16.158,5.236    c7.039,0,14.082-2.679,19.446-8.036c5.191-5.191,8.05-12.097,8.05-19.445c0-2.22-0.266-4.397-0.773-6.502    c5.237-1.064,10.049-3.635,13.91-7.501c5.191-5.191,8.05-12.094,8.05-19.437c0-5.785-1.782-11.292-5.073-15.91l6.56-6.56    c18.699-18.708,31.052-42.35,35.725-68.371c0.783-4.357,2.941-8.404,6.243-11.707l24.398-24.398l4.289,4.289    c1.597,1.597,3.69,2.395,5.783,2.395c2.092,0,4.186-0.798,5.783-2.395l49.65-49.65c1.533-1.533,2.394-3.613,2.394-5.782    S511.138,172.609,509.605,171.075z M57.827,223.025l-38.086-38.086L118.71,85.97l38.087,38.086L57.827,223.025z M156.836,364.689    c-5.097,5.096-13.392,5.098-18.493,0c-2.47-2.471-3.83-5.754-3.83-9.247c0-3.492,1.361-6.776,3.831-9.246    c2.549-2.549,5.896-3.824,9.245-3.824c3.348,0,6.698,1.275,9.246,3.824C161.933,351.294,161.933,359.59,156.836,364.689z     M187.684,395.537c-2.468,2.471-5.751,3.83-9.246,3.83c-3.492,0-6.776-1.361-9.245-3.83c-5.099-5.098-5.099-13.394,0-18.493    c2.549-2.549,5.896-3.824,9.246-3.824c3.347,0,6.697,1.275,9.245,3.824C192.784,382.142,192.784,390.439,187.684,395.537z     M217.742,425.594c-2.47,2.47-5.753,3.83-9.245,3.83c-3.493,0-6.777-1.361-9.246-3.83c-5.099-5.098-5.099-13.394,0-18.493    c2.549-2.549,5.896-3.824,9.246-3.824c3.347,0,6.697,1.275,9.245,3.824C222.841,412.2,222.841,420.496,217.742,425.594z     M356.63,362.822c-2.102,2.104-4.897,3.263-7.869,3.263s-5.767-1.159-7.873-3.268l-79.33-79.312    c-3.196-3.193-8.372-3.192-11.565,0.002c-3.192,3.193-3.191,8.371,0.002,11.564l85.451,85.442c2.103,2.102,3.26,4.898,3.26,7.872    c0,2.98-1.158,5.779-3.257,7.878c-4.347,4.343-11.416,4.344-15.756,0.003l-14.416-14.416c-0.08-0.083-0.158-0.167-0.241-0.249    c-0.024-0.024-0.051-0.045-0.076-0.069l-66.267-66.267c-3.195-3.193-8.371-3.193-11.565,0c-3.194,3.193-3.194,8.371,0,11.564    l66.48,66.479c2.032,2.083,3.151,4.839,3.151,7.763c0,2.974-1.159,5.77-3.261,7.872c-4.338,4.341-11.401,4.341-15.743,0    l-72.085-72.086c-3.195-3.194-8.371-3.194-11.565,0c-3.194,3.193-3.194,8.371,0,11.564l53.434,53.435    c0.015,0.015,0.027,0.032,0.043,0.046c2.101,2.097,3.257,4.888,3.257,7.859c0,2.973-1.158,5.769-3.269,7.88    c-2.099,2.104-4.893,3.263-7.87,3.263c-0.719,0-1.422-0.074-2.11-0.204c1.323-8.913-1.436-18.32-8.282-25.167    c-5.559-5.558-12.95-8.62-20.811-8.62c-0.219,0-0.437,0.011-0.656,0.016c0.168-7.749-2.69-15.552-8.591-21.453    c-5.56-5.558-12.95-8.62-20.812-8.62c-0.492,0-0.981,0.012-1.469,0.036c0.393-8.014-2.463-16.158-8.57-22.266    c-7.434-7.433-17.884-10.044-27.444-7.847l-5.864-5.864c-16.14-16.147-26.878-36.535-31.057-58.96    c-1.531-8.213-5.502-15.717-11.483-21.699l-14.415-14.415l82.01-82.01l20.438,20.438c7.856,7.856,18.552,12.06,29.507,12.06    c4.906,0,9.867-0.844,14.646-2.581c2.318-0.843,4.715-1.448,7.144-1.832l-50.632,50.633c-6.195,6.194-9.607,14.43-9.607,23.191    c0,8.76,3.412,16.996,9.606,23.19c6.394,6.394,14.79,9.59,23.19,9.589c8.398,0,16.797-3.198,23.192-9.589l25.43-25.43l6.883,6.888    c0.002,0.002,0.003,0.003,0.005,0.005l0.286,0.286l0.275,0.275c0.001,0.001,0.003,0.003,0.005,0.004l0.005,0.005    c0.079,0.078,0.156,0.152,0.233,0.226l95.881,95.881c2.103,2.102,3.26,4.898,3.26,7.872    C359.893,357.921,358.736,360.717,356.63,362.822z M408.137,240.834c-5.674,5.675-9.4,12.723-10.774,20.381    c-4.08,22.72-14.867,43.364-31.193,59.698l-6.284,6.285l-51.731-51.731c1.124,0.083,2.253,0.138,3.39,0.138    c5.238,0,10.598-0.918,15.934-3.101c4.18-1.71,6.182-6.485,4.472-10.664c-1.71-4.179-6.481-6.182-10.664-4.472    c-21.046,8.611-46.278-15.12-49.087-17.855c-0.047-0.046-0.094-0.091-0.142-0.135l-0.29-0.29    c-0.001-0.001-0.002-0.001-0.003-0.002l-0.253-0.252c-0.001-0.001-0.003-0.003-0.005-0.004l-6.884-6.889l7.806-7.807    c3.195-3.194,3.195-8.371,0.001-11.565c-3.194-3.192-8.371-3.193-11.564,0l-13.57,13.57c-0.005,0.005-0.011,0.01-0.016,0.015    c-0.005,0.005-0.01,0.011-0.015,0.016l-31.2,31.2c-6.412,6.411-16.842,6.409-23.252,0c-3.105-3.105-4.815-7.234-4.815-11.626    c0-4.392,1.71-8.521,4.816-11.626l53.852-53.854c2.996-2.995,6.326-5.63,9.905-7.837c8.503-5.256,18.324-8.034,28.401-8.034    c7.693,0,15.439,1.67,22.403,4.831c15.842,7.188,34.671,3.839,46.851-8.338l11.383-11.381l66.929,66.929L408.137,240.834z     M454.172,214.944l-87.736-87.736l38.087-38.086l87.736,87.736L454.172,214.944z" fill="#454545"/>
	</g>
</g>
<g>
	<g>
		<circle cx="462.41" cy="183.11" r="8.177" fill="#454545"/>
	</g>
</g>
<g>
	<g>
		<circle cx="53.567" cy="191.189" r="8.177" fill="#454545"/>
	</g>
</g>
<g>
</g>
<g>
</g>
<g>
</g>
<g>
</g>
<g>
</g>
<g>
</g>
<g>
</g>
<g>
</g>
<g>
</g>
<g>
</g>
<g>
</g>
<g>
</g>
<g>
</g>
<g>
</g>
<g>
</g>
</svg>
