<svg width="756" height="277" viewBox="0 0 756 277" version="1.1" xmlns="http://www.w3.org/2000/svg" xmlns:xlink="http://www.w3.org/1999/xlink">
<title>nimbus-logo</title>
<desc>Created using Figma</desc>
<g id="Canvas" transform="translate(2336 -10)">
<g id="nimbus-logo">
<g id="Group">
<g id="Vector">
<use xlink:href="#path0_fill" transform="translate(-2335.66 10.288)" fill="#FFFFFF"/>
</g>
</g>
<g id="Group">
<g id="Vector">
<use xlink:href="#path1_fill" transform="translate(-2336 10)" fill="#006EAB"/>
</g>
</g>
<g id="Group">
<g id="Vector">
<use xlink:href="#path2_fill" transform="translate(-2273.12 56.1393)" fill="#0F3659"/>
</g>
</g>
<g id="Nimbus">
<use xlink:href="#path3_fill" transform="translate(-2034 52)" fill="#003559"/>
</g>
</g>
</g>
<defs>
<path id="path0_fill" d="M -1.95008e-05 76.1508C -1.95008e-05 71.5475 3.25542 65.8978 7.2336 63.5961L 114.175 1.72626C 118.153 -0.575411 124.664 -0.575411 128.642 1.72626L 235.586 63.5961C 239.564 65.8978 242.819 71.5475 242.819 76.1508L 242.819 199.889C 242.819 204.492 239.564 210.142 235.586 212.445L 128.642 274.319C 124.664 276.621 118.153 276.621 114.175 274.319L 7.2336 212.445C 3.25542 210.144 -1.95008e-05 204.494 -1.95008e-05 199.889L -1.95008e-05 76.1508Z"/>
<path id="path1_fill" d="M 69.5598 81.458C 65.8836 78.7346 59.1351 76.5071 54.5627 76.5071L 53.84 76.5071C 49.2676 76.5071 45.5271 80.2554 45.5271 84.8373L 45.5271 226.986C 45.5271 231.568 42.2872 233.442 38.3285 231.151L 7.19851 213.139C 3.2398 210.847 1.8074e-05 205.225 1.8074e-05 200.643L 1.8074e-05 76.351C 1.8074e-05 71.7691 3.2398 66.1467 7.19851 63.8568L 114.615 1.71746C 118.574 -0.572498 125.054 -0.572498 129.014 1.71746L 175.736 28.7421C 179.696 31.0321 182.936 36.6545 182.936 41.2363L 182.936 157.109C 182.936 161.69 179.928 163.209 176.252 160.486L 69.5598 81.458Z"/>
<path id="path2_fill" d="M 173.55 17.7175C 177.509 20.0075 180.748 25.6299 180.748 30.2117L 180.748 154.504C 180.748 159.086 177.509 164.708 173.55 166.998L 66.1388 229.143C 62.1801 231.433 55.7005 231.433 51.7398 229.143L 7.19854 203.382C 3.23983 201.092 -7.61009e-06 195.469 -7.61009e-06 190.887L -7.61009e-06 65.465C -7.61009e-06 60.8831 3.00799 59.3623 6.6842 62.0857L 113.378 141.112C 117.055 143.835 123.803 146.063 128.375 146.063L 129.1 146.063C 133.673 146.063 137.413 142.314 137.413 137.732L 137.413 5.14323C 137.413 0.561366 140.653 -1.31277 144.612 0.977185L 173.55 17.7175Z"/>
<path id="path3_fill" d="M 23.25 62.2L 23.25 149L 12.09 149L 12.09 40.5L 23.25 40.5L 77.035 127.145L 77.035 40.5L 88.35 40.5L 88.35 149L 77.035 149L 23.25 62.2ZM 114.761 51.66C 113.004 51.66 111.454 51.04 110.111 49.8C 108.871 48.4567 108.251 46.9583 108.251 45.305C 108.251 43.6517 108.871 42.205 110.111 40.965C 111.454 39.6217 113.004 38.95 114.761 38.95C 116.414 38.95 117.861 39.57 119.101 40.81C 120.341 42.05 120.961 43.5483 120.961 45.305C 120.961 47.0617 120.341 48.56 119.101 49.8C 117.861 51.04 116.414 51.66 114.761 51.66ZM 108.871 71.345L 120.031 71.345L 120.031 149L 108.871 149L 108.871 71.345ZM 226.397 97.695C 226.397 91.7017 225.002 87.31 222.212 84.52C 219.525 81.73 215.857 80.335 211.207 80.335C 207.59 80.335 203.56 81.1617 199.117 82.815L 194.312 85.14C 195.655 88.0333 196.327 91.2883 196.327 94.905L 196.327 149L 185.167 149L 185.167 97.85C 185.167 91.8567 183.617 87.465 180.517 84.675C 177.52 81.885 173.594 80.49 168.737 80.49C 163.26 80.49 157.68 82.04 151.997 85.14L 151.997 149L 140.837 149L 140.837 71.345L 151.377 71.345L 151.532 75.22C 157.525 71.9133 163.622 70.26 169.822 70.26C 177.469 70.26 183.669 72.6883 188.422 77.545C 189.869 76.7183 192.039 75.5817 194.932 74.135C 201.029 71.345 206.919 69.95 212.602 69.95C 219.939 69.95 225.932 72.2233 230.582 76.77C 235.232 81.2133 237.557 87.4133 237.557 95.37L 237.557 149L 226.397 149L 226.397 97.695ZM 312.314 124.665C 312.314 129.935 311.229 134.378 309.059 137.995C 306.889 141.612 303.944 144.35 300.224 146.21C 296.917 147.863 293.559 149.052 290.149 149.775C 286.842 150.498 283.277 150.86 279.454 150.86C 275.631 150.86 270.361 150.498 263.644 149.775L 255.119 149L 255.119 40.5L 266.279 40.5L 266.279 74.29C 268.552 72.9467 271.291 71.9133 274.494 71.19C 277.697 70.4667 280.952 70.105 284.259 70.105C 289.942 70.105 294.902 71.0867 299.139 73.05C 307.922 77.08 312.314 84.52 312.314 95.37L 312.314 124.665ZM 301.309 97.075C 301.309 91.2883 299.604 87.1033 296.194 84.52C 292.887 81.9367 288.651 80.645 283.484 80.645C 280.384 80.645 277.284 81.0583 274.184 81.885C 271.084 82.7117 268.449 83.7967 266.279 85.14L 266.279 139.39C 269.999 140.113 274.081 140.475 278.524 140.475C 285.241 140.475 290.717 139.287 294.954 136.91C 299.191 134.43 301.309 130.4 301.309 124.82L 301.309 97.075ZM 373.604 143.265C 371.434 145.642 368.748 147.502 365.544 148.845C 362.341 150.085 359.034 150.705 355.624 150.705C 336.198 150.705 326.484 141.25 326.484 122.34L 326.484 71.345L 337.644 71.345L 337.644 122.34C 337.644 128.333 339.194 132.828 342.294 135.825C 345.394 138.718 349.838 140.165 355.624 140.165C 367.301 140.165 373.139 134.172 373.139 122.185L 373.139 71.345L 384.299 71.345L 384.299 149L 373.604 149L 373.604 143.265ZM 408.211 128.85C 408.624 132.673 410.536 135.67 413.946 137.84C 417.356 139.907 421.386 140.94 426.036 140.94C 430.272 140.94 433.992 139.958 437.196 137.995C 440.502 135.928 442.156 132.88 442.156 128.85C 442.156 126.06 441.329 123.735 439.676 121.875C 438.126 120.015 436.111 118.568 433.631 117.535C 431.254 116.398 427.947 115.107 423.711 113.66C 418.647 111.903 414.566 110.353 411.466 109.01C 408.469 107.563 405.782 105.497 403.406 102.81C 401.132 100.123 399.737 96.6617 399.221 92.425L 399.066 90.565C 399.066 87.155 399.996 83.8483 401.856 80.645C 403.819 77.3383 406.764 74.6517 410.691 72.585C 414.721 70.5183 419.732 69.485 425.726 69.485C 429.032 69.485 431.926 69.8467 434.406 70.57C 436.989 71.19 439.004 71.8617 440.451 72.585C 441.897 73.3083 442.776 73.7733 443.086 73.98L 439.521 83.745C 439.211 83.5383 438.487 83.125 437.351 82.505C 436.317 81.885 434.767 81.3167 432.701 80.8C 430.634 80.18 428.309 79.87 425.726 79.87C 420.869 79.87 417.046 80.955 414.256 83.125C 411.466 85.295 410.277 88.24 410.691 91.96C 411.001 94.75 412.499 96.9717 415.186 98.625C 417.976 100.175 422.161 101.932 427.741 103.895C 433.217 105.755 437.661 107.563 441.071 109.32C 444.584 110.973 447.529 113.402 449.906 116.605C 452.386 119.705 453.626 123.787 453.626 128.85C 453.626 135.257 451.301 140.63 446.651 144.97C 442.001 149.207 435.129 151.325 426.036 151.325C 420.146 151.325 415.031 150.343 410.691 148.38C 406.454 146.313 403.199 143.627 400.926 140.32C 398.756 137.013 397.567 133.345 397.361 129.315L 408.211 128.85Z"/>
</defs>
</svg>
