<svg width="523" height="523" viewBox="0 0 523 523" version="1.1" xmlns="http://www.w3.org/2000/svg" xmlns:xlink="http://www.w3.org/1999/xlink">
<title>oneoff-cleaning</title>
<desc>Created using Figma</desc>
<g id="Canvas" transform="translate(-879 -3371)">
<g id="oneoff-cleaning">
<g id="Group">
<g id="Group">
<g id="Group">
<g id="Vector">
<use xlink:href="#path0_fill" transform="translate(1115.19 3371)" fill="#6ECFF5"/>
</g>
<g id="Vector">
<use xlink:href="#path1_fill" transform="translate(1326.08 3843.39)" fill="#6ECFF5"/>
</g>
<g id="Vector">
<use xlink:href="#path2_fill" transform="translate(1292.34 3843.39)" fill="#6ECFF5"/>
</g>
<g id="Vector">
<use xlink:href="#path2_fill" transform="translate(1258.6 3843.39)" fill="#6ECFF5"/>
</g>
<g id="Vector">
<use xlink:href="#path3_fill" transform="translate(1165.81 3843.39)" fill="#6ECFF5"/>
</g>
<g id="Vector">
<use xlink:href="#path4_fill" transform="translate(980.225 3413.18)" fill="#6ECFF5"/>
</g>
<g id="Vector">
<use xlink:href="#path3_fill" transform="translate(912.742 3413.18)" fill="#6ECFF5"/>
</g>
<g id="Vector">
<use xlink:href="#path3_fill" transform="translate(946.484 3413.18)" fill="#6ECFF5"/>
</g>
<g id="Vector">
<use xlink:href="#path3_fill" transform="translate(879 3413.18)" fill="#6ECFF5"/>
</g>
<g id="Vector">
<use xlink:href="#path5_fill" transform="matrix(-0.7071 -0.7071 0.7071 -0.7071 1036.81 3503.5)" fill="#6ECFF5"/>
</g>
<g id="Vector">
<use xlink:href="#path6_fill" transform="matrix(0.9487 0.3162 -0.3162 0.9487 1050.37 3371.43)" fill="#6ECFF5"/>
</g>
<g id="Vector">
<use xlink:href="#path7_fill" transform="matrix(-0.7071 -0.7071 0.7071 -0.7071 1011.5 3528.8)" fill="#6ECFF5"/>
</g>
<g id="Vector">
<use xlink:href="#path8_fill" transform="matrix(-0.4472 -0.8944 0.8944 -0.4472 941.819 3505.08)" fill="#6ECFF5"/>
</g>
<g id="Vector">
<use xlink:href="#path9_fill" transform="matrix(-0.7071 -0.7071 0.7071 -0.7071 1062.11 3478.19)" fill="#6ECFF5"/>
</g>
<g id="Vector">
<use xlink:href="#path10_fill" transform="matrix(-0.4472 -0.8944 0.8944 -0.4472 975.563 3488.21)" fill="#6ECFF5"/>
</g>
<g id="Vector">
<use xlink:href="#path11_fill" transform="matrix(0.8944 -0.4472 0.4472 0.8944 1001.75 3456.24)" fill="#6ECFF5"/>
</g>
</g>
</g>
</g>
</g>
</g>
<defs>
<path id="path0_fill" d="M 178.511 0L 59.0491 0L 59.0491 16.8709L 25.3073 16.8709L 25.3073 75.92L 59.0491 75.92L 59.0491 92.7909L 106.338 92.7909C 99.1938 110.808 80.3235 146.306 40.9797 151.923L 33.7418 152.959L 33.7418 184.592L 41.1308 185.512C 41.7049 185.587 44.8685 185.942 49.9793 185.942C 68.4788 185.942 112.485 181.142 151.838 140.846L 151.838 171.198C 127.485 178.477 109.66 201.067 109.66 227.758L 109.66 269.935C 109.66 307.076 86.3017 319.653 59.2668 334.213C 31.4798 349.169 -5.11467e-14 366.125 -5.11467e-14 413.338L -5.11467e-14 463.951C -5.11467e-14 496.512 26.495 523 59.0491 523L 219.324 523C 251.876 523 278.373 496.512 278.373 463.951L 278.373 227.758C 278.373 198.074 256.323 173.501 227.76 169.384L 227.76 152.554C 235.554 108.251 279.199 92.9835 281.038 92.359L 286.807 90.4353L 286.807 36.0956L 178.511 0ZM 59.0491 59.0491L 42.1782 59.0491L 42.1782 33.7418L 59.0491 33.7418L 59.0491 59.0491ZM 50.6127 169.098L 50.6127 167.293C 98.8122 156.386 118.577 109.948 124.339 92.7909L 151.838 92.7909L 151.838 115.136C 114.249 163.615 68.3438 169.013 50.6127 169.098ZM 261.5 227.758L 261.5 463.951C 261.5 487.207 242.579 506.129 219.322 506.129L 59.0473 506.129C 35.7915 506.129 16.8691 487.208 16.8691 463.951L 16.8691 413.338C 16.8691 376.197 40.2274 363.62 67.2623 349.06C 81.5436 341.375 96.7698 333.124 108.224 320.547L 168.709 320.547L 168.709 303.676L 119.54 303.676C 123.884 294.448 126.533 283.465 126.533 269.935L 126.533 261.498L 168.709 261.498L 168.709 244.627L 126.531 244.627L 126.531 227.756C 126.531 204.501 145.452 185.578 168.709 185.578L 219.322 185.578C 242.578 185.58 261.5 204.501 261.5 227.758ZM 269.935 78.6445C 255.443 85.0294 218.487 105.503 211.004 150.447L 210.92 168.709L 168.709 168.709L 168.709 75.92L 75.9182 75.92L 75.9182 16.8709L 175.778 16.8709L 269.935 48.2589L 269.935 78.6445Z"/>
<path id="path1_fill" d="M 16.8709 0L 6.37053e-06 0L 6.37053e-06 16.8709L 16.8709 16.8709L 16.8709 0Z"/>
<path id="path2_fill" d="M 16.8709 0L 6.37053e-06 0L 6.37053e-06 16.8709L 16.8709 16.8709L 16.8709 0Z"/>
<path id="path3_fill" d="M 16.8709 0L 0 0L 0 16.8709L 16.8709 16.8709L 16.8709 0Z"/>
<path id="path4_fill" d="M 118.096 0L 0 0L 0 16.8709L 118.096 16.8709L 118.096 0Z"/>
<path id="path5_fill" d="M 16.8709 -2.91067e-06L 0 -2.91067e-06L 0 23.855L 16.8709 23.855L 16.8709 -2.91067e-06Z"/>
<path id="path6_fill" d="M 26.6731 0L -6.80987e-06 0L -6.80987e-06 16.8709L 26.6731 16.8709L 26.6731 0Z"/>
<path id="path7_fill" d="M 16.8709 -4.39347e-06L 6.37053e-06 -4.39347e-06L 6.37053e-06 23.855L 16.8709 23.855L 16.8709 -4.39347e-06Z"/>
<path id="path8_fill" d="M 16.8709 0L 0 0L 0 18.8612L 16.8709 18.8612L 16.8709 0Z"/>
<path id="path9_fill" d="M 16.8709 -3.40494e-06L -6.37053e-06 -3.40494e-06L -6.37053e-06 23.855L 16.8709 23.855L 16.8709 -3.40494e-06Z"/>
<path id="path10_fill" d="M 16.8709 0L 0 0L 0 18.8612L 16.8709 18.8612L 16.8709 0Z"/>
<path id="path11_fill" d="M 18.8612 -3.18526e-06L 4.83281e-06 -3.18526e-06L 4.83281e-06 16.8709L 18.8612 16.8709L 18.8612 -3.18526e-06Z"/>
</defs>
</svg>
