<svg width="513" height="475" viewBox="0 0 513 475" version="1.1" xmlns="http://www.w3.org/2000/svg" xmlns:xlink="http://www.w3.org/1999/xlink">
<title>polishing</title>
<desc>Created using Figma</desc>
<g id="Canvas" transform="translate(-2418 -3333)">
<g id="polishing">
<g id="Group">
<g id="Group">
<g id="Vector">
<use xlink:href="#path0_fill" transform="translate(2806.33 3516.87)" fill="#6ECFF5"/>
</g>
</g>
</g>
<g id="Group">
<g id="Group">
<g id="Vector">
<use xlink:href="#path1_fill" transform="translate(2753.87 3522.48)" fill="#6ECFF5"/>
</g>
</g>
</g>
<g id="Group">
<g id="Group">
<g id="Vector">
<use xlink:href="#path2_fill" transform="translate(2695.41 3418.8)" fill="#6ECFF5"/>
</g>
</g>
</g>
<g id="Group">
<g id="Group">
<g id="Vector">
<use xlink:href="#path3_fill" transform="translate(2824.36 3333)" fill="#6ECFF5"/>
</g>
</g>
</g>
<g id="Group">
<g id="Group">
<g id="Vector">
<use xlink:href="#path4_fill" transform="translate(2784.06 3396.52)" fill="#6ECFF5"/>
</g>
</g>
</g>
<g id="Group">
<g id="Group">
<g id="Vector">
<use xlink:href="#path5_fill" transform="translate(2418 3429.11)" fill="#6ECFF5"/>
</g>
</g>
</g>
<g id="Group">
<g id="Group">
<g id="Vector">
<use xlink:href="#path6_fill" transform="translate(2641.26 3492.06)" fill="#6ECFF5"/>
</g>
</g>
</g>
</g>
</g>
<defs>
<path id="path0_fill" d="M 43.8766 20.655C 42.8156 9.072 32.8556 4.27246e-06 21.2046 4.27246e-06C 12.5776 4.27246e-06 4.78863 4.79301 0.876633 12.509C -1.14437 16.493 0.447633 21.361 4.43263 23.381C 8.41663 25.4 13.2856 23.808 15.3056 19.824C 16.4456 17.574 18.7057 16.177 21.2037 16.177C 24.5217 16.177 27.4646 18.849 27.7656 22.132C 28.1496 26.33 31.6767 29.483 35.8117 29.482C 36.0587 29.482 36.3076 29.471 36.5586 29.449C 41.0076 29.041 44.2846 25.104 43.8766 20.655Z"/>
<path id="path1_fill" d="M 24.612 8.755C 20.879 3.273 14.702 -2.19727e-06 8.08899 -2.19727e-06C 3.62099 -2.19727e-06 -2.68555e-06 3.621 -2.68555e-06 8.089C -2.68555e-06 12.557 3.62099 16.178 8.08899 16.178C 9.34399 16.178 10.522 16.807 11.24 17.862C 12.805 20.161 15.347 21.399 17.934 21.399C 19.501 21.399 21.085 20.944 22.479 19.995C 26.171 17.48 27.126 12.448 24.612 8.755Z"/>
<path id="path2_fill" d="M 34.062 -3.05176e-06C 15.28 -3.05176e-06 -1.0498e-05 15.28 -1.0498e-05 34.062C -1.0498e-05 52.844 15.281 68.124 34.062 68.124C 52.844 68.124 68.124 52.844 68.124 34.062C 68.124 15.28 52.844 -3.05176e-06 34.062 -3.05176e-06ZM 34.062 51.945C 24.201 51.945 16.179 43.923 16.179 34.062C 16.179 24.201 24.201 16.179 34.062 16.179C 43.923 16.179 51.945 24.201 51.945 34.062C 51.945 43.923 43.923 51.945 34.062 51.945Z"/>
<path id="path3_fill" d="M 30.361 -1.2207e-07C 13.62 -1.2207e-07 -7.56836e-06 13.62 -7.56836e-06 30.361C -7.56836e-06 47.102 13.62 60.723 30.361 60.723C 47.102 60.723 60.723 47.103 60.723 30.361C 60.724 13.62 47.103 -1.2207e-07 30.361 -1.2207e-07ZM 30.36 44.545C 22.54 44.546 16.177 38.183 16.177 30.361C 16.177 22.54 22.539 16.178 30.36 16.178C 38.182 16.178 44.544 22.54 44.544 30.361C 44.544 38.183 38.182 44.545 30.36 44.545Z"/>
<path id="path4_fill" d="M 30.362 2.50244e-06C 13.62 2.50244e-06 6.83594e-06 13.621 6.83594e-06 30.363C 6.83594e-06 47.104 13.621 60.725 30.362 60.725C 47.103 60.725 60.723 47.104 60.723 30.363C 60.723 13.622 47.104 2.50244e-06 30.362 2.50244e-06ZM 30.363 44.547C 22.541 44.547 16.179 38.185 16.179 30.363C 16.179 22.541 22.541 16.179 30.363 16.179C 38.183 16.178 44.546 22.541 44.546 30.363C 44.546 38.185 38.184 44.547 30.363 44.547Z"/>
<path id="path5_fill" d="M 246.35 42.797L 246.35 8.089C 246.35 3.621 242.728 2.68555e-06 238.261 2.68555e-06L 28.907 2.68555e-06C 24.439 2.68555e-06 20.818 3.621 20.818 8.089L 20.818 42.796C 8.805 46.305 0 57.412 0 70.544C 0 86.483 12.967 99.451 28.907 99.451L 38.156 99.451C 42.623 99.451 46.245 95.83 46.245 91.362C 46.245 86.894 42.623 83.273 38.156 83.273L 28.907 83.273C 21.888 83.273 16.178 77.563 16.178 70.544C 16.178 63.525 21.888 57.815 28.907 57.815L 238.261 57.815C 245.279 57.815 250.99 63.525 250.99 70.544C 250.99 77.563 245.28 83.273 238.261 83.273L 174.513 83.273L 174.513 70.544C 174.513 66.076 170.891 62.455 166.424 62.455L 100.744 62.455C 96.277 62.455 92.655 66.076 92.655 70.544L 92.655 83.273L 70.513 83.273C 66.046 83.273 62.424 86.894 62.424 91.362C 62.424 95.83 66.046 99.451 70.513 99.451L 92.72 99.451C 93.214 108.457 96.63 116.697 102.038 123.235L 102.038 199.851L 102.038 347.043C 102.038 364.438 116.19 378.59 133.585 378.59C 150.98 378.59 165.132 364.438 165.132 347.043L 165.132 199.85L 165.132 123.234C 170.54 116.696 173.956 108.456 174.45 99.45L 238.264 99.45C 254.203 99.45 267.17 86.483 267.17 70.544C 267.168 57.412 258.363 46.305 246.35 42.797ZM 230.172 41.636L 36.997 41.636L 36.997 16.178L 230.172 16.178L 230.172 41.636L 230.172 41.636ZM 133.584 362.411C 125.11 362.411 118.216 355.517 118.216 347.043L 118.216 207.939L 148.951 207.939L 148.951 347.042L 148.952 347.042C 148.952 355.517 142.058 362.411 133.584 362.411ZM 148.952 191.761L 118.216 191.761C 118.216 191.761 118.216 135.147 118.216 135.146C 118.216 135.636 123.206 136.797 123.778 136.937C 125.637 137.39 127.528 137.705 129.433 137.893C 136.036 138.543 142.796 137.638 148.952 135.146L 148.952 191.761ZM 158.335 97.186C 158.335 110.397 147.93 121.224 134.884 121.903C 134.874 121.903 134.865 121.904 134.855 121.905C 134.434 121.927 134.011 121.937 133.584 121.937C 133.157 121.937 132.734 121.926 132.313 121.905C 132.302 121.905 132.291 121.903 132.281 121.903C 119.237 121.223 108.833 110.397 108.833 97.187L 108.833 78.634L 158.334 78.634L 158.334 97.186L 158.335 97.186Z"/>
<path id="path6_fill" d="M 263.921 79.283C 266.462 74.777 267.92 69.58 267.92 64.048C 267.92 46.888 253.96 32.927 236.801 32.927C 235.09 32.927 233.384 33.07 231.703 33.351C 225.665 13.785 207.595 5.61523e-06 186.27 5.61523e-06C 172.105 5.61523e-06 159.026 6.17599 150.114 16.632C 142.051 9.60299 131.641 5.609 120.694 5.609C 103.652 5.609 88.504 15.431 80.97 29.827C 74.529 24.555 66.35 21.518 57.642 21.518C 37.337 21.518 20.818 38.037 20.818 58.343C 20.818 66.013 23.178 73.14 27.204 79.043C 12.055 79.927 1.58691e-06 92.528 1.58691e-06 107.895C 1.58691e-06 122.377 10.706 134.404 24.618 136.482L 49.603 308.709C 50.18 312.687 53.589 315.637 57.608 315.637L 231.133 315.637C 235.152 315.637 238.561 312.687 239.138 308.709L 245.281 266.359C 245.923 261.937 242.857 257.834 238.436 257.192C 234.014 256.542 229.911 259.614 229.269 264.035L 224.131 299.458L 64.607 299.458L 41.011 136.802L 52.924 136.802L 80.841 198.409C 82.151 201.302 85.033 203.159 88.21 203.159L 200.531 203.159C 203.706 203.159 206.588 201.301 207.9 198.409L 235.816 136.802L 247.729 136.802L 233.966 231.678C 233.324 236.1 236.39 240.204 240.811 240.845C 245.232 241.499 249.336 238.423 249.978 234.002L 264.125 136.482C 278.037 134.404 288.743 122.377 288.743 107.895C 288.739 93.344 277.93 81.276 263.921 79.283ZM 57.642 37.697C 65.984 37.697 73.461 42.669 76.69 50.365C 78.131 53.8 81.729 55.808 85.408 55.227C 89.086 54.648 91.894 51.632 92.21 47.923C 93.458 33.269 105.97 21.79 120.695 21.79C 130.163 21.79 139.006 26.472 144.349 34.313C 145.96 36.675 148.701 38.006 151.556 37.83C 154.41 37.646 156.956 35.966 158.249 33.416C 163.639 22.785 174.377 16.181 186.272 16.181C 202.608 16.181 216.049 28.432 217.536 44.678C 217.785 47.405 219.399 49.821 221.821 51.097C 224.242 52.374 227.147 52.338 229.537 51.002C 231.787 49.745 234.231 49.108 236.802 49.108C 245.041 49.108 251.743 55.811 251.743 64.05C 251.743 72.289 245.041 78.991 236.802 78.991L 57.642 78.991C 46.258 78.991 36.996 69.729 36.996 58.345C 36.996 46.959 46.258 37.697 57.642 37.697ZM 195.314 186.982L 93.424 186.982L 70.685 136.803L 218.051 136.803L 195.314 186.982ZM 259.832 120.624L 257.074 120.624L 31.664 120.624L 28.907 120.624C 21.888 120.624 16.178 114.914 16.178 107.895C 16.178 100.876 21.888 95.166 28.907 95.166L 57.642 95.166L 236.802 95.166L 259.832 95.166C 266.85 95.166 272.561 100.876 272.561 107.895C 272.561 114.914 266.851 120.624 259.832 120.624Z"/>
</defs>
</svg>
