<?xml version="1.0" encoding="iso-8859-1"?>
<!-- Generator: Adobe Illustrator 19.0.0, SVG Export Plug-In . SVG Version: 6.00 Build 0)  -->
<svg xmlns="http://www.w3.org/2000/svg" xmlns:xlink="http://www.w3.org/1999/xlink" version="1.1" id="Capa_1" x="0px" y="0px" viewBox="0 0 410 410" style="enable-background:new 0 0 410 410;" xml:space="preserve" width="512px" height="512px">
<g>
	<g>
		<path d="M373,0H72.6c-9.234,0-16.72,7.486-16.72,16.72v39.44h-27.6c-4.418,0-8,3.582-8,8v133.6c0,4.418,3.582,8,8,8h183.6v14.08    h-17.44c-9.234,0-16.72,7.486-16.72,16.72v156.72c0,9.234,7.486,16.72,16.72,16.72H245c9.234,0,16.72-7.486,16.72-16.72v-156.8    c-0.044-9.203-7.517-16.64-16.72-16.64h-17.12v-22.08c0-4.418-3.582-8-8-8H36.28V72.16h19.6v39.52    c0,9.234,7.486,16.72,16.72,16.72H373c9.234,0,16.72-7.486,16.72-16.72V16.64C389.676,7.437,382.203,0,373,0z M245,235.84    c0.398,0,0.72,0.322,0.72,0.72v156.72c0,0.398-0.322,0.72-0.72,0.72h-50.56c-0.398,0-0.72-0.322-0.72-0.72v-156.8    c0-0.398,0.322-0.72,0.72-0.72L245,235.84z M293,43.84h80.72v8.32H326.2c-4.418,0-8,3.582-8,8s3.582,8,8,8h47.52v8.8h-62.4    c-4.418,0-8,3.582-8,8s3.582,8,8,8h62.4v18.88c0,0.398-0.322,0.72-0.72,0.72H72.6c-0.398,0-0.72-0.322-0.72-0.72v-95.2    c0-0.398,0.322-0.72,0.72-0.72H373c0.398,0,0.72,0.322,0.72,0.72l-0.32,11.2H293c-4.418,0-8,3.582-8,8S288.582,43.84,293,43.84z" fill="#454545"/>
	</g>
</g>
<g>
</g>
<g>
</g>
<g>
</g>
<g>
</g>
<g>
</g>
<g>
</g>
<g>
</g>
<g>
</g>
<g>
</g>
<g>
</g>
<g>
</g>
<g>
</g>
<g>
</g>
<g>
</g>
<g>
</g>
</svg>
