<?xml version="1.0" encoding="iso-8859-1"?>
<!-- Generator: Adobe Illustrator 16.0.0, SVG Export Plug-In . SVG Version: 6.00 Build 0)  -->
<!DOCTYPE svg PUBLIC "-//W3C//DTD SVG 1.1//EN" "http://www.w3.org/Graphics/SVG/1.1/DTD/svg11.dtd">
<svg xmlns="http://www.w3.org/2000/svg" xmlns:xlink="http://www.w3.org/1999/xlink" version="1.1" id="Capa_1" x="0px" y="0px" width="512px" height="512px" viewBox="0 0 592.875 592.875" style="enable-background:new 0 0 592.875 592.875;" xml:space="preserve">
<g>
	<g>
		<path d="M439.875,286.875h-9.562H210.375c0-3.825,0-5.737,0-9.562V143.438c0-47.812,38.25-86.062,86.062-86.062    s86.062,38.25,86.062,86.062v19.125v57.375c0,15.3,13.388,28.688,28.688,28.688s28.688-13.388,28.688-28.688v-57.375v-19.125    C439.875,65.025,374.85,0,296.438,0C218.025,0,153,65.025,153,143.438v143.438c-32.513,0-57.375,24.862-57.375,57.375V535.5    c0,32.513,24.862,57.375,57.375,57.375h286.875c32.513,0,57.375-24.862,57.375-57.375V344.25    C497.25,313.65,472.388,286.875,439.875,286.875z M172.125,143.438c0-68.85,55.462-124.312,124.312-124.312    c68.85,0,124.312,55.462,124.312,124.312V153v66.938c0,5.737-3.825,9.562-9.562,9.562s-9.562-3.825-9.562-9.562v-76.5    c0-57.375-47.812-105.188-105.188-105.188S191.25,86.062,191.25,143.438v143.438h-19.125c0-3.825,0-5.737,0-9.562V143.438z     M478.125,535.5c0,21.037-17.213,38.25-38.25,38.25H153c-21.038,0-38.25-17.213-38.25-38.25V344.25    c0-21.037,17.212-38.25,38.25-38.25h286.875c21.037,0,38.25,17.213,38.25,38.25V535.5z" fill="#454545"/>
		<path d="M296.438,363.375c-26.775,0-47.812,21.037-47.812,47.812c0,15.3,7.65,28.688,19.125,38.25v38.25    c0,15.3,13.388,28.688,28.688,28.688s28.688-13.388,28.688-28.688v-38.25c11.475-9.562,19.125-22.95,19.125-38.25    C344.25,384.412,323.213,363.375,296.438,363.375z M306,437.963v49.725c0,5.737-3.825,9.562-9.562,9.562s-9.562-3.825-9.562-9.562    v-49.725c-11.475-3.825-19.125-15.301-19.125-26.775c0-15.3,13.388-28.688,28.688-28.688s28.688,13.388,28.688,28.688    C325.125,424.575,317.475,434.138,306,437.963z" fill="#454545"/>
	</g>
</g>
<g>
</g>
<g>
</g>
<g>
</g>
<g>
</g>
<g>
</g>
<g>
</g>
<g>
</g>
<g>
</g>
<g>
</g>
<g>
</g>
<g>
</g>
<g>
</g>
<g>
</g>
<g>
</g>
<g>
</g>
</svg>
