<?xml version="1.0" encoding="iso-8859-1"?>
<!-- Generator: Adobe Illustrator 19.0.0, SVG Export Plug-In . SVG Version: 6.00 Build 0)  -->
<svg xmlns="http://www.w3.org/2000/svg" xmlns:xlink="http://www.w3.org/1999/xlink" version="1.1" id="Capa_1" x="0px" y="0px" viewBox="0 0 480 480" style="enable-background:new 0 0 480 480;" xml:space="preserve" width="512px" height="512px">
<g>
	<g>
		<path d="M240,0C107.452,0,0,107.452,0,240s107.452,240,240,240s240-107.452,240-240C479.85,107.514,372.486,0.15,240,0z M240,464    C116.288,464,16,363.712,16,240S116.288,16,240,16s224,100.288,224,224C463.859,363.653,363.653,463.859,240,464z" fill="#454545"/>
	</g>
</g>
<g>
	<g>
		<rect x="232" y="40" width="16" height="32" fill="#454545"/>
	</g>
</g>
<g>
	<g>
		<rect x="72.644" y="132.005" transform="matrix(0.5 -0.866 0.866 0.5 -87.8544 143.847)" width="16" height="32" fill="#454545"/>
	</g>
</g>
<g>
	<g>
		<rect x="64.629" y="324.008" transform="matrix(0.8661 -0.4999 0.4999 0.8661 -155.1791 84.7736)" width="32" height="16" fill="#454545"/>
	</g>
</g>
<g>
	<g>
		<rect x="232" y="408" width="16" height="32" fill="#454545"/>
	</g>
</g>
<g>
	<g>
		<rect x="391.349" y="316.038" transform="matrix(0.5 -0.866 0.866 0.5 -87.8727 511.882)" width="16" height="32" fill="#454545"/>
	</g>
</g>
<g>
	<g>
		<rect x="383.351" y="140.001" transform="matrix(0.8661 -0.4999 0.4999 0.8661 -20.5041 219.4649)" width="32" height="16" fill="#454545"/>
	</g>
</g>
<g>
	<g>
		<rect x="40" y="232" width="32" height="16" fill="#454545"/>
	</g>
</g>
<g>
	<g>
		<rect x="131.999" y="391.351" transform="matrix(0.4999 -0.8661 0.8661 0.4999 -271.8555 327.8848)" width="32" height="16" fill="#454545"/>
	</g>
</g>
<g>
	<g>
		<rect x="324.005" y="383.354" transform="matrix(0.866 -0.5 0.5 0.866 -155.1906 219.4897)" width="16" height="32" fill="#454545"/>
	</g>
</g>
<g>
	<g>
		<rect x="408" y="232" width="32" height="16" fill="#454545"/>
	</g>
</g>
<g>
	<g>
		<rect x="315.989" y="72.648" transform="matrix(0.4999 -0.8661 0.8661 0.4999 96.1741 327.8566)" width="32" height="16" fill="#454545"/>
	</g>
</g>
<g>
	<g>
		<rect x="139.996" y="64.643" transform="matrix(0.866 -0.5 0.5 0.866 -20.494 84.7963)" width="16" height="32" fill="#454545"/>
	</g>
</g>
<g>
	<g>
		<path d="M271.009,232.145c-2.894-11.295-11.714-20.115-23.009-23.009V128c0-4.418-3.582-8-8-8s-8,3.582-8,8v81.136    c-11.195,2.927-19.937,11.669-22.864,22.864H160c-4.418,0-8,3.582-8,8s3.582,8,8,8h49.136    c4.378,17.086,21.778,27.387,38.864,23.009S275.387,249.231,271.009,232.145z M240,256c-8.837,0-16-7.163-16-16s7.163-16,16-16    s16,7.163,16,16S248.837,256,240,256z" fill="#454545"/>
	</g>
</g>
<g>
</g>
<g>
</g>
<g>
</g>
<g>
</g>
<g>
</g>
<g>
</g>
<g>
</g>
<g>
</g>
<g>
</g>
<g>
</g>
<g>
</g>
<g>
</g>
<g>
</g>
<g>
</g>
<g>
</g>
</svg>
